<mxfile host="app.diagrams.net" agent="Mozilla/5.0 (Windows NT 10.0; Win64; x64; rv:137.0) Gecko/20100101 Firefox/137.0" version="26.2.13">
  <diagram name="Page-1" id="U0VtuloK2FVuiMDm8xyP">
    <mxGraphModel dx="870" dy="1614" grid="1" gridSize="10" guides="1" tooltips="1" connect="1" arrows="1" fold="1" page="1" pageScale="1" pageWidth="827" pageHeight="1169" math="0" shadow="0">
      <root>
        <mxCell id="0" />
        <mxCell id="1" parent="0" />
        <mxCell id="Rhj5aZNn374z85N-x_Tq-1" value="" style="ellipse;whiteSpace=wrap;html=1;rounded=0;shadow=0;comic=0;labelBackgroundColor=none;strokeWidth=1;fillColor=#000000;fontFamily=Verdana;fontSize=12;align=center;" vertex="1" parent="1">
          <mxGeometry x="135" y="-1152.5" width="30" height="30" as="geometry" />
        </mxCell>
        <mxCell id="Rhj5aZNn374z85N-x_Tq-2" value="用户使用手机拍照获取面部图像" style="rounded=1;whiteSpace=wrap;html=1;fillColor=#d0cee2;strokeColor=#56517e;" vertex="1" parent="1">
          <mxGeometry x="95" y="-1100" width="110" height="40" as="geometry" />
        </mxCell>
        <mxCell id="Rhj5aZNn374z85N-x_Tq-3" value="" style="endArrow=classic;html=1;rounded=0;exitX=0.5;exitY=1;exitDx=0;exitDy=0;entryX=0.5;entryY=0;entryDx=0;entryDy=0;" edge="1" parent="1" source="Rhj5aZNn374z85N-x_Tq-1" target="Rhj5aZNn374z85N-x_Tq-2">
          <mxGeometry width="50" height="50" relative="1" as="geometry">
            <mxPoint x="-70" y="-900" as="sourcePoint" />
            <mxPoint x="-20" y="-950" as="targetPoint" />
          </mxGeometry>
        </mxCell>
        <mxCell id="Rhj5aZNn374z85N-x_Tq-4" value="" style="endArrow=classic;html=1;rounded=0;exitX=1;exitY=0.5;exitDx=0;exitDy=0;entryX=0;entryY=0.5;entryDx=0;entryDy=0;" edge="1" parent="1" source="Rhj5aZNn374z85N-x_Tq-2" target="Rhj5aZNn374z85N-x_Tq-5">
          <mxGeometry width="50" height="50" relative="1" as="geometry">
            <mxPoint x="-70" y="-900" as="sourcePoint" />
            <mxPoint x="280" y="-980" as="targetPoint" />
            <Array as="points" />
          </mxGeometry>
        </mxCell>
        <mxCell id="Rhj5aZNn374z85N-x_Tq-5" value="将图像传输到电脑端，准备处理" style="rounded=1;whiteSpace=wrap;html=1;fillColor=#dae8fc;strokeColor=#6c8ebf;" vertex="1" parent="1">
          <mxGeometry x="230" y="-1100" width="100" height="40" as="geometry" />
        </mxCell>
        <mxCell id="Rhj5aZNn374z85N-x_Tq-6" value="" style="endArrow=classic;html=1;rounded=0;exitX=1;exitY=0.5;exitDx=0;exitDy=0;entryX=0;entryY=0.5;entryDx=0;entryDy=0;" edge="1" parent="1" source="Rhj5aZNn374z85N-x_Tq-5" target="Rhj5aZNn374z85N-x_Tq-7">
          <mxGeometry width="50" height="50" relative="1" as="geometry">
            <mxPoint x="30" y="-900" as="sourcePoint" />
            <mxPoint x="280" y="-840" as="targetPoint" />
          </mxGeometry>
        </mxCell>
        <mxCell id="Rhj5aZNn374z85N-x_Tq-7" value="图像分割为多区域，使用模型识别皮肤状态" style="rounded=1;whiteSpace=wrap;html=1;fillColor=#dae8fc;strokeColor=#6c8ebf;" vertex="1" parent="1">
          <mxGeometry x="353" y="-1100" width="110" height="40" as="geometry" />
        </mxCell>
        <mxCell id="Rhj5aZNn374z85N-x_Tq-8" value="&lt;div&gt;置信度是否大于&lt;/div&gt;&lt;div&gt;阈值？&lt;/div&gt;" style="rhombus;whiteSpace=wrap;html=1;direction=south;fillColor=#f8cecc;strokeColor=#b85450;" vertex="1" parent="1">
          <mxGeometry x="348" y="-1040" width="120" height="50" as="geometry" />
        </mxCell>
        <mxCell id="Rhj5aZNn374z85N-x_Tq-10" value="" style="endArrow=classic;html=1;rounded=0;entryX=0.5;entryY=0;entryDx=0;entryDy=0;exitX=0;exitY=0.5;exitDx=0;exitDy=0;" edge="1" parent="1" source="Rhj5aZNn374z85N-x_Tq-26" target="Rhj5aZNn374z85N-x_Tq-15">
          <mxGeometry width="50" height="50" relative="1" as="geometry">
            <mxPoint x="180" y="-690" as="sourcePoint" />
            <mxPoint x="180" y="-620" as="targetPoint" />
            <Array as="points">
              <mxPoint x="180" y="-1015" />
            </Array>
          </mxGeometry>
        </mxCell>
        <mxCell id="Rhj5aZNn374z85N-x_Tq-11" value="&lt;div&gt;Python数据接收和处理。生成字符串指令，&lt;/div&gt;&lt;div&gt;如：&lt;code data-end=&quot;698&quot; data-start=&quot;684&quot;&gt;&lt;b&gt;PIN7:255,0,0&lt;/b&gt;&lt;/code&gt;&lt;/div&gt;" style="rounded=1;whiteSpace=wrap;html=1;fillColor=#fff2cc;strokeColor=#d6b656;" vertex="1" parent="1">
          <mxGeometry x="115" y="-925" width="130" height="50" as="geometry" />
        </mxCell>
        <mxCell id="Rhj5aZNn374z85N-x_Tq-12" value="通过&lt;b&gt; &lt;code data-end=&quot;745&quot; data-start=&quot;738&quot;&gt;bleak&lt;/code&gt; &lt;/b&gt;使用 BLE 方式传输至 Arduino" style="rounded=1;whiteSpace=wrap;html=1;fillColor=#19979C;strokeColor=#156569;" vertex="1" parent="1">
          <mxGeometry x="264.47" y="-920" width="120" height="40" as="geometry" />
        </mxCell>
        <mxCell id="Rhj5aZNn374z85N-x_Tq-13" value="Arduino 通过对应引脚控制灯条进行符合规则的发光" style="rounded=1;whiteSpace=wrap;html=1;direction=west;fillColor=#19979C;strokeColor=#156569;" vertex="1" parent="1">
          <mxGeometry x="390.21" y="-920" width="120" height="50" as="geometry" />
        </mxCell>
        <mxCell id="Rhj5aZNn374z85N-x_Tq-14" value="&lt;div&gt;是否需要其他颜色&lt;/div&gt;&lt;div&gt;光疗？是否需要使用&lt;/div&gt;&lt;div&gt;另一套光疗方案？&lt;/div&gt;" style="rhombus;whiteSpace=wrap;html=1;direction=west;fillColor=#f8cecc;strokeColor=#b85450;" vertex="1" parent="1">
          <mxGeometry x="264.47" y="-840" width="150.94" height="67.31" as="geometry" />
        </mxCell>
        <mxCell id="Rhj5aZNn374z85N-x_Tq-15" value="&lt;div&gt; 4纵行矩阵&lt;/div&gt;&lt;div&gt;(区域, 红色, 绿色, 蓝色)&lt;/div&gt;" style="rounded=0;whiteSpace=wrap;html=1;fillColor=#fff2cc;strokeColor=#d6b656;" vertex="1" parent="1">
          <mxGeometry x="115" y="-990" width="130" height="40" as="geometry" />
        </mxCell>
        <mxCell id="Rhj5aZNn374z85N-x_Tq-16" value="" style="endArrow=classic;html=1;rounded=0;entryX=0.5;entryY=1;entryDx=0;entryDy=0;exitX=1;exitY=0.5;exitDx=0;exitDy=0;" edge="1" parent="1" source="Rhj5aZNn374z85N-x_Tq-14" target="Rhj5aZNn374z85N-x_Tq-11">
          <mxGeometry width="50" height="50" relative="1" as="geometry">
            <mxPoint x="300" y="-480" as="sourcePoint" />
            <mxPoint x="-230" y="-380" as="targetPoint" />
            <Array as="points">
              <mxPoint x="180" y="-806" />
            </Array>
          </mxGeometry>
        </mxCell>
        <mxCell id="Rhj5aZNn374z85N-x_Tq-17" value="" style="endArrow=classic;html=1;rounded=0;entryX=0.5;entryY=1;entryDx=0;entryDy=0;exitX=0.5;exitY=0;exitDx=0;exitDy=0;" edge="1" parent="1" target="Rhj5aZNn374z85N-x_Tq-14" source="Rhj5aZNn374z85N-x_Tq-13">
          <mxGeometry width="50" height="50" relative="1" as="geometry">
            <mxPoint x="400" y="-620" as="sourcePoint" />
            <mxPoint x="-230" y="-220" as="targetPoint" />
            <Array as="points">
              <mxPoint x="450" y="-860" />
              <mxPoint x="400" y="-860" />
              <mxPoint x="340" y="-860" />
            </Array>
          </mxGeometry>
        </mxCell>
        <mxCell id="Rhj5aZNn374z85N-x_Tq-18" value="" style="endArrow=classic;html=1;rounded=0;exitX=1;exitY=0.5;exitDx=0;exitDy=0;entryX=0;entryY=0.5;entryDx=0;entryDy=0;" edge="1" parent="1" source="Rhj5aZNn374z85N-x_Tq-11" target="Rhj5aZNn374z85N-x_Tq-12">
          <mxGeometry width="50" height="50" relative="1" as="geometry">
            <mxPoint x="-280" y="-330" as="sourcePoint" />
            <mxPoint x="-230" y="-380" as="targetPoint" />
          </mxGeometry>
        </mxCell>
        <mxCell id="Rhj5aZNn374z85N-x_Tq-19" value="解码命令，找到引脚与RGB值" style="rounded=0;whiteSpace=wrap;html=1;fillColor=#19979C;strokeColor=#156569;" vertex="1" parent="1">
          <mxGeometry x="340" y="-965" width="89.06" height="30" as="geometry" />
        </mxCell>
        <mxCell id="Rhj5aZNn374z85N-x_Tq-20" value="" style="endArrow=classic;html=1;rounded=0;exitX=0.5;exitY=0;exitDx=0;exitDy=0;entryX=0;entryY=0.5;entryDx=0;entryDy=0;" edge="1" parent="1" source="Rhj5aZNn374z85N-x_Tq-12" target="Rhj5aZNn374z85N-x_Tq-19">
          <mxGeometry width="50" height="50" relative="1" as="geometry">
            <mxPoint x="-280" y="-190" as="sourcePoint" />
            <mxPoint x="-230" y="-240" as="targetPoint" />
            <Array as="points">
              <mxPoint x="324" y="-950" />
            </Array>
          </mxGeometry>
        </mxCell>
        <mxCell id="Rhj5aZNn374z85N-x_Tq-22" value="" style="endArrow=classic;html=1;rounded=0;entryX=0.5;entryY=1;entryDx=0;entryDy=0;exitX=0;exitY=0.5;exitDx=0;exitDy=0;" edge="1" parent="1" source="Rhj5aZNn374z85N-x_Tq-14" target="Rhj5aZNn374z85N-x_Tq-24">
          <mxGeometry width="50" height="50" relative="1" as="geometry">
            <mxPoint x="550" y="-800" as="sourcePoint" />
            <mxPoint x="490" y="-800" as="targetPoint" />
            <Array as="points" />
          </mxGeometry>
        </mxCell>
        <mxCell id="Rhj5aZNn374z85N-x_Tq-23" value="" style="endArrow=classic;html=1;rounded=0;exitX=0.5;exitY=0;exitDx=0;exitDy=0;entryX=0;entryY=0.5;entryDx=0;entryDy=0;" edge="1" parent="1" source="Rhj5aZNn374z85N-x_Tq-8" target="Rhj5aZNn374z85N-x_Tq-24">
          <mxGeometry width="50" height="50" relative="1" as="geometry">
            <mxPoint x="390" y="-710" as="sourcePoint" />
            <mxPoint x="490" y="-870" as="targetPoint" />
            <Array as="points">
              <mxPoint x="520" y="-1015" />
              <mxPoint x="520" y="-980" />
            </Array>
          </mxGeometry>
        </mxCell>
        <mxCell id="Rhj5aZNn374z85N-x_Tq-24" value="" style="shape=mxgraph.bpmn.shape;html=1;verticalLabelPosition=bottom;labelBackgroundColor=#ffffff;verticalAlign=top;perimeter=ellipsePerimeter;outline=end;symbol=terminate;rounded=0;shadow=0;comic=0;strokeWidth=1;fontFamily=Verdana;fontSize=12;align=center;direction=south;" vertex="1" parent="1">
          <mxGeometry x="505" y="-821.34" width="30" height="30" as="geometry" />
        </mxCell>
        <mxCell id="Rhj5aZNn374z85N-x_Tq-26" value="&lt;div&gt;将识别结果转换为&lt;/div&gt;&lt;div&gt;&amp;nbsp;光疗控制矩阵&lt;/div&gt;&lt;div&gt;（区域 + RGB）&lt;/div&gt;" style="rounded=1;whiteSpace=wrap;html=1;fillColor=#dae8fc;strokeColor=#6c8ebf;" vertex="1" parent="1">
          <mxGeometry x="205" y="-1037.5" width="100" height="45" as="geometry" />
        </mxCell>
        <mxCell id="Rhj5aZNn374z85N-x_Tq-27" value="" style="endArrow=classic;html=1;rounded=0;exitX=0.5;exitY=1;exitDx=0;exitDy=0;entryX=0.5;entryY=0;entryDx=0;entryDy=0;" edge="1" parent="1" source="Rhj5aZNn374z85N-x_Tq-15" target="Rhj5aZNn374z85N-x_Tq-11">
          <mxGeometry width="50" height="50" relative="1" as="geometry">
            <mxPoint x="290" y="-540" as="sourcePoint" />
            <mxPoint x="340" y="-590" as="targetPoint" />
          </mxGeometry>
        </mxCell>
        <mxCell id="Rhj5aZNn374z85N-x_Tq-28" value="&lt;font style=&quot;font-size: 13px;&quot;&gt;[小于，结束光疗&lt;font&gt;]&lt;/font&gt;&lt;/font&gt;" style="text;strokeColor=none;align=center;fillColor=none;html=1;verticalAlign=middle;whiteSpace=wrap;rounded=0;" vertex="1" parent="1">
          <mxGeometry x="460" y="-1040" width="120" height="30" as="geometry" />
        </mxCell>
        <mxCell id="Rhj5aZNn374z85N-x_Tq-29" value="&lt;div&gt;[大于,&lt;/div&gt;&lt;div&gt;继续处理]&lt;/div&gt;" style="text;strokeColor=none;align=center;fillColor=none;html=1;verticalAlign=middle;whiteSpace=wrap;rounded=0;" vertex="1" parent="1">
          <mxGeometry x="290" y="-1050" width="90" height="30" as="geometry" />
        </mxCell>
        <mxCell id="Rhj5aZNn374z85N-x_Tq-30" value="[仍需要继续光疗]" style="text;strokeColor=none;align=center;fillColor=none;html=1;verticalAlign=middle;whiteSpace=wrap;rounded=0;" vertex="1" parent="1">
          <mxGeometry x="170" y="-812.69" width="120" height="40" as="geometry" />
        </mxCell>
        <mxCell id="Rhj5aZNn374z85N-x_Tq-31" value="[不需要继续光疗]" style="text;strokeColor=none;align=center;fillColor=none;html=1;verticalAlign=middle;whiteSpace=wrap;rounded=0;" vertex="1" parent="1">
          <mxGeometry x="400.94" y="-807.69" width="94.53" height="30" as="geometry" />
        </mxCell>
        <mxCell id="Rhj5aZNn374z85N-x_Tq-32" value="&lt;font style=&quot;font-size: 22px;&quot;&gt;开始光疗&lt;/font&gt;" style="text;strokeColor=none;align=center;fillColor=none;html=1;verticalAlign=middle;whiteSpace=wrap;rounded=0;" vertex="1" parent="1">
          <mxGeometry x="170" y="-1150" width="95.47" height="25" as="geometry" />
        </mxCell>
        <mxCell id="Rhj5aZNn374z85N-x_Tq-33" value="" style="endArrow=classic;html=1;rounded=0;entryX=0;entryY=0.5;entryDx=0;entryDy=0;exitX=0.5;exitY=1;exitDx=0;exitDy=0;" edge="1" parent="1" source="Rhj5aZNn374z85N-x_Tq-7" target="Rhj5aZNn374z85N-x_Tq-8">
          <mxGeometry width="50" height="50" relative="1" as="geometry">
            <mxPoint x="290" y="-970" as="sourcePoint" />
            <mxPoint x="340" y="-1020" as="targetPoint" />
          </mxGeometry>
        </mxCell>
        <mxCell id="Rhj5aZNn374z85N-x_Tq-34" value="" style="endArrow=classic;html=1;rounded=0;exitX=0.5;exitY=1;exitDx=0;exitDy=0;entryX=1;entryY=0.5;entryDx=0;entryDy=0;" edge="1" parent="1" source="Rhj5aZNn374z85N-x_Tq-8" target="Rhj5aZNn374z85N-x_Tq-26">
          <mxGeometry width="50" height="50" relative="1" as="geometry">
            <mxPoint x="360" y="-960" as="sourcePoint" />
            <mxPoint x="340" y="-1030" as="targetPoint" />
          </mxGeometry>
        </mxCell>
        <mxCell id="Rhj5aZNn374z85N-x_Tq-35" value="&lt;font style=&quot;font-size: 22px;&quot;&gt;结束光疗&lt;/font&gt;" style="text;strokeColor=none;align=center;fillColor=none;html=1;verticalAlign=middle;whiteSpace=wrap;rounded=0;" vertex="1" parent="1">
          <mxGeometry x="440" y="-780" width="160" height="30" as="geometry" />
        </mxCell>
        <mxCell id="Rhj5aZNn374z85N-x_Tq-40" value="" style="endArrow=classic;html=1;rounded=0;exitX=1;exitY=0.5;exitDx=0;exitDy=0;entryX=0.5;entryY=1;entryDx=0;entryDy=0;" edge="1" parent="1" source="Rhj5aZNn374z85N-x_Tq-19" target="Rhj5aZNn374z85N-x_Tq-13">
          <mxGeometry width="50" height="50" relative="1" as="geometry">
            <mxPoint x="420" y="-880" as="sourcePoint" />
            <mxPoint x="470" y="-930" as="targetPoint" />
            <Array as="points">
              <mxPoint x="450" y="-950" />
            </Array>
          </mxGeometry>
        </mxCell>
        <mxCell id="Rhj5aZNn374z85N-x_Tq-41" value="" style="shape=image;verticalLabelPosition=bottom;labelBackgroundColor=default;verticalAlign=top;aspect=fixed;imageAspect=0;image=data:image/png,iVBORw0KGgoAAAANSUhEUgAAAs4AAAHlCAYAAADlb3pEAAAAAXNSR0IArs4c6QAAAARnQU1BAACxjwv8YQUAAAAJcEhZcwAAEnQAABJ0Ad5mH3gAAP+lSURBVHhe7N15eFvneef9LwlwA0mA+75TFPdFG0ntsiTLlmVbjrfUbZqktjtNmjSZNpPpXM1kXreTZmbSaaeJ20kaZ2nSOLYc27JkyVosURK1cd9Jcd/3FQSInQDeP4pzhuAiURIlS/bzua5zJcbBgUAQIH7nOfdzPx5Op9OJIAiCIAiCIAg35bn4BkEQBEEQBEEQlhLBWRAEQRAEQRBWQQRnQRAEQRAEQVgFEZwFQRAEQRAEYRVEcBYEQRAEQRCEVRDBWRAEQRAEQRBWQQRnQRAEQRAEQVgFEZwFQRAEQRAEYRVEcBYEQRAEQRCEVRDBWRAEQRAEQRBWQQRnQRAEQRAEQVgFEZwFQRAEQRAEYRVEcBYEQRAEQRCEVRDBWRAEQRAEQRBWQQRnQRAEQRAEQVgFEZwFQRAEQRAEYRVEcBYEQRAEQRCEVRDBWRAEQRAEQRBWQQRnQRAEQRAEQVgFEZwFQRAEQRAEYRVEcBYEQRAEQRCEVfBwOp3OxTcKwoPA4XDgdDrx9PTEw8Nj8W5hBU6nk/n5eQAUCgWenuL8+G7dq/ei0+lEp9NhMBgA8PT0RKVS4evri1KpFL87QRCEB4wIzsIDa35+nvn5eZRKJUqlcvFuYQXz8/OYTCYA/Pz8xGu3Bmw2G3a7HS8vLxQKxeLdd8xut9PV1cXAwAAA3t7exMTEEBYWhkqlwsvLa/EhgiAIwidIBGdhVZxOJw6HAw8Pj/s2Cma327FardTX19Pa2rp4NwBBQUGkp6cTExMjgoaLxWJhenqakZERent70el0AKjVasLCwuTXKDo6moSEhPv2+3xYOZ1O5ubmmJ2dpa+vj+npaUJDQwkODkalUqFSqfDz88Pb2/u2RokdDgdms5nz589TVlaGxWIBIDQ0VN6CgoLw9/cnJCSEqKgo/P3913zUWxAEQVg9EZyFVbHb7dhsNhQKxX0NpyaTiR/84Ae88cYbi3cBkJaWxh/+4R+yc+dOYmJi8Pf3X3yXzxyDwcDQ0BBXr17l3/7t32hvbwcgKSmJgoICAgICANi+fTuPPfYY3t7eix5BWMjhcDAxMUFfXx9Hjx6ltraWvLw80tPTiY6OJjIykoiICDQaDSqVatUj/DabDb1ez7/8y7/wzjvvMDMzw9zcHEqlkoCAABITE4mPjycmJobs7Gy2b99OTEwMXl5eIjgLgiB8QhSvvfbaa4tvFD47pJFkm82G0WhEq9UyPj7OwMAAnZ2d1NXVUVpaytDQEAqFAqVSia+v73374p6fn+fUqVOcPXsWvV4vb/Pz84SHh5ORkUFhYSHJycn4+/uvOrR8mtlsNubm5ujs7OTSpUt0dnai1+sxmUwYDAaUSiWRkZGkpKSQlJS0bOmB3W5nYmKC4eFhtFoter0ei8WC1WrFZDI9EJtOp0Or1TI1NcXk5CR2ux2FQrHmV0UcDgdjY2N0d3dz+fJlampq0Ol0jI2N0dvbS0dHBzdu3GByclIOz6sZFZ6cnKS3t5eSkhLKysqYmZlBr9djMBgwm804nU4CAgJYt24daWlpxMbGihFnQRCET5gIzp9xTqcTu92OyWRiZmaG0dFRenp6aGlpoaqqirNnz3LkyBEmJiaIjY1FrVYTFBS0psHkZubn5ykpKeH69etutwcHB7Nt2zb27NnDli1biI+PR6lUikDhCr0mk4n+/n7Ky8sZGxsDwGw2Mz4+TlRUFNu2bSMtLY3IyMhlf5dWq5XOzk5aW1uZmppCp9Nhs9mwWq0YDIYHYpuammJsbIyhoSEGBwdRKpX4+/vLJ3hrxeFw0NfXR1tbGxUVFTQ1NTEyMkJnZydNTU3U1NRw/fp1tFot6enpREZG4uXltezrulB3dzeNjY1cu3aNpqYmeUInrkmdXl5exMbG8sgjj7BhwwZCQkLw9vYW73FBEIRPkCjV+BSan5/HZrPJQcdsNmMymeRyC51Ox+zsLFqtltnZWTmImFwjktL+6elpRkdHGRgYIDMzk0cffZRHHnmERx55BB8fn8X/7D1hNpv5wQ9+wE9/+lNmZ2eZm5sDICoqiqeffpr9+/dTXFxMfHz84kNvymg0otfrqa6upqmpCQAvLy/CwsIICgpCqVQuOxK7Wk6nU359TSYTPj4+bN26lfT09DWfYLaYyWRibGyMkpISfvjDH9LQ0OC2/7nnnuMb3/gG69evJyIiYtmAp9PpOHLkCBcuXEChUODt7Y1KpXqgyjqsVisWiwWLxYKHhwcHDhxg165dBAUFyeUoa8FqtVJaWsrFixc5c+YMVVVVbvvDw8PZvHkze/bs4dChQ6SmpuLt7b3s64qrBt1sNvPBBx9w4sQJGhoa5HIaT09P/Pz8iIqKori4mK1bt7Jjxw5SUlJWNdFT+txL20IKhQKVSnXfPruCIAifRiI4fwpJAVjapqenmZ6exmKxYDQa6evro7e3l+7ubgYGBpiamsJgMLDwrSD9f6fTidPpJDo6mpSUFD7/+c/zyiuvoFKpFvyL947FYuFnP/sZb775Jr29vYyMjAAQGxvLCy+8wIEDBygoKCA6OnrxoTc1Pj7O4OAgr7/+Or/5zW8AUKlUZGdnk5ycLE/2ulMOh4Ouri56e3uZnp5Go9HwX/7Lf+GFF17A39//rh77Vm4VnF955RW+973vERkZueLo5fj4ON/97nf5+c9/vnjXA8nPz48/+7M/40tf+hIREREEBwcvvssds1gsHDt2jI8++ojy8vIlE1Xz8vL4sz/7M/bu3UtUVNQtPxuzs7PMzMzwv//3/+bHP/6x/BnDdfIWEhJCbm4uf/RHf8Tu3bsJCQnBz89v8cMsy2g0yp97o9Hots/Ly4vIyEjUarXb7YIgCMLqieB8lxbWCJvNZqxW6+K73JTdbpcvrZtcLcQWm5+fl0eE5+fnsdvtbvtnZmYYGhqSZ+UvHG1eWJMqjThrtVq0Wi0zMzPyiOitnndAQABBQUE8++yzfOlLXyI+Pp6wsLAVg9dasVqtvPXWW7z33ns0NTXR09MDaxScBwYG+NGPfsSvf/1rcAWLiIgIgoKC7npU2Ol0Mj09jVarxWQyERUVxWuvvcbnP/95vL297+qxb2V+fp65uTlKSkr4/ve/T3V1tdv+V199VQ7OKxkfH+e//tf/uuKkzAeNSqXiG9/4Bl/+8pfXPDibTCZ++ctf8s4779DZ2cnQ0BAAgYGBZGRksG3bNp599lny8vIICAhYcVTY4XBgt9upr6+npqaGo0ePcvr0abf7SH2cIyMjKSgoIDExcVUjzRKr1Sp/9qURZz8/PwoLC8nNzSU6OnpNXxtBEITPGhGc75LT6ZQn1kkjt9JiCashfclNTU0xMzOzeDe4RrzGx8eZmZnBbDYvuQTb3d1NVVWV3HbsXjp48CAvvfQSGzZsIDs7+54HZ5vNxrFjxzhx4gQVFRXcuHED1ig4Dw4O8sMf/lAOzveKh4cHycnJfO973+Oll15avPueKSkp4Tvf+Q5lZWVut68mOE9MTPDd736XX/ziF+D6GVhwBUI6YZTe59KEPKk84W7eFwsf2+FwyLdLj+/h4eH2+E6nE5VKxde+9jW++MUvrmlwdjqdGI1G/v7v/55f/vKXTE1Nodfr8fDwIDY2lsOHD7N//34KCwuJiYlZfLgbqbTk+PHjvPfee7S0tNDW1rb4bmvK09OTsLAwvvKVr/Dcc88RFxdHSEjI4rsJgiAIqySC8xqw2+1MT09TXV1Nc3MzAwMDaLXaxXdbljQKZTKZMJvNi3eD6/GNRiNms5n5+Xm3MIHr0u/o6Kg84nwvZWVlsXnzZg4ePMihQ4fw8fG5p2UH9yo4a7VaxsbG+Lu/+7t7Wo6gVCqJiooiJyeHb3zjGxw8eHDxXe6ZuwnOOp2Od955h9LSUtRqtVx+IJWB9Pf309bWJr/PY2JiWL9+PbGxsURERKx6hHQ5U1NTdHR0MDAwwOjoqPy5WL9+PZs2bZL7J0vh2WAwYLfb2bt3L9u2bVvTGue5uTnGx8f5x3/8R37961/LV25UKhXp6el86UtfYt++ffLE2Zvp6+ujo6ODjz76iJMnTzI5Ocn09PTiu60ZhUJBSkoKubm5vPDCC+zbt4/AwEB8fX0X31UQBEFYJRGc18jY2BgnTpzg448/5vr16/T39y++yydGoVDIbbpwjQYu3KTbFu9bjlqtJjg4mJdeeok/+qM/IjAw8JY1nXfjXgVno9HI9PQ0f/u3f8tPfvITt32enp4olUq5M8JKk7wWs9lscimNVE7j4+NDbm4uhYWFvPTSS+zYsWPxYffM3QRni8VCY2Mjg4ODREVFERQUBK6yoBs3blBWVsaZM2fk93lBQQGPPfYYBQUFZGZm3tUEtO7ubs6dOyd3sJidnQXgwIED/OEf/iGJiYmEhobKv5fp6Wn0ej1xcXFER0ejci1ZvRakRWRef/113nrrLXCt7hcVFcWmTZv4yle+wu7du2/aRUM6OS4vL+fChQvyJvHy8pI7wqz0uVuJNPovTQiWSJMM9+zZwyOPPMK+ffsoKChwO1YQBEG4fSI4r5HZ2Vlqa2u5dOkS7777rtyp4UEQHR1NdHQ03t7eeHt74+XlhY+PD2q1Wp505OHhIfdo9vf3X3GRE6nVV0FBAZs3byYgIOChDM7z8/Po9Xr+v//v/+P1119326dWq8nMzCQ1NZWoqKhVj15K7duGh4cZHR0FwNfXl40bN7J161aef/55iouLFx92z9xNcLbb7UxOTjI3N+c2mXF6eprGxkZKS0s5duyYXHO+ZcsWnn76abmW9m6CszQqe+XKFWpqauRR7aeeeoo/+ZM/ITU1lfDwcDlkSv2lAwIC5PfuWtWQt7S00NDQwG9+8xtOnjwJgEajkVshPv7442RnZ8slJMuZmppidHSU06dPy6/Z4OAguD5P69evJzk5+Y5OQo1GIzqdjp6eHtrb2+WrUWFhYURHR/Pss89y8OBBkpKSbvr7FgRBEFZHBOc1YjabGRkZ4dq1a/zzP//zkr7DEqVSedNWVQqFYsmXsDQStbi+02KxyIuBLOTr6yt3hfD29mb9+vWkpaXh5+eHr6+vHI7DwsIIDAwE17/r7e2Nv78/QUFBK47YSRMPAwMDCQoKQuVabvheuVfBGVfZwXe+8x3+z//5P263R0ZG8vjjj7Njxw4yMzMJDw9327+S0tJSzp07R2NjIy0tLeD6XRQWFrJjxw6eeeYZtmzZsviwe+ZugvNKJicnqaur4/z587z77rt0dnYCUFxczHPPPUdxcTH5+fkrvn9Wo62tjePHj3Pp0iUqKyvl2v/nnnuOb37zm6Slpa3YRm+tXblyhdLSUk6dOsWVK1fw9PQkKiqK3/u93+PgwYNkZ2ev+N6z2+3Mz8/T2dlJbW0tJ06c4OjRo/JEXF9fXwIDA9m9ezdFRUWEhYXdstxjIafTydjYGH19fZSXl3P16lX5b0FWVhb5+fm88MILHDx4cE1PJgThZqwWOxaL+wR2QXjQeCo88PFRoFTe/veICM5rxG63YzAYqKio4Pvf/77bpdiFpLZuK43IBQUFoVarUSqVcp2odNlVCr3S7a2trXz88ccMDw+7PUZOTo68ml5iYiJBQUFoNBq5N7HCtbiCr6+vPJIoBXOlUomPj8+KX7IOhwOHwyGH8oXP8174JIJzTEwMhw8fZu/eveTm5q46YJ4/f56TJ09SU1NDfX09fIaC88aNG3nyySfZtGkTOTk5K76/V6Ozs5PTp09z/fp16uvr5RHn+x2cnU4n7733nrzMdltbGwEBAaSkpPDHf/zHHDx4kPDw8BWvSMzOzjI+Ps7Fixc5fvw4ra2t9PT0yGU8ubm55Ofns2vXLrZs2YKvr++qXzepHKiyspKPP/6Y+vp6mpqasNvteHh48Oyzz/LMM8/IpTOLT8YF4V5pb9XSfmP5ie6C8KAICvYhPSuY8IjbH/gTwXmNNTU18aMf/YgrV64s3gVAUlISubm5y47SerpmwIeGhuLl5SWXSygUCvz9/fH393dbhOLixYv8wz/8gxwmJY8++igvvPACmzdvpqCg4KH+wvwkgvPCx96wYQNRUVFu+1ciXYqvqKigpqYG7mFwlloNWiwW5ufnlx1RLC0t5b//9/9OZWWl2+1f/OIX+e53v7tkJH1hvazT6SQwMHDJ+3Sl4Cy1ZcvMzCQlJWXFUp/VGBwcpKysjMbGRjo6OuRFb+5ncLa7Wje+8cYb/Ou//itDQ0NMT08TFxdHfn4+r776Kvv375dPRhcfa7Va6e3tpbGxkY8++oj3338fvV4Prrp3Hx8fnnjiCR577DG2bNlCdna222PcisFgYHZ2llOnTvHWW2/R0dHB4OAg/v7+aDQaXnnlFb74xS8SGhqKRqNZfLgg3DNXLw1z5aL7YI4gPGiiY/zZtTeWpNTVX+WTiOC8xmZmZmhpaZGXOV4sMDCQ4ODgJV+2uEZ9pVGnhSNE0kiwtEmB4ezZs/zN3/wNjY2Nbo8jgvPqPKzB2eFwMDo6yujoKP39/UxPTxMeHr7kMn9tbS1vvPGGXDYiOXToEK+++uqSlm3z8/NYrVa0Wi02m40tW7aQmZnpdp+VgrNGo5F7YAcGBt5VqDUYDExMTDAzMyMv9c19Ds46nQ6tVss///M/8/Of/xyj0YiHhwc7duxg165dPP744xQUFCw7kqvT6RgdHeXKlSscP36clpYWent75Z8jLi6OhIQEnnvuOZ566inCw8PlyZer1d3dTW1tLefOneP06dNMTExgNBrZvHkz27dvZ9++fezevfued70RhMVEcBYeBiI4f0adPHmS//pf/yt1dXVutz/owdlkMqHVatHr9RgMBjw9PfHx8ZE7WSxks9k4e/Ys58+fp6GhQQ5qkZGRHDp0iF27dpGVlUVERMSS46TR2Pn5efmERRq15yEOzna7nfb2dtra2qisrKS7u3vZhS26u7s5f/48AwMDbrdv2rSJffv2LSkxkEaxJycncTqd/P7v/z779+93u89Kwfl+uJ/BeXBwkN7eXt544w25z7dareaZZ57h8ccfp7CwkNTUVLdj5ufnsVgs9PX1UVdXx7lz5zh+/DhTU1Nu98vMzCQnJ4eDBw+yd+9et32r1dDQQElJifxek1r2HTx4kMOHD7N+/XpSUlIWHwaLFm2SFlXCdVIfGRmJSqXCy8vrgfu7ITwcRHAWHgYiOH9GPazBube3l2vXrtHY2EhbWxs+Pj5ERUURHByMRqNxe75210prUmu08fFxcI1w5ufnk5GRQVxc3JLL0VqtluHhYbRaLTqdjoKCAnbt2kVaWpoceB7m4NzY2EhtbS0fffQRlZWVbvXqEoPBwOjo6JKll0NCQoiMjFxSmy7Vr1ssFtRqNf/5P//nJQu2fFaCc319PVVVVbz//vt89NFH4ArOzz//PE888QQbN24kOTnZ7Ri9Xi9PED569ChNTU1uK3pKMjMzyc7OJikpifj4eLd9q9Xa2sq1a9cYGhpiZmZGrpvetm0bu3btIjAwcMmJkcThcGA2m5mZmaG3t1du91dQUMDhw4dJS0sjKChoyftDEFZDBGfhYSCC82fUwxqcGxsbOXbsGJcuXaKiogKlUimPmAYFBbkFIofDwfDwMCMjI+h0OgwGA7gCaXR0NOHh4Wg0miW1uNPT0wwPD8vLiu/bt48XX3yRTZs2ya/Jwxqc5+fnqauro7KyknfeeYeLFy8uvstdi4iI4Hvf+x5//Md/7Hb7SsFZrVbL5SIBAQF3FWqlVTilkx5pRPR+BGep5/KZM2c4fvw4lZWV8udLo9HwwgsvcOjQIQoKCkhKSgJXd5vZ2Vn6+/tpbm6mtLSUkydPrliulZiYSFJS0m1NBlxscHCQ1tbWJSdFaWlpS8prFrPb7VgsFqampujp6ZEnX+7fv58///M/Z+PGjYSFhYngLNwREZyFh4EIzp9Rn5bgbDab8fHxkSdELny+TqcTs9mMxWLBZrPJI2uenp7yKOtyE+OsVqu8PPn8/Dz79+8Xwfk23G5wzs7OZu/eveTk5JCWlrZk9Pt29PX1cfnyZWpra7lx44a8lPz9CM4WiwWTycTPfvYz/umf/gmtViuPyK4UnCcmJqivr6esrIzS0lLa2toYGxtbMtIs8fPzQ6VSya0n74TJZGJubk7+PEgCAgJWHGmWSKUaVqsVo9Eo114//vjj/OVf/iX5+fmo1eolnylBWA0RnIWHwd0E5zv7qy0Ia8jhcDA/P4+Hh4fc5m7hJk2IXBioPTw85LZ6i+/v7eqTbbVasdlsfNrODT1ck0iDgoJISUmhwLUYTXFxMdu3b2fnzp3s3LmTvLw8uU/3QlFRURQVFcn3k7bCwkLy8/PJz88nOzub0NDQxYeuSK1Wk5SURF5eHlu3bmX79u13vG3cuJGkpCSCg4Pv+6inVquls7OT7u5u+vr65NC8HIfDgclkYmZmhr6+Ptra2mhpaaG/vx+LxYJSqZT7qS8+eXU6nXh6ei553660SSd6MzMzjI+PMzs7i91ux8fHh+DgYCIjI4mPjyckJGTJsYs3T09P5ubmmJ2dlUMzru49fn5++Pj4LHm+giAIwr8TwVn4xElf/snJyWzevJnCwkJ527JlC6mpqQQHB+O7YFENLy8vIiIiSEtLo6CgwO0YaeLWnV4Gf9B5eHig0WhITExk165dfP7zn+eLX/wir776Kl/72tf45je/yTe/+U0+97nPLTtanp2dzX/4D/9Bvp+0vfzyy7zwwgu88MILPP300ytOLvs0Gxoa4vr16/T29i7etcT8/Lzcq3l6epq5uTm3xYi8vb0JDg4mICDALYgGBQWRnJws91tfzZaTk0NMTAyBgYFuI8GBgYEkJCSQnZ295JiVtpycnGW7eEjB2dfX945HwgVBED7tFK+99tpri28U7t7Cmetms1kuN5A2p9OJQqG4q5Gdjo4OSkpK5OWdJampqWRnZxMTE0NUVNQt/42bPc/F21o8b4triWSVSkVERARZWVnk5eWxYcMG8vPzWbduHampqaSmppKcnIzNZkOn02EymeSazoCAADIzM8nLyyM/P5+srCz5mNTUVPlnX79+vRwqcnNziYmJkbtP2O12qqqq5KWKpdE3tVpNdnY2qampREdH3/LSt6Szs5O2tjaGhoYYGRkB10qRsbGxJCQkkJGRQWxs7OLD7ojT6cTLywuNRkNMTAzJyckkJyeTlJREQkICsbGxmM1mqqqq5OciKSoq4vnnnyctLY3Y2Fh5CwsLIzIyksTERBITE4mLi1vysxuNRkZHR+np6aGlpYXp6WlwlXbEx8ejVqvx9vaWRzTvZJNqhXt6ehgZGZFLHrKysiguLiY0NBR/f/+7eg8uJpUtVFZWcvr0aTo6OpiYmHC7j6+vL9nZ2axfv56oqCjUajU210qaUm20yWQiICCAhIQEkpKSSExMxMPDg+npabmsQrpKkJOTQ0FBgdv7dqUtMDAQnU4nd6KRHis1NZWtW7eSl5dHXl7ekuOW2zQaDf39/fJEW0lmZib79++/o4VxBEEy0Kenv/ffe5YLwoMqMNCbxGQ1QSG3P8AmapzvESmIGY3GJZdEcY06hYaG3tXIzlrUODudTjk0z87Oym2tVrIWz9tqtTI3N4fJZJL/PYVCIbejW/h8rVYrH3zwASdOnKC1tZW+vj5wlRs8/fTT7Nmzh5ycnCVf9tLP5HA4AFCpVAQEBLhNyLJarfzrv/4rR44coaOjQ27b9qDXOLNgOWe7awU5T09PeZNev4sXL/Ld736XiooKt2P/6I/+iL/+679e8ppJj4drVFuqO19opRrn9PR0tm3bRkZGxpotgNLU1ERnZ+d9WQBFp9MxOTnJm2++yY9//GO0Wi0mk8ntPotrnBMTE7G7Fjsxm820tbVx/vx5ZmZmCA0NxdfXF4VCQVlZGSdOnJB/jscff5ynnnqKnJwcMjIy3P6NlTQ0NPDmm29SXl5OX1+ffAL55JNP8sorr5CSkrLq16SlpYXvf//7fPzxx263P/PMM3zve9+77cVYBGEhUeMsPAzupsZZBOd7xGq1YjAY6OrqorKyUh6Zk/j7+6NWq28aam+loaGB999/n/7+frfbs7Oz2bJlizz6eDNOp1P+8jcYDEsCviQyMlIe0UxKSrovE4fm5+cxGAy88cYbvPnmmwwNDcmjgGuxAIrVauWdd97h2LFj1NXVySHwYQjOq3E/l9yOiIggOTmZqKgoQkND7+r9odVq5dHmyclJecT5XgRn6cpQe3s71dXVnDhxgqNHj2K1WhffdUlwliYHSsbHx2lqasJoNKJWq7G4OlecO3eOd955R1458PDhwzz//PNs2LDhliFVqv+/fv06r7/+OmVlZUxOTuJwOPDx8eHzn/88//E//kd5tH81f08aGhr4zne+w4kTJ9xuF8FZWAsiOAsPAxGcH0BGo5GJiQkuXrzIT3/6Uzo6Otz2e3p63lW4ADCbzej1+iVh18fHBz8/P7dlu2/G6Vpq2eFwrDiRrri4mKeeeopNmzaRm5u7qse9W0ajkZmZGX7wgx/w05/+FNuCrhprEZxtNhtHjx7lxIkTVFZW0traCiI439RKwVm6WrDcEtS3S7paI/2+pffkvQjOdtfS2ufPn+fIkSNyJ4/F3SpYRXCWFkCRJv4NDg7S1NTERx99dMfBeX5+HqPRSElJCf/zf/5Pqqursdvt+Pv7ExQUxB/8wR/wF3/xF4SFha369RDBWbiXRHAWHgZ3E5xX95dWuG1SEDWZTExPTzMxMeG2jY2NMTw8fFfb9PT0ktCMq4ZYq9UyMTGx5JjltpGREUZHRxkfH1/yPKVtdnYWi8WybKC4V/R6PcOuXsxms/me/NseHh5u5Q3CnfHy8kKtVhMWFkZMTIxb7fTtbhEREQQEBMhLz99LU1NT1NfXU1tbS3NzM6Ojo/Jorkajua0JpkqlEn9/fwICAlCpVHI3jLthsVgYHR1lZGREnnzodDoJDAwk1VXLfz9eJ0EQBOHfib+2wgNLq9UyMDAgj9QJD66AgADi4uLIzMxc0hnldreVOkjcC2NjY5SVlVFVVUVnZyfT09M4nU78/PwIDQ1dsrDO/WYymRgcHGRoaMht/kFQUBDr168nJibmvrfsEwRB+CwTXTXuEZvNJtc4l5eXMzk56bY/LCxMHjGKioq6o02lUmE2m91aYOEKMREREURFRREfH7/kuJttC5faXXiZPDExkezsbOLi4oiKirrngQbXJKby8nIaGxvliXuShZ0voqKilu1XfCsOh4PW1lY6OjoYGhqSf0cPQ1eN1ejp6aGkpITBwUG32zdu3MjevXuX/FxSZwhcI/HLWamrRlxcHJs2bWLjxo0UFhaSlZVFenr6HW2hoaFyl4uFE2vXsquGXq9nYGCAiooKPv74Y1paWpicnEShUMijufn5+ZhMJrmufnFXjeVaui2k1WoZHR2lo6OD5uZmuW5aaq04NzfH1NQUXV1dK27Nzc1UVlbS0NBAd3e3vHJmYGAgGo0GpVKJ0Wikt7d3ybErbY2NjfJy3QtlZGSwd+9eIiIi3G4XhNshumoID4O76aohgvM9cqvgLPUsllqH3cmmVCqZmJhYMvs/LCyMpKQkkpOTSUtLIy4ubsmxK21qtdqtU4AUpD6J4FxWVkZJSQm9vb1MTU257RPB+dZuNzjPz89js9nk7hzLWSk4p6Wl8cgjj7Bz50527dold4y4k02j0TA9Pc3U1BSjo6PySOtaBueJiQmam5u5dOkSp06dYmBgALvdTmBgICEhIRQUFLB9+3ZGR0fp6uqCNQzOCoUCo9HI+Pg4/f39tLW1rbg1NjZSVVVFW1sbWq1WPkn28fFBqVSi1+sZGhqio6NjybErbS0tLbS1tTG7aHEXEZyFtSCCs/AwuJvgLCYH3iO3Cs4RERHExMTcVQCtrKzk3/7t3+ju7na7vaCggB07dpCWlkZKSsptBQyz2czMzAx6vR6TySR/UScmJpKVlUVsbCxRUVErBqu1YLPZsFqt/OQnP+FnP/uZvMDEQrErTA6UQr+na1W2m/3sNpuNDz74gJMnT1JRUcGNGzfgMzQ5MCQkBJvNxsTEBOPj4yiVSry9vYmMjCQsLMztGMlKkwO3bt3K888/z7Zt2ygoKHBbrOZ2tba2cuzYMS5evEhFRYX8u1+LyYFS95iqqio++OADKioqaGlpkdu7bdy4ke3btxMdHU1ERARHjx7l5MmTsIrJgYv19vZSW1vLyZMn3SYHajQagoKCUKlUqFSqxYe5WenzKE0OlOqpb+e1MBqNDA8PLwnOTzzxBN/97nfJzc3Fz8/vth5TECRicqDwMLibyYEiOD/E1qKP84PIYDAwNzfH//pf/4v/83/+z+LdsCjc5ufnExUVhcPhwGw2Mzc3J09WUyqVK/78n9Xg/PLLL/M3f/M3BAYGotfraW1tpbm5maCgIEJCQsjMzCQlJQWHw+HWacXDw0OeTFdSUsJ7770nj8ZKi6oUFxdTUFBwW5PqFmtra+P48eNcunSJyspKZmZmAPjc5z7Hn/3Zn7Fu3Tq34CxNxFUoFPLiPCv9zg0GA+Pj45w6dYrXX3+djo4O7Ha7PEn02Wef5eWXX8ZqtTI7O8u7777L8ePH4Q6Cc09PD7W1tZw4cYJ3332Xubm5VYXRm3W3kZ7n3Vru3zhw4ADf+ta32LBhwyey3Lnw6SCCs/AwuJvgLEo1HmJrtXLgg2Z8fJzu7m6uXr1KfX394t2woJwiISEBlUrFzMwMdXV1lJaW8tFHHzE4OIhGo8Hb23vFkefPaqlGREQEQUFBlJeXc+zYMS5fvkxtba082hweHk5AQADV1dVcuHCB6upquc91a2sr9fX13Lhxg56eHnlRD6mLhBRMb6d0YPEmdbno6elhcnJSrnGWulyMj4/T19cn3//jjz/m5MmTcjmPUqlccSTXw8MDpVKJ2WzGYDDIy2YHBweTkZHBrl272LVrFw6HA61WK5c1cAelGkNDQzQ0NNDS0kJXVxdqtZrk5GTi4uJWLNGS6rsXl19JQkJCSEtLIykpacmxq92Cg4OxWCxLFjtKTk6msLCQyMhIVCrVXV0NEz67RKmG8DC4m1INEZwfYp/W4NzT00NjYyO1tbW0t7cv3g0Lwm1cXByenp4MDQ1x+fJlOUTp9XqSk5NRq9UrdmdwOBxyMBoeHr4nwdnLy0tefjkjI4OYmJjFh90TDoeDnp4ezp8/v2QSmJ+fH3a7ncuXL3P06FEaGhro6ekhKiqKtLQ0OTidOXOG48ePU1tbS1NTE319fXR3d9PR0UFfXx+Tk5Ny3a6npydWq5WpqSmGhobo7Oykvb39jjbpZGZsbMxteWmlUil3mejt7ZXvf+rUKT766CO8vb0JDw+XR86Xo1Ao8PX1lUduTSYTw8PDxMTEsGXLFrZt20ZhYSEGg4HR0dG7Ds5NTU0MDAyg1WpJSEggLy9PXh49Pj5e3uLi4oiMjCQgIIDp6eklpUlKpRI/Pz8SExPZtGkTaWlpbsevZouLiyM6Ohq1Wo3JZMJut8vlIiqVirS0NDZv3kxkZCT+/v7LfmYE4VZEcBYeBiI4f0Z9WoOzVArQ2toqB9DFpHAbERGBTqejo6OD69ev0+aa9KRUKnE4HPj7+5OYmIi3t/fih8But1NdXU11dTWjo6NotVq3x16L4Ozj40NmZia5ublyicG9Jq242NbWxqVLlxgedr9sarfb0Wq1DA8Po9Pp5Ev2KSkpJCYmEh0dTWBgIGfOnOHChQtMTEy4TdYbGxtjZmYGo9Eoh1qn0ykv2z4+Ps7w8DBDQ0N3tEknMQaDAavVKj8/h8OBwWBgYmKCkZER+f5jY2NYrVaysrLIyMggKipqxeAs8fT0lEt57HY7eXl57N69m8zMTMLCwpicnLzr4KxUKgkNDWX9+vUUFhaye/duioqKyM3NlZ9rRkYG69atIyEhAYfDwfT0NIODg0smw8bFxfHoo49y4MABdu/eTX5+/pJJlbfaUlJS0Gg0hIWFUVRUxL59+9y23bt3k5OTQ0hIyIpXaQThVkRwFh4GdxOc775YThDWiN1ux2KxMDQ0RH19PWNjY+AKOUqlctnazvn5efR6PWNjY/T09DA8PIzFYmFsbIxr167R0NCAVqt1C2ASp9OJXq9nfHxcnhy21jw8PAgMDJRbkK0Vp2u1R2m1OqPRiE6nY2pqiuHhYbq6uhgYGFj2kv/U1BRNTU2Mjo7KteDSoiMKhQJPT0/sdjuTk5P09vYyNjbG5OSkvGDO9PQ0FosFb29vAgIC5OOMRiOTk5MMDg4yMDBwx9vo6Cg6nU5ehU9iMpnkUL7w/jqdzu3nWw2NRkNGRgaFhYXs3LmTHTt2UFxcTGJi4rLvszsRHh7Oli1bePrpp3nllVf4vd/7PQ4cOCB3H9m6dSubN28mKyuL+Ph4fH19sVgsOBwO+TEUCgUqlYqkpCT279/PU089JR+/mm3Hjh1s375d/nfCw8OJiopiz549fOELX+CVV17hT/7kT/iTP/kTnnzySRITE/H391+z10AQBOHTRvx1FB4Ys7OzdHd3093dTU9PD1qtFg8PD/z9/QkODl52wllAQABZWVkUFBQQGxsrl2UYDAYGBgbkmtnBwUG3QIIrfE5NTdHf33/PFlmRamq9vb3XNIzY7XbMZrMcbhsaGrh06RJHjhzhJz/5Cf/4j//IkSNHlow2L6RWq0lMTGTPnj28/PLLPPPMM+zYsYPYBXXYSqWS8PBw0tLSyM/PX7JYyb3YcnNzl10ARapDLigoYMuWLfL972S5dUlkZCRbt24lJydHrom/XyOtU1NTtLkmQv74xz+Wu3yMj4/L91Gr1eTn51NcXExmZiZRUVHLXj1Zid1ux2AwcOPGDc6fP8/777/PkSNHOHPmDLW1tfJVFkEQBGF1RKnGQ+zTVqoxODhIU1MT165do7y8HKfTia+vLyEhIYSEhGA2m+URVKmcIj09nbS0NHx9fRkcHESr1TI3N4fJZMJkMuHr64uvry9qtZrY2Fi56wKurhqnT5/m/PnzbovIaDQasrOzSUtLIyoq6q5LNXJzc8lw1Tff6vL+ajidTiwWC3q9ns7OTpqbm2lra6OhoYGysjLKysqoqKigs7NzyQQwXCcb4eHhrFu3juzsbLZv387+/fvJzc0lJSUFlUqFxWKhubmZmZkZ1q9fLy9Osm7dOhITE+/pptFosNls8kj6wpaIGzduJC0tjbS0NPn+0ij5xo0bycjIIDIyEo1Gs/jHXpaPjw+hoaHyFQEpqI+Pj991qYZEGjWXfiatVsvk5KT8Ozt37hznzp2js7OT0dFRLBaLfKxarWbdunVkZmaSkZFBWFjYqk7CHA4H8/PzzMzMMDg4SGVlJVeuXKG0tJTW1lYcDgdKpZLg4GC5nvlWjykIqyFKNYSHwd2Uaojg/BD7tAXnhoYGzpw5Q2NjI8PDw4SGhhIXF0dcXBzh4eHo9foldcjr1q0jOjpa7mVrtVoZGBiQuz1YrVaGh4cJCgoiKysLLy8vuc3W/Pw8JSUlS9q1aTQa8vPzWb9+vTxRajVWCs5S2IqOjl512LoZp9PJzMwM/f39nDx5kqNHj1JXV0drayt9fX1MTU1hNBqXjLBLcnJyOHz4MAcOHGDfvn3k5eURFxeHWq3Gy8sLXOUxoaGhbNy4kZ07d7Jlyxby8/PdanPv1RYSEiKXnkhlIQD5+fk8+eSTbN68mQ0bNshhMi8vj+3bt1NcXExKSopco7saHq7WdZ6LFn1Zy+Ashdjp6WmGhoaoqKjg9OnTlJSUcPHiRdra2piamlpSpoFrxFiv12M2m1EqlXh5eREUFLTs1ZeFpBOriooKzp07R2lpKdXV1XJZkk6nQ6/X4+npiZeXFxqN5hNfXlz4dBDBWXgYiOB8n0mtrKSRI61Wy+zsLHq9HoPBgMlkkkdH7+V248YNLl265HZpFyAhIYHk5GSCgoIIDAxcctzCzWAwoNPp0Gq1t7UNDw/T19cnT+YaHh5mbGxMrkuV6pJXw2azYTQaKSsr4+TJk/T396PT6UhKSiIzM5Pw8HBUKpVca8syE/g0Gg3+/v4YjUba29vR6XTyZLKxsTEiIiJIS0vDz89PXmVwpeAcHBzM5s2b3f7t1ZBGfIeGhuTJXfcqOEt13R999BGnT59meHiYiYkJdDodZrN5SQBbqLCwkBdffJGioiJycnLkkwMpNOMq0YiOjiY9PZ2UlBQSEhLuann429kcDodcoy29p3AF50cffZSMjAzS0tKIjo4mKiqK5ORk0tPTiYmJQa1Wrzo0s6Av8uKTyzsNzg6HA5vNhslkYm5uDp1Ox9jYmLxCYHNzM9euXaO0tJSGhgZaW1uZm5tDoVAQHBxMREQEYWFhqNVq5ufn5ZBrMplwOBx4eXkRGhqKr6/vsnX/ZrNZXk2wvb2d0tJSLl26RHNzM319fVgsFvln9fX1JTQ0lLCwMGJiYlZ9ZUUQbkYEZ+FhIILzfeR0OhkfH5frSqurq2lra6Ojo4Oenh55RrzUgeBebk1NTW4LREhCQkIIDg4G14jr2NjYkmOlbXBwkDbXMrw3btygtbWVtmV66y7ePv74Y373u99RUlIib9euXcNgMODj44Ofn9+qv4i1Wi2Dg4NcvXqVkpISpqenmZ+fp6CggG3btqFUKjEYDAyt0Gs5KipKHjHT6/X09PSg0+ncuj5oNBqUSiVqtZqEhAQ8PDxWDM6hoaFs376d3NzcFWurl1NSUsI777zD5OSkHPbuRXDGFfjsdjtlZWU0NDQs3n1ThYWFPPXUU0RHR9/Xmt7V6uvro6SkhBs3bjAzMyOXaiQnJ8sj0iEhIUtC41q6k+AsjSzrdDqGh4fp7e2lra2Na9eucfr0aS5dusSVK1doaWlhZGSEubk57K5lviMjIyl0dd7YtGkTiYmJjI+Py+93acTaarXi5+eHr68vwcHBbic7AKOuJcIvXLjAhx9+SFVVFV1dXeh0Ovl1DAwMJDc3l02bNpGRkUFSUhLR0dFixFlYEyI4Cw8DEZzvI6fTycjICN3d3VRVVVFeXi5PZuvv75cv0w8ODtLT03NPt9bWVtrb2zEYDG7PUereoNPpmJycXHLcwq2rq4uWlhZaW1vp7Oyks7NTnqB3s0362bu6uuRteHiY8PBw4uLiCAsLk8P7SqTOEH19fVRVVXH9+nXq6urkutzt27fzyCOPyC3IbhWcfXx85M4OOp2OiYkJuc+w1AM4KiqKzMxMeXJdSUkJFRUVbs9LCs5ZWVkEBgauegTz/PnzfPDBB241qvciOHt4eKBQKLDb7dTU1NDR0YHDtcqft7c3arWa+Ph4goKCsFgs8gIiksLCQg4dOkRwcLBbaJZGSc1ms3zc/Pw8Nptt1ZvFYpEfR6/X43A48PT0xGg0Mjc3h81mw263Lzlu4TYyMkJLSwsGgwF/f39CQ0MJDw9n/fr1pKamEuRaatpms2E2m7G5nieuLhRrYbXB2eFwyHXLQ0ND8iqMTU1N8v/W1NRQVVVFW1sbPT09TE9PYzab5br79evXk5eXJ/eQXrduHYGBgfT09DA2Nib/GzqdDpvNhtPpxMfHh4iICPmqzszMDEOuBVfKy8u5evWqfPVDp9Ph7+9PREQESUlJ5OTksHXrVjZs2EBKSor8vlzt+1wQbkYEZ+FhcDfBWSy5fZscDgcNDQ3U1dVx4sQJrl69Ku+TyhO8vLzW7Av8ZgwGg9vopkSlUhEQEICvry8+Pj43HVGULi3Pz8/jWGYZ3pXMzc3JdcSSwMBAnn/+eZ566ikKCgpITk5227+Y3W5nfn6ec+fO8Zvf/Ib6+no6OjrkEPTNb36TP/mTP+HKlStcvXp1xWWxCwoK5M4KAwMD1NbWcvr0ad577z25jEV6TV555RW+9rWv4enpidls5n/+z//JT3/60wXPCtatW8c3vvENDh06dFs1zv/jf/wPvvOd77i9hoGBgbz44oscOnSIDRs23HKZ5tWS6px/8Ytf8N5778mBTK1Wk5KSws6dO7FYLJw8eZLe3l63Y1999VW+973vERkZ6Xb7wtpsT09PVCrVqkfbJRbXhD5pi46OJj4+ntHRUSYnJ9FoNLe8EjE2NkZDQwPj4+Py+xIgKiqKxMREwsPDCQ0Nld8/UteSkJAQ1OrbXz51OU1NTdTW1t50ye3ExETm5+eZmpqivb2dmpoaLl++TH9/P1arFYvFgtVqxeBaQl46MZAUFRWxZcsWcnJyyMzMJDIykqCgIGw2G11dXfzmN7+htLSU4eFh+bPm7+9PSEgIe/fu5fOf/zypqamEhobS0tJCVVUV1dXV1NTUMDMzg1arxWazoVQqycrKIicnhy1btpCVlSX/W9Lo9cKJkYJwN8SS28LDQCy5fR85nU65j2x1dTWNjY1yiNTr9czOzjIzMyOXa9zLTa/Xy6UIC9lsNgwGA7Ozs/LCFStt09PTcn229HOsZpNGchfy8fEhKyuL9PR0oqKibjnirNPp5BKNs2fPMjQ0hNlsJigoiNjYWPbt28e2bdvo7++nu7v7piPOUt2yh4cHPj4+zMzM0N7ejoeHByEhIURHRxMbG8uWLVvIy8tjfn6eubk5rly5Ql1dndvzCgkJYevWraSnp+Pv77/qkbgrV65QUlLidtu9GHHG9XNKAWtiYgKVSkVERAS5ubkUunoTBwQEUFdXt6QGfuPGjezdu3dJgO3u7qa5uZnOzk5u3LhBX18fvb298pWI1WxtbW1u5T4BAQEkJydTX1/P5cuXGRgYoL+/f8lxC7eenh5GR0fl95kUOKWrCVJ9fUdHB+3t7djtdgICAvDz81t1Pfqt3O6I8+zsrFwmMTAwQG9vL6OuRXUMBgM2mw2NRkNCQgIpKSlkZ2ezY8cOtm3bRkFBAenp6XJdc19fH83NzbS0tMihWQrcNpsNnatvtaenp9w3u7KykuvXr9PQ0EBbWxtzc3PMz8/jdDrx9vYmMTGRzMxMeaKn9PxVrqXS72XZi/DZIkachYeBGHG+jxwOB7W1tVRVVfHOO+8sCUqfZbc74tze3s61a9c4d+4cZ86cQavVMj8/T15eHps2bZI7P3z44Yd89NFHqxpxnp+fx2q1cv78eX72s5+h0+kIDg4mMzOTvLw8uRPD9PQ0IyMj/OM//iO//vWv3Z5XWloa3/rWt3jyyScJCQlZde3n/RxxBtDr9Rw9epTr168TEhJCVFQU69evJyEhgdDQUCorK/nrv/5rKisr3Y5bacT5zJkzfPzxxzQ1NdHZ2bmk08RqSCUjDocDu93On/7pn/Ktb32Lf/iHf+AnP/kJCoXiliOb0lUQaaRZIj0fT09PFAqFXOrz4osv8uyzzxIbG7vkZ7pTqxlxTkpKwul0YnNNBhwYGKCuro5Lly5x4sQJRhd1u5Fq9rOzs8nKyiIiIoLw8HD8/Pzw8vJCq9XS09PDiRMnuHz5Mr29vXK50eIT5ICAAEJCQuRJglIpjDTSv5Cvry95eXkUFxfzwgsvsHXr1mUnRArCWhAjzsLD4G5GnEVwvk0Oh4Ompibq6+s5ffo05eXlKBQKvLy88PHxWTJZ51akIODt7b3qkU3JxMQEHR0dSxbvCA0NJSoqCrVavWaXriXS5fGFdaUSPz8/HnnkEXbs2EF6errbQhoLmc1mdDod5eXl8gSmGzduyLXNjz32GIcPH6awsJC8vDyOHTvGiRMnVhWcJQ0NDZw9exar1UpISAgpKSmsX7+e4OBgNBoNg4ODdHd38+Mf/5i3337b7dj09HT+6q/+iqeeeuq2Rpzvd3A2mUxyv+bIyEiioqKIj48nJCQEhULBxYsX+c53vrNk8uNKwfnYsWN8+OGHVFRU0NjY6Lbvdvn5+eHv78+f//mf81d/9Vd85zvf4fvf//7iu62JP//zP+crX/kK4eHht7zKsVqrDc4L6XQ6hoaGuHbtGh988AGjo6N4enoSEBAgXyEpKChg3bp1pKSk4OPjg7e3NzMzM0xMTNDc3ExdXR2XL1+mpaUFi8WCv78/ycnJ+Pr6onV18Rld1OuZBa+3FMaljjmjrlUY4+PjKSgo4I//+I/Zu3fvsh05BGEtiOAsPAxEcL6PHA4HHR0dtLW1UVtbS3t7O76+vvIkpsWXv2/Fy8sLb29vgoKCVr1og6SyspJf/epXdHd3u92+YcMGdu7cSVpaGikpKWs6smQymeTRrcWTEr28vEhJSSEpKYmYmBhCQkLc9ksmJyfp7Ozk7NmzvP322/T19bm1UPvDP/xDvvKVr5CQkEBkZOQdBWfp0rlCoZAv40ujcwqFgvb2dlpaWvjVr37FBx984HZsVlYWf/M3f8MzzzxzWyNz9zs4OxwOtFotRqNR/vm8vb1RKpV4eHhQUlLyiQXnyMhI4uPjefnll/nqV796T4Pzd7/7Xf7iL/4CPz+/267JXsmdBGe73Y7VaqW9vZ0rV64wOzuLt7c38fHxpKWlyTXY0twDT9fS5jdu3JDnTFy5ckUuwQoMDCQnJ4fnn3+e8PBwWltbqaqq4vLly0y52h1KoqKiiIuLo7CwkKKiIkZHRxkaGuLKlSvU1tbi7e3NunXr+Pa3v80zzzyDSqW67ZN8QVgNEZyFh4EIzveR09WObnx8nMHBQSYnJ/Hy8sLXtTrdai/rS5RKJUqlEn9//1VPQpOcP3+eH/zgBzQ3N7vdvnPnTp566iny8vLIzs5edfBbDavVitlslreFPD095RMAtVq9pN7U4WrX1dLSIrfnun79OrOzs+CawBcYGMgf/dEf8bWvfQ2NRoOvr+8dBef5+XksFgsKhWLZCZK1tbVUV1fz7rvvcubMGXA9fx/XSn//7b/9Nw4dOuR2zK3c7+CM6+d0Op3Lrvx2u8G5rKyMyspKuSf37eju7qampka++pGWlkZOTg4vvPACL730Em+99Rbvvvsuvb29DA4OotfrmZ+fJywsjKioKBISElY80ZIMDAzQ3t6OVqtFr9cTEhJCWFgY3/jGN3j11VdXVQayWncSnCWTk5N0d3djdi1aEh4eTmxsLD4+PigUCvmzMzw8zNDQEPX19dTX11NZWUlHRwc+Pj6Eh4ezYcMGiouL2b9/P0FBQfT09HD+/Hl++9vfMjAw4PZvFhUVsWfPHgoKCsjLy5PryD/44APOnz8PQFxcHF/96ld5+umniYuLW7N6e0FYSARn4WEggvN9Nj8/L7fUstvteLhWH1MsWM55taT730k96UcffcR/+2//jfr6erfb9+/fz3PPPcemTZsoKCi47ed0M1Jd6UodOKQAt9xrIU3wOnfuHH//939PY2MjJpNJrt+UAtQXv/hF/viP/xilUondbr+j4Cw9T+l3s9iVK1e4fPkyp06d4vLly+A6iQkODmbDhg1861vf4sCBA4sPu6lPIjhL/9ZyP+PtBmdpgRmVSiW3NFytDz74gP/1v/4XfX194JqAuH37dh5//HGeeOIJBgcH6e3t5cSJE5w/f57+/n6MRqMcDh9//HEyMzMXP6yb8+fP8+abb9La2kp/f79c+iDV1S/3GtypuwnO0siz9P5TKBRupRFTU1NMTk5y+fJlrl27RmNjIx0dHfIiJ8HBwWRnZ/PSSy+xa9cuoqOjUSqV6HQ6Tp48yd/93d/R3t7u9m9+4Qtf4Otf/zqxsbGEh4fT3d3NjRs3+NWvfiU///DwcJ5//nkee+wxNm7cSHx8vNtjCMJaEMFZeBjcTXC+vaQmgCtg+fj4EBAQII+uBgYGolKp8PPzu61NagUlXWK/nW25cMqCPr+L778Wm1Ra4uvru+Rn8fPzcysVWEyq5ZYWfAgODnYbIYyOjqa4uJjk5GS8vLxu+0RiIY8VVoST6PV6RkZG3MpNlEolYWFhxMbGLhktf1CtdGJwJwIDA4mOjiY4OBiVSoXT6WR+fl6+fbktNDQUlUq15HceEBAg95LG1akkNTVVLh/SaDTMz88zPj7O2NgY3t7eSx5b2qQSJqn94tzcHE6nk4iICPLy8oiMjFyz12AtKBQK/FwdPvz8/HA6nczOztLW1salS5c4duwYv/rVrzh9+jTV1dX09fVhMBgIDw9n06ZNPPnkk3zuc59j48aNREdH4+Pjw+zsLM3NzXLAXsxoNDIxMYHZbMbHx4eQkBDi4uLkbjO4WgW2t7dTW1srr8i4eAKmIAiCcHN3nkwE4TYpFAp8fX2JjIwkLy+P1NRUt5HNuLg4du3aRWpq6j0PQjqdTl69TaJUKomMjCQuLu62y2Y+Dfz8/NBoNDgcDqampujr66Ozs1Nuf7Ycq9XK9PS028p0uEJ4bGysHHr9/PzkMJeSkoJarcZisdDV1UVTUxNarXbBo7qbm5uTWxL29vYyPT2N0+kkPDycnJwcwsPDFx/yQDGZTExOTlJfX8+HH37Ir3/9a15//XVOnjxJS0sLU1NTeHl5kZyczM6dO/n93/99vvCFL5CbmyvPmRgdHaW0tJSKioplfx+Tk5M0NTXJnTyCgoKIj493C85ms5m2tjZqamoYGRnBbDYv6dYhCIIg3JwIzsJ95eHhQVhYGEVFReTk5ODn6gYQGxtLcnIy69evJywsbPFha0ZqdTY6OsqNGzeYnp6W9ymVSoKCgoiIiLjtUoVPA6fTicVioaqqirfeeou3336bI0eO8NZbb3Hs2DEaGhqWLLhjNBoZGhpiYmJiSXBeOOIsXQUJDg4mJiYGf39/eURb6s+8+LEl4+PjlJeX09bWhslkwsvLi6CgIGJiYli3bt2addK4W3bXapTT09P09vZSVVXFyZMneeutt/jZz37G+++/z7Vr1+jq6mJubg4PDw+CgoLYvHkzzz77LIcPH+bRRx8lLS2NwMBAPF19mq9fv87HH39MRUUFPT09y75GMzMzdHR0yJMGlUolKpWK1NRUNm3aREREBHa7ndnZWQYGBmhsbKS5uXnZEC4IgiCsTARn4b4LCwujuLiYvLw8eUJgfHw8KSkp8kpo94pUmy4t6ywtqIJrRDwoKIiwsLDPZHC22+2YTCauX7/OL37xC37961/z61//ml/+8pe8/fbb1NTUyJf4JUajkeHh4VsGZ1zhOSgoiOjoaLcRfZvNxuTk5JLHloyPj1NWVkZraytWq1UevY6NjX2ggrPD4cBsNsttIq9du8Z7773HL37xC15//XXeeecdysrKGBwcBNdk2IiICHbu3Mkf/MEf8Pzzz/Poo4+SkJCAQqHA4XAwNjbGxYsXOXXqFJWVlXIHmsWk4Cy9n6WrO+vXr2fr1q1ERkZit9vR6/UMDw9TV1dHQ0ODPDFXEARBWB0RnIX7ThoNS0xMZOfOnTz++OM8+eST5OTkoFQqF999Tel0OgYGBtDpdEsmN0ojovdzxFkapVzYju+TYjKZmJ2dxd/fn4SEBAICArDZbPIS2O+//z6//OUv+d3vfkdpaSn9/f2MjIzQ2trKwMAAVquVsLAwCgoKSE1NRa1Wu/XA9vT0JDQ0lJSUFKJdqyh6e3tjtVoZGxtjeHjYrX5Xp9PR1tZGc3MzXV1dTE5O4nA45JKelJQU+b6fJKPRSFdXF+fPn+fHP/4xP/zhD/nVr37FyZMnqampYWhoSJ4s6HQ6SUhIYNeuXTz77LO88sor7Nu3T+4xjiuAT01NcfXqVXnhn56eHkwmE+Hh4WzdupXi4mLS0tIIDQ1FoVCg0+no6+tjZmZGfl6enp7yojgLTy7m5uZoamqSVxrs7+9ftm5aEARBWEoEZ+G+k0bDEhIS2LlzJ4899hhPPPEE2dnZ9yU49/X1LTvS9kkFZ4PBgNFolFvLfVLMZjNzc3NoNBrWrVsnhzKtVktraysnTpzg17/+Ne+99x6XLl2iq6uL/v5+bty4IQfniIgINmzYQGpqKgEBAW69gj08PAgNDSUpKYno6Gh55Tur1crIyAgDAwMYjUY5YM7MzNDS0kJTUxPd3d1ybXNCQgK7d+9+oIJzX18fV65c4Ve/+hU//elP+e1vf8vZs2epr6+XW/tJiySlpKSwe/dunn32Wb70pS+xZ88e+URDGvWXapqlCYQDAwPYbDaio6PZsWMHW7duJS0tjbCwMDw9PdHpdPT396PVauX3kBScpR7S0mRio9HIjRs3KCsro7a2lp6eHgwGwyd+4iYIgvAwEMFZ+MSEhISQk5NDZmYm0dHRBAYG3vNJgdIKbePj44t3oVQq5VUX/W6zH/ed0mq1NDQ00NDQwOjo6CcaYAICAoiOjqaoqIjPfe5zvPzyy7z66qts375d7jRiMBhoa2vj7Nmz/PSnP+XNN9+kvr6e8fFx5ufnCQoKIiMjg6ioqBW7oiiVSpKSksjNzSU4OJi5uTlqa2u5fv06Q0NDzM3NMTs7S0dHB6dOnaK8vByj0UhgYCAJCQmkpaXJS1Y/CPz9/UlNTaWwsJC9e/eyYcMGt4WQwsLC2LBhA4cPH+brX/86f/AHf8CBAwdIT0+XFyKx2+1MT0/T1tbG0aNH+eUvf0lpaSnd3d3Mzc0RGhpKUVER+/fvZ/fu3eTn5xMTE0NAQIDb62w2m5mZmcFsNuPp6quemJhITk4OeXl5br2yJycnOXfuHCdOnKC+vp7R0VGsVqu8XxAEQVhq+W82QbgPNBoN6enppKamEhERgb+//z0Lzk5X7+nx8XEaGhrcgrOHhwfe3t7y6o/3s8ZZp9PR2NhIbW0t3d3dTExMYDAYsNlsK/bKvldUKhXh4eHk5eXx2GOP8eKLL/IHf/AH7N69m/Xr1xMREYGHhwcDAwNcu3aNI0eO8OGHH8qTLOfn59FoNCQnJxMeHr7i71KpVMphLiQkBIPBQEtLizyyOjExwdDQEC0tLVy4cIH6+nqMRiMajYbU1FTWr18vlyk8CPz8/EhMTKSgoIDdu3ezadMmeRXRoKAgkpOTKSoq4tChQ3z5y1/m8OHD7NixQ15K2+l0Mjc3x+DgIHV1dXz44Ye88847lJeXMzQ0hNPpJCYmhq1bt/LII49QXFxMZmbmsp8Zi8XC7OwsZrMZDw8P1Go1cXFxZGVlkZ+f7/aaTU9Pc+3aNT7++GOqqqro7u5Gq9WKNnWCIAg3IYKz8ImRap2XW9lvrUndG3p7e+XV8SReXl6sX7+eoqKi+z6KOTc3R3d3N1euXOHtt9/m6NGjVFRU0N3dzezsrFwbe795enqiVqtJSkri4MGDvPzyy/z+7/8+jz32GOvWrUOtVi9bVmOz2Zibm8Nisaz4vJVKJXFxcWRmZrpNHtTr9TQ1NXH27Fl++9vfcu7cObea3bi4OPbu3Ut2djZ+fn5uPcAfBMHBwWzcuJFdu3axe/dunnnmGb761a/yyiuv8Oyzz1JUVER0dLQ8Gi3Vt7e1tXH+/Hnefvtt/u3f/o26ujr5dx8UFMSWLVt49NFHeeSRR8jOzr5pq0Rp8uvC4Ovl5cW6devYuHHjsicbQ0NDfPjhh7z11lvy6LO0sqMgCILgTgRn4ROjcC2H7eXldc+Ds8FgYGxsjN7eXm7cuOHWTcPLy4uUlBQ2btx4T1vhLcdoNNLf309NTQ1nzpzhzJkzXLlyhcbGRgYGBtxqVu8nDw8PVCoV0a5FaZ588kmefPJJHnnkEdLT0wkJCXGrX5bMzc0xNDTE0NAQY2NjzM7OLglySqWSqKgoUlNTiYyMJCAgAKVSKQfnCxcucPLkScrLy9HpdHh7e6NWq0lJSWHr1q2sW7cOb2/vFUtBPimBgYGkpaVRWFjIzp07OXjwIC+++CJPP/00u3fvJjMzU641NhgMTExM0NfXR21tLRcuXOCjjz7i7NmzdHd3ywvPJCcnU1xczO7du9m8ebM8Sr0Sqd3i4uCckJBATk4O8fHxaDQat9/d5OQkV69e5dSpU3z88cdUVlYyMDDA7OzsJ153LwiC8KB5sL55BOEeGRgY4MKFC3R2di4JAgqFgujoaNLS0uQFO+4Xm82GTqdjamqKqakpWlpaOHHiBO+//z7Hjh2jqanpgRj58/X1JTk5mfz8fHJzc0lOTl52dcWenh6OHz/Ob37zG372s59x6dIlxsbG3FZolEJ5ZGQk+fn5bN68mdDQUHQ6HfX19VRXVzM4OIher8dutxMVFcWuXbsoLCwkOTmZoKCge36idTfCw8PZvn07hYWFxMfHo1ar8fT0lEeDh4eHqa2t5YMPPuCf/umfOHLkCBcuXGBwcBBPT08CAgJITk7m0KFD/P7v/z6PP/44eXl5bouZ3A7p6kFCQgLbt29nz549REVFLb4bk5OTVFVVcfbsWd5//33Ky8uZmZlZtkWgIAjCZ5UIzsKnmlSi0dPTw+XLl+nu7nbbLy0BLi3Aolbf/rr1d8LpWvzDYrFgMBjQ6/Xo9XoGBwepqqqiurqa1tZWxsfHlwT9T4K0jHRAQAD+/v74+Pjg6ekp3y6V24yNjVFZWcn58+c5fvw41dXVTExMYDQa5cfy8PDAx8eH4OBgufY2JCQEk8lEX18fXV1dTE1NYTKZcDgcREREUFhYKC+vvbiu90Gj0WjIyMggNTVVLkWZnZ1leHiYjo4O6urquHr1KmfOnOH48eOUlpbS0tKCyWQiJCSElJQUNmzYwL59+zhw4ACbN28mMTHRbcKq9L5eTaj18PDAz8+PyMhINm/ezK5du+T+1wvbBZpMJkZGRujv76e/v19ekOZ+19oLgiA8yERwFj7VdDodvb29NDc3U1lZyeDgoBwCPDw8CAkJISkpiYSEBKKjo5cdRb0X5ufnmZubY25ubtkR5dDQUHJycoiNjX0gShIMBgPNzc1cunSJS5cu0dDQgE6nQ6VSERsbS3h4uNvlf6nt3/DwsByCF/Px8SExMZGMjIybjvRLnTri4uKWrat+UEnhVjoZOnbsGP/8z//ML37xC373u99RU1PD9PQ0ZrMZLy8vYmJi2LRpE4cPH+bzn/88hYWFxMXFLdvhRVqGfGJiYtXLZvv6+rJu3Tq2bdvG3r17KSoqcuuyoVarSUtLY9u2bRw+fJiioiI5XD/IJyqCIAj30yf/jSzcNofDgcViwWq1itnvK3A4HFitVkZHR6mtraWpqYmenp4lC0TExMS41X4uHIFbCw6Hg5mZGUZGRpiamkKv12MwGOSFWIaHh5ddCU7qIBEZGblscHY6ndjtdqxWK2az2a0Lx61C+Wo5nU6sVitTU1N0dXVRXl7O1atXaWxsZGRkBE9PT2JjY9m4caM8IpyQkIC/vz9eXl7yiPTiemSHw8Hc3BxTU1PMzMyg0+mw2Wxu//ZCUgCdnp5mdHRULh9YbWC815xOJzabDYPBwNTUFENDQ3R3d8sna1euXOHSpUucO3eOU6dOUVpaSnV1tbzwiNQ3e/PmzezevZs9e/awdetWecR64QmJVNojdR6ZmZlxex2keQPLTZxUKpVERESQnp5OcXExxcXFpKamEhYWhr+/P1FRUWzatIlt27ZRWFhISkoKKpXqoTpZEQRBuNeWfiMLDzyr1crMzAxarfaugtGnmdVqRafTcePGDU6fPk1DQ8OS10qhULBu3Tp27NhBTEyM2761YrPZaGtro7S0lIaGBnp6ehgeHqavr4/q6mrq6+vR6XSLD8PPz4+IiIgVe1tLoVmr1TI5OYnBYJAncpnNZvr7++nr61t2pHc1pGCu1+upq6vj7NmznD17lrKyMqampvDz8yMmJobNmzfz3HPP8eqrr/L1r3+dQ4cOERMTQ3JyMps3b6agoIDMzEy3SZfz8/MMDAxQVlbG22+/zW9/+9slJTQLdXd387vf/Y733nuPkpISmpubVxzF/iRIJypDQ0M0NDRw4cIF3nvvPd544w1+8IMf8JOf/IT333+fqqqqJWUrSqWSgoICXnjhBT7/+c9z+PBhMjMzUavVy06+1Ov1dHd3093dzfj4OAaDwa2MwtfXl+Dg4JtOIFSpVGRkZLBt2zZ27tzJpk2biIuLIz09nYMHD1JcXIxarZYXTBEEQRD+H8Vrr7322uIbhfvP6eozLI2qzc7OotPp5FXlDAYDc3Nz6HQ6RkZGuHHjBtXV1dTW1i5ZBS81NZXs7GxiYmKIiop6qL/87HY7tbW11NbWMjw8LI8YBwYGsn79epKTk4mOjpZrkxeONDc1NXH16lUuXrzI0NCQ28iuv78/YWFh7Nu3j7179xIZGXnXZRq1tbVUV1fLI5AsGLU1Go14eHhgMBgYGhqivb2d6upqWlpa3EadfXx80Gg0bNmyhb179xIeHr5suz7p5xwcHKS7u5vBwUF6e3vp7++nvb2duro66urquHHjxpJgvnHjRvbu3eu2SMdCVqsVg8HA4OAgN27c4OrVq/LyzKOjo3h7exMbG0t+fr482SwtLY3Y2FgUCgUWi4XU1FRyc3PZtGkTWVlZzM/Py+/drq4uqquruX79OqWlpTQ1NWE2m/H19SUqKkruo61QKOSWbVNTU+h0OvR6PVqtFq1Wy/T0NDqdDp1OJ39GpNdRGiVd/Lqt1vDwMAMDA7S0tNDR0QGuUJqdnc369euJioqS65elK0DT09N0dXXR3NxMVVUVNTU11NXV0dfXx8TEBHq9HpvNhkqlIiwsTC5T2b17Nzt27CArK4ukpCR5xUUPDw/5BMZsNqPT6ejq6qKsrIyKigqam5vlSZc+Pj4EBASwZ88e9u7dK4/4L0ehUKBSqfD19cXLywt/f3/8/f3Jy8tj3759JCQkLLlKIAirNdCnp79Xv/hmQXigBAZ6k5isJijEZ/GuWxLB+QFht9uxWCw0NjZSVlYmX8afmJhgcnKS0dFReVnipqYmzp8/T0VFBYODg0smCH2agvP8/DylpaVcunSJyclJebROpVKRlJREXFwccXFxcoixWq3o9Xpqamp47733uH79Or29vZhMJrdL2lIfYanW09/ff9nL27ejq6uLoaEheSRYYnctqz0yMuIWqm7cuMHw8DBzc3NyyU1oaCjr1q1j69atbN26FY1Gs+zz8vDwwGazUVtbS2lpKR9//DEnTpzgwoULXLp0ibKyMrnt3uKR9psFZ6fTKU9ku3TpEh999BFlZWW0tLSg1Wrx9vYmOjqagoICDh48SFFRkbyqoK+vL4GBgcTHx5Obm0tmZiaJiYkEBgYyPj4uT9A8deoUly5dorKy0m21OqkbRU5Ojvzc9Hq9XJak0+kYGhqitbVVnjzZ1dXFyMgIMzMzjI+Po3O1r1OpVHh4eNxx+Ovr66Ozs5PW1lZ6enrgJsHZw8MDLy8vjEYjAwMDtLW1UVNTw+DgIGazecnEuuTkZAoKCnjsscd4/vnnycvLk+vrpecs/c6l0Dw5OUlXVxdXr17l2LFj8gmz9L4JCQkhPj6enTt3UlRUhKen54qfew8PDzxcEzTDwsJISEggNTWVzMxM4uPj8fPzW/FYQbgVEZyFh4EIzp8CDocDu91Od3c37e3tdHd309rayuDgIH19fXR3d9PV1UVnZyfNzc3ySJZhmSWaP23BuaSkhIsXL2JwraiHKzjHxsYSFxdHUlISQUFBWK1WhoeHaWho4PLly1y8eJHe3l65rdlC0ipvmzdvZt26dcuG09slBbjp6Wm3BVak0eHZ2VnGx8cZGxtjYmJCXuFt4e8vISGBoqIiNm/eTFZW1oqX3D08PJifn5dHmqurq6mqqmJwcJChoSHGx8flPrwSqYPIli1b2L17t7yQhtlsZm5uTu5z3djYSEVFBVevXqW6upq+vj50Oh3+/v4kJiayZcsWtm3bRlFREUlJSXJNs5eXl7yojfS8p6am6OjokEfjy8rKqKmpoauri7GxMXDVcycnJ7Nx40b27NlDdna2XHcrjbgaDAa5Nnxqakp+raU2fpOTk/KiIaGhoURGRt5VqUF3dzctLS10dnbS398PtwjOCoUCm82G2WxmenqagYEBOfR7eXnJ7eCysrIoLCxk69atFBcXy4uS+Pj4MDU1RV9fHx0dHdy4cYP29nba2tq4ceMGjY2N1NXVUVlZSVVVFePj427vm3Xr1lFYWMiWLVvIyMi45c8thf2AgAA0Gg0hISHyaodr8VkQPrtEcBYeBiI4fwpIo0DT09NMTU1RU1NDaWkpbW1ttLS00NzcTEtLizzKNj4+jslkWjKayKcsONtsNs6ePcvFixexLlhFz9fXl8jISGJiYkhNTUWtVqPX62loaODdd9/lypUrK55YABw4cIDnn39eHhFdC7Ozs1gsFgYHB+ns7Fy8e1UyMzM5ePAgeXl5RERE3HJilvS+aW1tvWmdMK6AGhcXx5YtWygqKpK7NUhBv66ujtLSUk6dOsWpU6doa2tjcnJSLqNISUmhsLCQw4cPs3PnTmJjY+WReuk9ZjKZ0Ol0jI2N0d3dzeXLlzl69CiXLl3i2rVrdHZ2MjExgclkkvsLJycnc+DAAXkEOyMjg5SUFCIiIvDz88NmszE6OrrkyorNZkOv1zM2NsbAwIDcnSI1NZWkpCT5tbkTbW1t1NfX09vbK58ErRScJd7e3oSGhuLl5YXBYMBkMjE1NUVAQADx8fHs2bOHF198kT179sgdM/z9/fH29sZut9PY2MilS5c4fvw477//PiUlJZSUlMivnXTCodPplryni4qKeOaZZ8jMzCQ8PNxt3614enri7e2Nt7f3XZ1sCAIiOAsPibsJznd2HVNYc9KoVXh4OElJSeAawRwaGmJgYEDeBgcH5UlBNpttyWVgXKOxkZGRaxYIP2nSRLiFYUHqHmG1WrHb7Wi1WlpaWuQJd729vXJXiYWvUUxMDEVFReTm5rr12V0LYWFhZGVlkZOTQ25urhwsl5vkJfHz8yM2Npbc3Fx27dollypERUXdMjQvfL/ExMQQEhKCj8/SPwJ+fn5ERUWRmZnJjh07yMjIcOseIo2IDwwMUFtbS3NzM52dnYyPjzM/P09MTIy8lPSuXbvIzc0lLi6OwMBAlEqlW9ByOp04nU5GRkaorq6msrKS6upqmpub6enpYWJiAovFQnBwMBkZGezcuZPHHnuMXbt2UVBQQFxcHBEREfLo7Pbt29m/fz+PPfYYmzdvlpes9nCVqhgMBqanpxkfH8fDw4PQ0FD8/PxuWqqwGnbXYiWLr1TcjLe3N8HBwaSmpsqr/e3Zs4dHH32UJ598kr1791JYWEhGRgaxsbFoNBqUSiVKpRIvLy80Gg0ajQadTkdnZyctLS00NjbS3NxMW1sbvb29TE5OunUgCQsLIz8/n/z8fHJycu5oyXgPDw/5edzNayYIgvBZIILzA8TDw4PIyEgyMjLc+qverqCgIFJTUwkNDf3UfxFKAXp8fJxr165x/fp1+TL54lE5gIyMDJ5//nk2btxIUFDQskHzToWFhZGdnc3WrVvZv38/WVlZK4ZZiVqtJisri0cffZQvf/nLPP3006xfv56QkJBb1udKI7ZRUVHEx8fLtcaLBQYGyv17Dx8+zKZNm9yek8LVMk6r1dLd3e022dTPz4+8vDwOHjzI5z73Ofbv309MTMwtQ9bw8DDXrl2jtbV1SQcMLy8vkpOT2bFjBy+++CJf+MIXKC4uJi4uDpVKhaenJ0qlksjISLZs2cLhw4f56le/yuc+9zkyMjKWfV97enqSmJjIxo0bb3vEda2Fh4fLr/WXvvQlXn31VV599VUeeeQRYmJilq0t9/HxITMzk+3bt5OamrpkWeyVJCYm8vjjj1NcXExCQsJN+2ELgiAId8/DudyQpfCJsdvtTE1N8frrr/PWW28xMTGxpCuCxMfHh8DAQAIDA+XRKo1GI0860mg0Nw1tDzqpLvhv/uZv+Kd/+ie3fcHBwRQWFrJ7926efPJJ1Go1VVVV8mhpX18f/f39zMzMoNfr0Wg0hIWF8dRTT/Hcc8+RkJBAXFyc22PeLbvdjt1up6uri66uLnp7exkYGGBubm7ZXs24TnKSk5NJSkoiMTGRyMhIQkJCbjnavNDk5CTvvfcepaWlzMzMyKUVPj4++Pj4EB4eLndwyM3NJTQ0VA6ouCbg6XQ6SktLKS0tlUeHo6OjSU5OZuvWrWzYsIF169YRERGBQqFYMdQbjUZ0Oh3l5eVcunSJmpoaamtrYUG4TU5OJi8vj9zcXLKzs0lISMDHx2fFn1kq/2htbaW+vp6Ojg56enoYHx9nYmKCmZkZbDYb3/zmN/nyl79MRETEXV9J+PDDD3nvvfeora2loaEBXKUuL7zwAocOHaKgoEC+MrTYvGtFyLm5OWZnZwkMDJRft5VItdzDw8McOXKEU6dOcePGDUZHR93uJ50ohYWFERoaSkFBAcXFxaxfv56UlJQVfy+CcL90tmnpaPt/k6MF4UGkCfJhfWYQYeFLF5i6FRGcH0B6vZ733nuPDz/8kLq6uhVrV4ODg4mPjyc5OZmUlBTWrVvHunXr5CB2q1HBB500me7v/u7veOONN9z2ScF5z549PP3006SlpWE2m+XFRioqKjh79iw3btygv7+f1NRUCgoKePrppzl8+DDe3t4rBrW7IbWis1qtzM/PY1uwMMlypPpS6XK9Uqm87TKD2dlZrl69Snt7OwrXEtjBwcEEBwcTFBSERqNBrVbLS2MvDr4OhwOHw8Ho6CiDg4N8+OGHlJeXyxMA169fT2xs7KpqYKUAKHWCeffdd/ntb38LrlKGxx57jL1795KWlkZ8fLwcmD1uUo/sdLVqtLoWe+nv76erq4u6ujpqa2tpbW1ldHSUv/7rv+brX/+6/BrejaNHj/LWW2/R1NTEjRs34DaCs1SuIr0W0gj6rTidTrRaLVevXuXChQtyeF4oJSWF4uJiCgoKyMnJITExUV5dcDUj1IJwr1mtDmzW1Zc4CcInwVPhgbe3AoVi+e+dmxHB+QFkNpspLy+nqqpKblnm7+8vjx57eXnh5+eHRqMhNDSUsLAwIiIiiIiIIDIyEo1Gs+LCGQ+Tubk5tFqt3L5sIZVKRUJCApmZmRQVFcmjxxaLBb1eT1dXF/X19bS1tdHR0UFycjIbNmygoKCA/Pz8h/61WchsNtPX18fk5CRKpRIfHx+5N6/U4WI1fXmNRiNzc3PyJLT09HR5ZbnbrZc3m80YjUauXLnChQsX8PHxQaVSUVBQIHfNuNOygpmZGSYnJ+nv75e3yclJnnnmGfbt27f47nekvr6e6upqRkZGGB8fB9fkwA0bNpCVlUVcXNxdlVOtxGQyyZ1zysvLGRgYwMvLC19fX1QqFdHR0aSmppKYmEhsbCxBQUEEBgbe8ncrCIIgrA0RnB9A8/PzjIyMMDw8LPf5jYqKkoOGSqUiIiJCvtzu4er96unq/3qz0buHidVqxWq1MjY2xtTUlNs+D9dkyoCAAKKjo+VgJ430Wa1WTCYTPT09NDc3ExcXR3Z2NoGBgXI3iU8LaURWqumWfv8L3wereT9Ij2M2m7FYLHK5x+2OgON6LFwTXIeHhwkKCiIoKAg/Pz98fX3v6DEl0gi+VBozNzeH0WiUR9fXwsKrBQtfV2kS3a1G3u+U3W5Hp9MxMzPD0NAQBoOBgIAAgoODCQ8Pl7uYSFcN7uZ1FARBEG6fCM4PIIfDgcFgQK/Xy6uNBQYGyr1xvb295dXFPs2kYGQymVasEZZ60S7sEsGCvtjSwhhqtZqIiAi8vLxuWmsq/Pvr7nA4lpR03AlpxUs/Pz/8/PzW5DEXs1qt2Gw2vL29H/rPhHTSZzab5c++j48Pfn5+n4nPvCAIwoNOBOeHgNPpFKNKd0G8foIgCIIgrAURnAVBEARBEARhFdb2mqkgCIIgCIIgfEqJ4CwIgiAIgiAIqyCCsyAIgiAIgiCsggjOgiAIgiAIgrAKIjgLgiAIgiAIwiqI4CwIgiAIgiAIqyCCsyAIgiAIgiCsggjOgiAIgiAIgrAKIjgLgiAIgiAIwiqI4CwIgiAIgiAIqyCCsyAIgiAIgiCsggjOgiAIgiAIgrAKIjgLgiAIgiAIwiqI4CwIgiAIgiAIqyCCsyAIgiAIgiCsggjOgiAIgiAIgrAKIjgLgiAIgiAIwiqI4CwIgiAIgiAIqyCCsyAIgiAIgiCsggjOgiAIgiAIgrAKIjgLgiAIgiAIwiqI4CwIgiAIgiAIqyCCsyAIgiAIgiCsggjOgiAIgiAIgrAKIjgLgiAIgiAIwiqI4CwIgiAIgiAIqyCCsyAIgiAIgiCsggjOgiAIgiAIgrAKIjgLgiAIgiAIwiqI4CwIgiAIgiAIqyCCsyAIgiAIgiCsggjOgiAIgiAIgrAKIjgLgiAIgiAIwiqI4CwIgiAIgiAIqyCCsyAIgiAIgiCsggjOgiAIgiAIgrAKIjgLgiAIgiAIwiqI4CwIgiAIgiAIqyCCsyAIgiAIgiCsggjOgiAIgiAIgrAKIjgLgiAIgiAIwiqI4CwIgiAIgiAIqyCCsyAIgiAIgiCsgofT6XQuvlF4sNlsNgwGA2azGavVitlsxmg0AqBQKAgNDSUqKgpPT3FedCt2ux273Y7ZbMZms+Hl5YW3tzdeXl4oFIrFd78pm82GzWZDp9MxNzdHaGgowcHBi+8mCMJDZn5+HpvNhkKhwMvLCw8Pj8V3EQThM0IE54eQwWBgfHycmZkZ9Ho9MzMzTE5OAuDj40NGRgYFBQV4eXktPlRYxGq1YrFYmJmZwWg04u/vL28+Pj6L735TRqMRg8FAf38/IyMjZGZmkpqauvhugiA8ZMxmMwaDAR8fH1QqlRiUEITPsCXB2Ww2Yzab6e3tpb+/n/T0dFJSUlAoFOKPxSfM4XBgtVppb2/n5MmTdHZ2YrVaMZlMmEwmAgICCA8P55FHHuHQoUP4+voufoiHntPplMOuyWQCQKPRrPpnnZmZYXp6mu7ubnp6epicnGR6ehqz2Yyvry/FxcXk5+cTGRmJWq1efPhNDQ0N0dfXx7Vr16iqqiIrK4usrCxSU1OJj48nICBg1c9TeDCMjIwwPDzM0NAQExMT8gmVzWbDarVis9kIDQ1l8+bNxMTELD581Ww2GyMjI/T399PU1MTk5CRxcXEEBQUBoFariYmJISwsDI1Gs+Sk+OrVq3z88ceoVCpCQkLw9/dHpVKhVCrx9/cnLS2N2NhYt2OE1ZuYmKC/v5+Ojg5aW1ux2WzyPg8PDzIzM0lPTyc+Pp7IyEi3YwVB+HRRvPbaa69J/+F0OtHpdIyPj1NRUcGFCxfQaDTExsbi6emJUql0P3oBp9OJ3W7HZrMxPz+P3W7H4XDIl8Kl/3Y6nTgcjvu+Lfd85ufnmZ+fx+Fw4Onp+cBffrPb7ZhMJhobG/nFL37BRx99RH19PS0tLXR0dDA5OYnBYCA+Pp4NGzZ8ai4pOp1Ot/eXTqdjenqa8fFxDAYDAQEB+Pn5LT5sWWNjY/T29nLhwgWOHTvGuXPnOHPmDJWVlXR3dxMZGUlcXBxqtRp/f//Fh99Ub28vjY2NnD59muPHjzMxMcH09DTe3t6o1Wq5DATXl+2n4XfzadfV1UV9fT2XLl2ipKSEvr4+enp6aGxspKGhgcbGRnQ6HWlpaURFRS0+fNVsNhudnZ2Ul5fz1ltvceLECaamphgbG6OrqwutVoufnx/+/v4EBAQsCc5Hjx7l+9//Ps3NzfT29tLT08Pg4CBDQ0NotVoiIyOJjo52O2atSZ/ThX//HZ/A3/zF3ze4Pm93Y3x8nLa2Nk6dOsXPfvYzzp8/z+XLl7l8+TJXr17F6XQSEhJCcHAw4eHhiw8XBOFTRB5xlkZQrl27RklJCW1tbXR3d7N161aKi4vZuHEjGRkZy448W61W9Ho9AwMDNDY2Yjab8ff3l4O2UqnEy8uLgIAAAgIC7vqP2O1yOByYzWZ5ZNZqtYLreRsMBmJiYiguLn7g/+A5HA5sNhtNTU28/fbblJaW0traik6nA0ClUqHRaPi93/s9vva1rxEREUFgYODih3moOJ1O5ubmmJ2dZWxsjMHBQZqamujv70ehUJCUlMQTTzwhvzdv9d4aGBigr6+PI0eO8P7778v1yABhYWE8++yzPP7442zatImEhITFhy9L+rI+ceIE77//PnV1dTQ3NxMaGkp4eDjx8fEkJCSQmppKWloaubm5xMfH4+3tfdt11ML9VVdXR01NDWfOnOH69ev4+fnh7e2NzWYjJCSEnTt3sm3bNrZs2XJXI85Wq5Xu7m5qamr4+c9/zrVr14iMjCQ2NpaEhAQ2bNjAvn37SElJITAwcMkgxpEjR/iXf/kXxsfH5ZCt0WjYt28fu3btIjs7m6SkJLdj1pLD4cBoNDI1NSUHfZVKha+vL35+fvf1fW40GtHr9Xh7e+Pn50dCQsKqP8sr6enpoa6ujg8//JDf/e538t8MAE9PT772ta/x8ssvExMTQ0REhNuxgiB8usjBWafTodVqeeutt/j5z3/OxMQEOp2OjIwMcnJyePrpp3nkkUdQq9WoVCq3ETOj0cjY2BgVFRUcPXqU6elpQkND5dE1b29vfH195SBxvzkcDnQ6HTqdjtnZWfkSv8lkYmpqig0bNvAf/sN/YP369YsPfSANDg5y5coVzp07x6lTpxgeHnbb/+KLL/L1r3+dlJSUh/7yrMPhYGhoiP7+flpaWmhoaODixYu0tbURHBxMYWEhf/qnf8qOHTvw8/NbEigWGx0dZWhoiB//+Mf8/Oc/d9sXFBTEI488wr59+9i3bx8ZGRlu+1cinZT98pe/5J//+Z+Znp5Gq9W63ScgIIANGzZQXFzMoUOHKCgoQKVSLRk5XEvSCKAU7KXRt5V4enouOSl+EEhXG1aiVCpv+Xu/Uw0NDdTU1PD2229z5swZt32ZmZl8+9vf5oknniAoKOi2a+IXmp+fZ3x8nIaGBn70ox9x6tQpACIjIyksLGTv3r0888wzK4bf8+fP88EHH1BeXk5lZSUA/v7+fOMb3+BLX/oSkZGRctnHvWCz2ZiZmaGrq4uSkhJ6e3sJCgpCrVYTGBh4T9/ni83OzjIxMUFgYCChoaEUFRVRXFws75euirLMSLR0ZXXx56C3t5eGhgaOHz/OkSNH3IKzQqHgtdde41vf+hZeXl737L0oCMKDQQ7OLS0tVFVVcebMGU6dOoXRaMRqtcqXnnJycsjPz2fXrl3k5eXh7+8vB2MpOF+6dIlf/OIX9PX14evrK//xUSgUKBQK/Pz88PX1XfLH6l6TRmql2ljpj+b8/Dxms5ndu3fzX/7LfyEnJ2fxoQ+kyclJWlpaOHv2LL/97W/p6elx23/gwAFefPFFNm3aRH5+/n1/vdfS/Pw8169fp6ysjLq6OpqamhgaGmJmZgZfX1+ysrL44he/yJ49e0hKSrrlCLter0en0/GDH/yAH/3oR277/Pz8SE9PZ+vWrXzxi190+7K9meHhYfr6+nj77bf51a9+hdlsxmKxuN0nNDSUJ598kkcffZTNmzeTnJy87Bf0WrLZbBiNRrRaLVNTU/KVlpVoNBo0Gs3imz9xBoOB2dlZ+XO7WHx8/D07Qezs7KSlpYVf/vKXfPDBB277cnJy+O53v8uTTz6Jj4/PXY2qfhqC88TEBI2NjfzmN7+htrYWHx+fO+5Qczek+Q9JSUmkp6ezf/9+9u/fD67Xuaenh+HhYZRK5ZLnFRgYSHx8/JL5DePj4/T09PC73/2ON954Q77Kh+v77b//9//Ot7/97Qf25FMQhLUjB+eysjLOnDnDtWvXuH79OhaLRf6i9fT0JCgoiKSkJF566SUOHDhAXFwcwcHBeHh4yMH57Nmz/PCHP+TGjRuL/50H2hNPPMH3vvc9NmzYsHjXbbPb7VgsFnlUY/Eon4eHh1zucqd/YOfm5hgZGeHcuXO88cYbdHR0uO3ftGkTe/bsYffu3ezevfuO/x0WjVquFFxwfUmvts74dthsNs6cOcOZM2e4fPky9fX1bvsTEhI4ePAg+/btY+vWrcTExNz055XaSn3/+9/nf//v/y3XueMauQwKCqKgoIBvfetbHDhw4Ja1yE6nk/r6esrLyzl58iQnTpxw+517enoSGBjo9tlJTEwkJCTE7XHuBZPJxMzMDL29vbS0tLh92S8nIiLiE7kidCuzs7OMj48vCf4+Pj74+PiwefNmCgoK3PatlcHBQbq6uvjxj3/MkSNH3Pbl5eXxve99j6eeesrt9jvxsAdnq9Uqz4350Y9+xKVLlxbf5b7Ly8ujsLCQp556iqeffhpcz7OsrIyGhga5FhpX+PXz8yM2NpZNmzYtqVeXSsXefPNNfvSjH7ldUVIoFPzt3/4tf/mXf+l2zGeV2ebAYrv51S1B+KQpPD3w9fJAqVj5+30lcnDu6+ujvb1dngTT39/P0NDQv9/JwwNvb2+Cg4MpKipi+/bt7N+/n5ycHBQKBWazWQRnF51OR2dnJ8PDw2i12iUjj76+vnLIlEpebpc0klhWVsabb765ZMQ5ISGBdevWsWvXLh555JGbBslbkSZR6vV6tFrtspfMFQoFmzdvvicj9na7nZaWFmpqavjtb3/L2bNn3fYHBAQQHx/Prl27+PKXv0xeXp7b1Y7FpAlDr7/+ulwTOj09Da73uY+PD9nZ2fzlX/4lTzzxBD4+PiteepW+eE+dOsXbb79NQ0MDLS0tbvdRqVTs2bOHXbt2sXXrVrKzswkICLiry/qrZTQamZiYoKysjHfffVf+PK9Eqkd90EidYxwOh9vtSUlJpKamsn//fnbv3u22b62MjIzQ29vL66+/zltvveW2TwTn/+dhCs5Xrlzh+vXrNDU10dfXB66uJZmZmWzcuJHdu3cvqYkWwXn1OkbMdIyYF98sCA8UjUrJ+hhfwtXLf7/fjBycDQYDOp2OiooKSktLqa6upra2FovFIoc/b29vYmNjycnJ4cUXX2Tnzp2EhoaCq13PSsE5ICAAjUazYpi516QaSZvNhl6vXxJm1zI4j42NcfXqVRobG+nv70ev17vtV6lUqNXqNZko2dbWxtmzZxkZGXG7PTAwEI1Gw8aNGykqKrqrf8Nut2O1WtFqtUxOTi476uzl5cVLL73Ek08+uXjXXXM6nUxNTdHX18f//b//l/fff18uI1qoqKiI//gf/yM7d+4kLCzslsH017/+NW+++Sbt7e309va67Vu/fj3f/va3eeqpp27a6s5kMqHX63nrrbf4yU9+wujoqPyF6uHhIXekeemll3jiiSdISEiQPy/3g8FgYGxsjFOnTvHDH/5wyZWJh92GDRsoLCzkmWee4fHHH1+8e02MjY3R39/PD3/4Q9588023fasNztPT04yNjcmfHT8/vyUnKHa7nYmJCW7cuMEvfvELLly4AK4JqwUFBezYsYPHHnuM+Ph4t+MkV65c4fTp09TW1spXZVQqFS+//DIvvPCC3MZuOVINvFTO5uvrS1BQkPw8V/P3w2azMTk5SWNjI//2b/9GVVWVfGVtIaPRiE6nw2g0up0MqdVq+bO20ufNtmBxIaPRKL+eAQEBhIaGynMcpL/3aWlp5OTkyHMWWBCcL126xKlTp+STjKioKPbu3cu+ffvYu3fvkhMUEZxX73r7HNfb/l8NuCA8iKKCvNieEUBi+M2zwnLk4Cxdwh4bG2NkZIQzZ85w9uxZt5FnT09PVCoVUVFR7Nixg+3bt7Nz504iIyOZnp7m448/XjY45+fns2PHjluGmXvF4XBgMBiYmJigpqaG/v5+t/1rGZwHBwc5ffq0HJ6lhUkkUocRaULTar6UVjI7O8vIyIg82VGiVCrx9vYmNDSU0NDQu/o3pDINq2uFwsWlJ7gumX/729/m1VdfXbxrTVgsFqampnjrrbf48MMP6ejoWDIhMisrixdffJHdu3dTUFBwy9G1Y8eO8eGHH1JRUUFjY6PbvpSUFL761a/yxBNPyK3pljM8PExXVxfvv/8+v/nNb9DpdHKgVyqV7Nixgx07drB79242btx4R4uq3A0RnO/eWgTnM2fO8Jvf/IbZ2VkAubvKQna7Hb1ez+DgIJcuXZKvXAQEBJCQkEB6ejoFBQWEhYW5HSe5ceMGtbW19Pf3MzAwAK6Bjj179lBUVCRP6l6O2WxGp9MxOTnJ2NgYycnJ7NixQ+7hv5qJfXa7Xb7C0dLSwvT09LJt89rb2ykvL5dbaEqfl6KiInbs2EFycvKS0V7J1NSUPNeho6NDvlKUn5/PU089RWpqKkFBQVhd3ZL8/f0JDg4mJSVFXojIZrNRWVnJ9evXOXr0KFevXgUgLi6Op59+mv3791NUVLSkQ4oIzqsngrPwMFiT4CyRaj4vXLjAuXPnKCsro7q6mnlXb05ck4g2bNjAzp07OXz4MKmpqUxNTXHu3Lllg/OTTz7Jl7/85dvui7tW7Ha7POP72LFj1NbWuu1fy+Dc39/PyZMnOX/+PNeuXVsyGvxp5Ovry9/+7d/yF3/xF4t3rRmj0cj58+c5f/48JSUlS8JubGwsRUVF7Nu3j0OHDhEXF4fnTXpzX7hwQX6Pl5eXy6Nrvr6+JCUl8fzzz7Nnzx4SExOXhHCHq19sXV0dFy9epKSkhPPnz8shQK1WExISwrPPPsuhQ4dYv349cXFxbo9xP3zag3NxcTE7duzg4MGD7N27d/HuNbEWwfmNN97gO9/5DhMTEwCkp6eTmZnpdh+n0ykH2O7ubsbGxsAVfjUaDeHh4cTGxq74N3RsbEzu2SzVsisUClJSUkhISMDX13dJiJWYzWa0Wi3j4+MMDw+zceNGXnjhBbZu3UpBQcGqTvacrv7NUlmNh4cHgYGB8gRySXl5OceOHePq1atUVFRgNv/7Jf1nnnmG559/noKCArKzs92OkQwODsq91ysqKuST53379vGNb3yDjRs3EhkZKV9ZlEazAwIC5EnDNpuNuro6ysvL+d3vfkdpaSkAiYmJPP/88zz66KMUFBQsWcREBOfVE8FZeBjcTXBeUjuhUCjw8vIiKyuLp556iry8PEJCQtwunymVSkJCQoiIiCAgIOCW3QHCwsLIzc2loKDgE9ny8/PJzs6We6DeS0qlUv5DvVJtrHD7vLy8SElJYdOmTctOYJuenqa8vJyKigomJiawWCzLjo5LAgICiIiIQKVSoVAoiImJoaCggL1797J//37Wr1+/7AptLFiIprW1lePHj1NbW+tWwpKUlMTu3bspLCwkJyfnvpZnfJZoNBqSkpJWLEF4UA0PD1NZWblkq6+vp729XR6ZxjWQodPpGBwcpKGhYckx0tbe3s7k5KTb1SeHw8HIyAiNjY3U1NQsOUba6urqaG9vZ2xsDNuCFfFuhzTp2cfHh8DAwE/075+Pjw8ajYbg4GCCg4OXlMUIgiDcjSUjzhKz2YzBYODo0aOcPHmShoYGent75UuHTzzxBHv27CE/P5+goCDGbjI58E//9E/527/92yUjd3bX6k4eHh7y6OBKI4R3w2azMT4+Tm1tLT/84Q85d+6c2/61HHEeGxvj2rVrnD9/no8++kieuOfn54darZZ7WX9SXypOV5cMqQQD18nSzU58cP2ubDabPLlu4dvGx8eHr3zlK7z00ktux6wlh8PBzMwM7e3t/NM//RMnT57EbrejUCgIDAwkwLWc9Y4dO3j55ZdJT0+/6STB9vZ2WltbuXLlCo2NjSQlJZGYmEh0dDSxsbHExsbKC8gsHjWbmppiYGCAd999l5/85CdMTU2Ba+Td19eXxx57jAMHDrBlyxZyc3Pdjr2fTCYT09PTXL9+nSNHjsiX8Bfz9vZe8jM+CKQRzImJCQYGBpbMTXj66ad54YUXKCgouCcTU7lHI87S+0Rq1caCkiibzYbBYJBHYj09PfHy8sLHx+emfcqlXuI2m00Ovx4eHvLS2zf7jFssFrcyo23btt32iPNq3Y8R5+VOdiVixPneEyPOwsPgbkacVwzOUvuxrq4umpub+dd//VfOnTtHamoqBQUFfO5zn2Pr1q2EhITgdDrvKDibTCYsFotbza/iHvT7vJ/BeXJykurqakpKSnj//ffp7OwEVylBVlYWxcXF7N69m4CAgMWH3jc2V6u8eVe7PD8/v5t+2eD6XUlfrtJxEoVCQX5+Punp6W7HrCWn04nNZmNoaIh/+Zd/4dSpUxgMBvz8/MjMzCQlJYWYmBgyMjLYsGEDISEhNy3VmJqaYnp6Wp5oKJVq+Pj4yMHGx9Wbd3HgaG5u5uLFi5w/f56PP/5YXgwhMjKSmJgYPv/5z/Pcc88RFha25D1/P83Pz2MymRgeHqajo2PJRFWJNDL3oDEajUxPT3Px4kWOHDkiB0/Jwxqco6KiiImJISgoSB4tdzgcWCwWZmdnVyzViIuLu2mpxuDgILOzs/KItUKhIDU1lfj4eDmoL2d8fJyWlhZmZmZABGcRnO+SCM7Cw+CeBGfJ3Nwc4+PjvPnmm1y8eJH169eTk5PDrl27SE9PR6lU3rId3XLB2el00t/fz/DwMEajEafTSUJCAlFRUTf9Iy+x2WxYLBYmJycZHR0lMDCQkJAQefRx8X3vV3Cempqivr6ekpISfve739He3g6uy/ebNm3i4MGDPPfcc6sKVDbXogLSH2npUqg06iRdFvX29l4S7lbidDrlL+iWlhaGh4fx9fVFpVIRGBiIn2t5XI1GQ1RUlHyZ02w2Mzc3J4fuhW8bDw8PgoKC7nkZDMDMzAynTp2iuroai8WCv78/qamp8nsnPDx8VV01pG4xq3mvSWw2GyaTiStXrnDkyBFqamro6OiQR0K3bNnC9u3bOXDgAHv37r1nJ4KrJXVLMJlMzM3NuZWTLKRWq1f1frzf9Ho9Y2NjHD16lB/+8IdL2uk9LMH57NmzvPnmm3KgDQ8PJyIiAo1GI39mFk4OvHjxojw5MNC1IEd6ejobNmy45eTAvr6+JZMDi4uLbzo5cGpqio6ODvn5ZWRksH37dtLT00lOTr5pEL1dIjh/+ongLDwM7iY4K1577bXXFt+4kBTWfH19SUxMZOvWreTn5xMbG4tKpcLT01O+vNjV1UV5efmSThJbtmxh3759bnXSDoeDhoYGrly5wuXLlykrK8PHx4fg4GD537sZo9HI1NQU5eXlfPDBB0xPT6NUKvF1tVJaSOqqMTo6Snl5Od3d3W7709LS2Lt3L9HR0W633wmTycTY2Bg9PT20tLTIl/EDXcu/pqamkpOTs6q6O6PRSHV1NeXl5XR1dTEwMMDMzAxTU1OMjo7KwVEKziuNri5mtVoZGRnhzTff5F//9V+5dOkSFRUV9Pb20tvbK4fBmJgY+STE09MTb29v/Pz88Pf3l9vpBQQEyN0iVhve74ZCoSAoKIj09HSKi4spLi4mOzubxMREwsPDCXQt73ur10K6BK5QKG55X4k02a6srEwuw1lYS713716+8IUvkJaWRnBw8G39Tu4FqQTKy8tr2d+btN2spOWTJHVHaG1tpby8fMmIeXp6OtnZ2URFRREREeG2b61IqxaWl5cvmZAaGRnJ3r17b3mlJSQkhA0bNrBnzx727t3Lzp072bJlC/n5+WRmZpKRkUFaWhoxMTH4+fm5tUhUq9WkpaVRWFjIY489RmFhIRkZGUs2p9PJ9PS0HPBwnVjv37+fp556ivz8fPLz85ccl5GRQU5ODsXFxfLzKy4uJi0tjbCwMLy9vdf0PTw0NERbWxsDAwMMDQ3JJ3MZGRlkZWXd9Hep0+loa2uju7uboaEh+f2QkpJCUVER0dHRBAQE3PRk1eFwMDo6ytDQEC0tLXIf56CgILKyskhNTSUqKmrJ4IvFYsFgMNDY2Eh5ebkc+HH9Ldm3bx87duxwO+azanDKyuDUzVcpFYRPWoCvgoQwb4L8ly9/u5lbBmdPT08UCgXe3t6EhYURFxdHeHi4XDeH6yz+doKzTqdjfHyc0tJSSkpKuHHjBn19ffIXpdPpROGapLh49ECn0zEwMEBDQwPXrl3j6tWrVFZWMj09zfT0NPPz83h5eeHpap3HAxKcpdZz0sjzSqM/C5nNZlpbW2lra6Ojo4P29nYGBwcZGRlhenoaLy8vYmJiCAwMvK2QJtULf/TRR1y8eJGJiQmmp6flEeWAgADi4uJITk6Wv0CkyT8KhUIuq1m43UnwsrkWcuns7OTKlSvU1tbS2NjI4OAgMzMzDA8PL9mkn13q4yrVZ87MzMjttEZGRpYct3gbGRmRt8X7Vto6Ojrk0aq6ujpmZ2dxOp14eXmhUqnkAGQwGJicnFxy/MKtr6+PlpYWmpqaqK+vZ2xsDG9vb3mUerW/y1uRwvNKv7eFvzuHq1vIvZprcLukk+Pm5maqqqruSXA2uzpKzMzMMD09jclkwu5a/dNiscjvq4qKCpqbm92ODQsLY9u2bcTHx8v3t1gs6PV6pqam5H7FPj4+REdHExkZSUREBGFhYQQHB8sjzoGBgfj7++Ph4YFer6e6ulou8Qp0rTqZmZnJ5s2biY+Pl49ZuI2NjdHd3c3o6CjDrpFYb29vdu3axfbt2+WrMYuPCwwMJCgoiLCwMCIiIoiIiCA4OBiVSrWqE9DbJYLzp58IzsLD4J4GZ1x/GHx9fdFoNAS4Vj1bGNRuNzgPDg7S2trKmTNnOHfuHBMTE8zOztLX10dPTw8eHh6oVCqCg4MJXHT5f2hoiIqKCs6cOcO7775LbW2t2x9Cq9WKQqFArVbLy6Y+CMHZZrOh1WpJSUlh586dS36u5VitVgYGBujp6aGmpobq6mra29sZGhrCarUSGhpKRkaGvPT5akhBymg0cvHiRXkUTbpUrFKp2LRpEzk5OcTGxt5y5P9uSMHo7NmzvP7665w8eZKSkhJ6e3vRarW0tbUtu3V2dtLV1UVnZ+eSffdyq6mp4erVqzQ3NzMxMSF/6fv7+xMSEkJAQABms5menh7a29uXHL/4sc6fP8+ZM2c4ffo0w8PDxMbGEuRaeOJmX/73ilT3Lr1HPmk6nY6hoSGam5upra3FYDC47V+L4KzVaunr62NwcJDBwUG5K4XRaGRubo7JyUnGx8eprq6mra3N7VhpJDkiIgKDwSBv4+Pj9Pb2Mj4+ztzcnPz36Ga/U+lv1NjYGOXl5XJwDggIIDY2luTkZDIyMpZcTZP09PTQ2trK0NCQW3AuKiqioKBAvrLwSRPB+dNPBGfhYXBXwfmv/uqvXpubm8PhcMijosuRRqyk0bCF95MuVUsTzdLT09m0aZO87dy5k5ycHCyumuTr169z9uxZampq6OvrY97VI1r60kpISCA+Pp7IyEgCAwPd/j2Da4XD3t5empqamJmZwWKxyF1AHA4H0s+DKyj6+fnhdDrx8PBAqVSSkJDg9vy2bdvGxo0b16St1UrB2eGabJmbm8vevXtXHZzHXP1ZpT/yJpMJX19fkpOTSU9PJyMjY8UFOlbi4eGBTqejpKSEhoYGWNCHNTIykq1bt5KRkUFoaOiq63/vhNlslkfYzp49y5CrD610e39//7LbwMAAAwMDS26/11tvby/9/f1MTU1hXrAYjMI1gdBqtTIzM7Oq59bb20tXVxeDg4OMjY0REhLCxo0biY6Oxt/f/6Zf/vfKyMgInZ2d9Pb20tfXJ3+eP6kgrdPpGB4eprW1lcbGxnsSnKV2bVLLto6ODjo6OmhqaqKpqUleRr2pqUkugZBIo/ULH6OxsZH6+noaGhrkxYn8/f2Jjo5GuUJHDERwFsH5U0QEZ+FhcFfB+T/9p//0mjRC7Ofnd0dfkNKIdHR0NJs2beKRRx6Rlzndt28fOTk5qFQqJiYm6Onp4fjx47z11luMjo7Ki6pIAgIC5BWrpOC8cHRbGo2WJrQYXK2bpBCj0+no6+uTbw8KCpJrB6V+0nv27HF7fps2bSI0NPSOfvbFVgrOkoKCAvbt27eq4Dw/Py9Pfmxra5MXU4mMjGTTpk3k5eWRlJS04kz7m5mdnXULzpK4uDh27dpFWloaGo3mpl/2d0v6Mmpubqa8vByj0Qiu0b6RkRGGhoYeqG18fBydTofFYpFPzHCN1kuX/IeHh5cct9w2OjrK7OwsZrMZh8NBUlISRUVF8iIXN/vyv1eampq4fv06NTU1NDY2yhNEpZPm+212dpbh4WHa29tpbm6W3x+StQjOPT09XL9+nWvXrlFSUkJVVRUVFRWUl5dTXl5OdXU1jY2Ny/6tMpvNdHd3U1lZKd+/vLycqqoqGhoamJqawsPDg/DwcNatW3fTk1ARnEVw/rQQwVl4GNxVcD506NBrJ0+epLu7G61Wi8PhQK1WLxlVvhlpREqpVMqTkBZuUi/WsrIyTp48SWVlJT09Pdj/f/bOO7qt80zzDwGCAAkQhSQAgr333kVSheqyJctNLimbcWaOcybFzpQ9Z/c4ycnOZs7OnNnsjJPMpJdJnLgotmVZzbJIUYWiJHZS7L0DBNF7IbF/LO63BEBKpEgV2t/vnO/Ixr0XAIGL7z73/d73eZeWSERYKpWiqqoK+/fvx44dO5CdnU1yqf2FM4fDgcfjAY/HQ1BQEPR6PZaWlkjk2uVyYWlpiUSel5aWwPWa4q/2/rayOMrtdsPiTQvp6ekJsNBihDOHw4HR2+Z2fn4eBoMBFouFWPQx9m8zMzOYnJxEf38/lEol4LUPS09PR1xcHCQSCTweD2w224bGwsICLl++TKr3GeRyOQoKCiCTyUgU1f9Ym80GjUaD+fl5LC4uYnFxEXa7nXyf6xVZawlnJjr/uI0lr+/4SkcRBo/HQ87B9Qz/53qUwlmj0WBqagpXrlxBfX09RkZGMD09DavVCr1eD7e3boDtrTt4WBiNRiiVSgwPD6Ovry9AOJeUlKC6uhrR0dH3bafHCKjR0VGMj4/DbDbDbrf7DIfDESCa4f3Ond5W9P7D4XAgPDwccrkcqampyMrKgsvlgk6nw/DwMNrb20lkf3x8HGNjYxgaGkJfXx86Ojow63UQYQo7mXzjxcVFjI+PBwzmZmd2dpbcrLPZbCgUCnC5XKhUKszNzfkcMzExgZmZGZjNZoR6rRg3ytLSEvR6PRYXF2E0Gn0+P/85w2azYXx8HP39/ZiamsL8/Dz5XFNSUpCcnAyhUAg+nx9wnM1mg1qtRm9vL0ZHRzE/P09sIOPj45Gfnw+xWIygoCAyf+r1eqjValitVrhcLnKdosL5wUKFM2U7sCnhXFhY+P3/+I//wMDAAAwGAwQCAZKTk8HyFhRtBUyk+ezZs/jd736H2dlZErFjsVgQiURITk7Giy++iC984QsoLCxEfHw8ERArBTzb6/IhFouRlpYGh8OB0dFRMlnDe0FjLromkwkWiwXR0dGIjY0Fi8XaMpG8GsveAiuVSoXW1lYidhkY4ezxeEhjh5GRERiNRhIlZ3LGDQYDpqenMTk5iaGhISLCxWIxkpOTIZVKwefzsbS0BMuKHMv1jIWFBVy/fp3Y5TFERUUhMzMTYrEYHq91nf+xFosFMzMzGBkZgVKphEqlgtvtBmuF88Z6WEs4fx55lMJ5YmICXV1duHDhAs6dO0fSR5iUmNDQUIjFYggEgnUVtW4VzG94ZGRkVeG8Y8cO7N+/HxEREfe16gJvF7/BwUFMea0x3WtY9t0PERERiI2NRXp6OrKyssjvprm5GefPn8fQ0BBGR0cxMDCAgYEB9Pf3k8cYa7igoCAsedPY9Ho9JiYmyP4rR09PD4aHh6HRaMjnxNzEMqltIyMjPscwaTlOpxOxsbEbTvmCN1AwMzNDHH+YFZm15o2JiQkMDg5i1ruCwwjn+Ph44lPN4/ECjrN456yBgQFMTExAqVSSv1OhUCAjIwN8Ph8eb+tyizd6Pz09Dbt3VSckJARcLpcK5wcMFc6U7cBmhHPQV7/6Vc+HH34IDoeDuLg40ho7Ly8POTk5EAqFAZPIejGbzdDpdLh16xYuX76MlpYWtLW1EdEcGhoKkUiE6upqVFVVoaamhli13SuyxURCOzo6cOPGDTQ3N6O5uRlWqxU2b640m82GXC5HUlIS6urqsGPHDlL05i/ItwqbN5rb2NiIN998Ex0dHT7b/+Iv/gL/+I//iOXlZYyOjpKlYY63O1jIii5uLpeLuDMMDw9jYWEB8Is4S6XS+4oUmUwmNDc3Y2BgwOdxuVzuYze4loAzm81kqZTNZqOiogJlZWVISUlBbGys/+6rYjAYsLCwgHfffRc/+tGPAqLzZWVlKCkp8Xlsu6PVatHS0kIu2Ax79uzBa6+9hvLycshksrsu628VNpsNFosFFy5cwOnTp3Hnzh3iwR7kTYmKiIhAdnY28vPzUVZWhpycHMTGxkIkEj2w3xDDzMwMOjs7cf78eZw8eTLg/Hj11Vfx2muvQSaTrdqGfT0MDg7ixo0bGBgYwNjYGFgsFkK9HfrYbDZsNhtMJhPu3LlD0icYIiIiUF5ejsTERMB707y0tASn0wmr1YqoqCikpKSgvLwc1dXVMJlMmJ+fx4cffoj3338fHG/jJwZmTlOpVEQ4BwcHIywsDEKhEBEREWv+1g0GA3GbYQQli8WCXC5HVFQUWTFYSVRUFAoKClBWVoba2lpSTL0RLBYLbt68ic7OTszNzcFoNBJ3mNVQKpUYGxvD3NwcVCqVT8SZscBbq0W92WwmtpwqlQoWb857fHw8CgsLIZPJyAolvKk0VqsVhYWFKCkpQWpqKmJiYqiP8wOG+jhTtgOb8XEOKi8v99y5c4eITbFYjMjISDz77LN47rnnEB8fj5iYGP/j1gVTbHTy5En89re/JUtr8F6YIyMjER8fj1deeQXPPPMMiWptBJPJBJ1Oh3feeQe//e1vsbCwAK1W67NPaGgo8Sp9/vnnUV5ejpCQkIALyVawXuFsMpnQ2dmJDz/8ECdPnvTJmd1ucDgcnDhxAk8//TSKioqQnp7uv8uq3Es4f+tb38LXvvY1n8e2OyMjI3jzzTdx+fJln8cfhXDWaDRYWFjAz3/+c/zoRz9aNQWFQS6X4+DBg+QGNCkpCSEbaLxzPzwM4cwIOY1GA5PJBJFIhMjISHITy6QkvfXWWzhz5ozPsRkZGXjttdewZ88ewJu24HQ6SQoW29sOPiEhAampqTB6bTh/+tOf4sc//rHPcz0K0tPTceLECezduxdFRUVrCta7YTAY8NFHH+H8+fNoaWnB6Oio/y6PnJXNVTIyMqhwfsBQ4UzZDmxGOLP5fP73dTqdTw6f2+2G2WzG1NQUEbtsNnvdopbJRbt27RrOnTuH1tZWzM3NkdeQyWRITU3Fnj178MQTT6C8vJy0hd2omGWWIzkcDhQKBUmBgPfvYPZxu90kDcLtdkMoFK6rQG+juL05zhMTE7h169aaqRpOpxNKpRIDAwPo6+u7q2h53GGz2cjNzUVWVhaio6PXfQG+V6rG3r17ceDAAQhWadqxXYfVasWNGzcCopePIlUjKCgIISEhcHpbjvN4PNhsNni8Div+2O12shxv87q7+FtTbiX3StUoLS1FZWUlqVW4H4KCgkjjJalUCrlcjsjISGK9qdfrMTs7i56engBRKJfLceDAARQWFkLgbQQkEAggEokQERFBfJsjIiIQGhpKUgiYVSbm9fl8PiQSCRISEsiKzVYOhUJB6juWvDUgABAZGYnc3FwkJycjOjr6vtJwHA4HBr0WkXNzc6Rt9+PEysLDyMhImqrxgKGpGpTtwGZSNdjh4eHfZ3LAmAum3W4nFwsAPkuFTIGFPx6PB8vLy3C5XBgfH8eNGzfw6aef4syZM6QQkMmbTk1NRVFREZ544gk89dRTSEhIAJ/PJ8/L5AmvHP7CkrlQs705zzKZDNnZ2dBqtRgbGyPtkZkcQSZthCkYTElJQXR09JZf8NcrnF3edtqMHzEj/pk8PCZlg+21OvN4POQzYHm7wTH7rtx/vYMpsPSPdDN5yowo8j+OOXbl4PF4yMvLI8I5IiLC5znX4l7C+eDBgzhy5AjCwsI+M8NkMuHKlSsBnsCPQjhzvI1beDweoqOjYbfbsbi4iCVvAxCssJp0edvWz8/PQ6fTYXl5GTKZDEKhECEb7Fy5Xh6GcA4JCSFzm1QqRUREBElP4/P5JJd/pchiUCgUOHLkCIqLixEWFgY+n08aijCt35lmIiwWi6TGrBTOLBYLYrEY0dHRRODFxcVt6WAsDlksFskXxhYK56GhIYyPjxPf6uBVmuwwIygoKGAuh3ceZ1JXmH/9x1qpQSxvYbr/8Wxvwybmc1UoFFQ4PwSocKZsBzYjnIPeeOMNT09PDylKYaIR8E4IycnJSEtLQ2VlJUpLS5GTk4PExEQi6OAVi1arFbOzs+jv70dnZydaW1sxPDyMqakpOJ3/70ckk8mgUChQV1eHvXv3Ii0tDcnJyWSSczgcsFqtZALGiogyj8cjFycmB3rlROp2u+FyudDa2opbt27hypUraG5uhsVbcAfvRTIyMhIlJSV49dVXUVNTg/DwcIRs4bL4elM1WCwWKfobGBiAx+szzVyw4c15nJ2dxdjYGDo6OjA9PQ14I11MSkRcXNy6i/FWotPpcObMGbS2tvo8npiYiF27diE1NRXh4eEI9stVdLlccDqdcDqdRFyxWCxkZWUhMzMTCQkJAcuca3GvVI1/+Id/wHe/+12fx7Y7vb29eOONN/DRRx/5PP4oUjUY9Ho9tFot+vv70d/fTxwa5ufnA+wUeTweIiMjkZiYiLy8PFRUVKC2thax3pz41W6q75eHkapxNzweD86dO4fz58+jqakJnZ2dPtsLCgrwgx/8AMeOHfN5fC2Y1JiVqRpsNpvY6tXW1iI/P9//sE3jcDgwMjKC3t5eXLlyheSxb0WqhtlsJvUri4uLPul4qzE+Pr5qMxumgPJu7h4WiwXT09PkvGTSC5mbjsjISB+HJIfX37+oqAhlZWXIzs5GYmIiTdV4wNBUDcp2YFOpGv/6r//6fTabDbvdTqqcmWVaj8dDGjrYbDa4vQ0yYmJiwFrhTuF0OmEwGDA4OIiGhgZcvXqVOEosLS2RqCQTad6/fz8OHToEqVRKolXLy8uweW3O+vr60N/fj9nZWczPz2NhYQF6vZ4sI3O53ADhzPJGYcViMZKSkqDT6TA7OwuH15qIEecejwfh4eGkSHA9hYgbYb0RZ0awx8bGkoLMoqIi7Nq1C3v27EFlZSUKCwtJ9HZycpL4s8bHx+PgwYN44okn8OSTT5L9NzJSUlLQ3d0d4OOckZGBL3zhCzh+/Djq6upQU1Pjc1xJSQkKCwuRl5eH3NxcFBUVobCwEElJSaTT43pF370iznV1ddi9e7fPY9sdtVqNhoaGxyLizMDj8SCRSCCXy0mhG1NYxRSAMisTbrcbJpMJi4uLmJ6ehtPphFwuB5/PJ2kbWyWeGR/ntezotiLivBbMasytW7dw7do1zHqb86xELpdj7969yMzM9Hl8LVaLOAcHByMtLQ35+fmoq6vDrl27kJycvKUj1usmZPW2t2es7rYi4szY0QUFBSElJQXZ2dnIzMxcdWRkZMDpdGJwcDDguywrK8PBgweRl5eHgoKCgGMzMzMRExNDHIdMJhMJiCQnJ6Ourg6lpaUoLCwk7yEpKQlxcXFITk6GzNvqXCAQ0IjzA4ZGnCnbgc1EnFnx8fHYs2cPjh49ihMnTqCgoCDgwre8vEws5RYXF2G1Wn1yIBm7JJvN5pMrzaBQKFBTU4PDhw/j+eefR35+Pjgcjs/reLzWZyqVCteuXcPJkydx8uRJvPvuu/jTn/6Et956C2+99RYaGhqgUqlgX9H0ZCWhoaGIjIxEdXU1XnjhBWRkZIDNZkMqlSI/Px8vvPAC/st/+S8oKiqCRCLZUtG8ERhLvaioKMhkMjK2WgBsNczyvkQi8XnfUVFREIvFa0aLKI8/od4mQZWVlXj22Wdx+PBhVFZWQrZKQwqXywWDwYCOjg78+te/xjvvvIPu7m6o1epV54D7weFwQKPRwGAwBKQUPWgYgTY9PY2+VRoZUf4fHA4HKSkpqKioQGlpKQkA+I+8vDxkZmZCLpcHrGLBuxpZUFCAwsLCgGOZkZubi/j4+IB5Ozw8HMnJycjNzfU5vrKyErt27UJJSQlSUlIgXqN5DIVCoWwElkwmQ2FhIXbt2kUK9WJiYgLuuLHCbmlpaclHtDL5t0wqBCOkIiIiEBERgYyMDOzatYtEEFNSUhDsbVe7kqWlJRgMBty5cwdXrlzBlStX0NjYiPr6ely9ehVtbW0YHx+HxdtaezXhzOQsFhQU4ODBgygsLERCQgKys7NRWVmJJ598EkeOHEFaWtqqqQgPCw6HA4FAAKFQCIlEAolEsi2EJ5vNBo/Hg0AgIO9bIpGQxgUP8kaEcS0wGAxQq9VQq9VEWJlMpkc+jEYj9Ho9NBoNFhcXYbFY4Ha7fUQfm81GaGgohEKhzwjzWv8FbaDx0FYTEhICkUiE7Oxs7NmzB3v27EFtbS3S09MDrNCYlZWRkRGcO3cO586dw82bNzEyMgKDwQCn07nq73MjOJ1O6PV6mM3mVcU481k9iM/L7u0EqVQqMTk5CaPR6L8LgYlOu91uOJ1OuFyudf/tHm8TFau32QxzXm/lWFxcJJ/jakWfmyE4OBgKhQJZWVlIT09HWlraqiMhIYFEfFfO+0wanlwuR2Zm5l2fIzExkZyHK58jNDQUCoUCSUlJSE1NJftnZWWhoKAAaWlpa17TKBQKZaOwv//9738f3gmMKYqRyWRwOp1kGYvH42Hv3r04fvw4CgoKoFAofCLGLG9BmUgkQlxcHKKiohAaGoq4uDikpaWhtrYW+/btQ0pKCkQiEVirFBJ5vIWJWq0Wzc3NAa4DiYmJ2L9/P2pra5GTk0PaQfs/D7wXVJa3DTiXy0VSUhJ2796NyspKZGZmIioqKmDy3So2kqpxL1wuF5RKJYl6MakaUVFRPkus95PjbFij5XZsbCwqKyuRmJgIgUDwQG8sNpKqsby8DKvVCrVajY6ODrS0tGBwcBATExPQ6XTQarVQqVSPdDBNJphc4eXlZZJ2wXyOjFuNx+PxcT7IyclBYWEh6Zb5MFM1/AkKCgLb66ITFRWF8PBw8Hg8GAyGgHQFBpfLhbm5OTidTpKuEx4evurvc70olUr09/djbGwM09PTJKeegcmvZuoetpKFhQVMTU3hxo0bAb8RBiZVI83biMlkMkGr1cLhcIDL5QZ8h6ulagR5nU2Wl5fh9HZYHRwc3NIxMDCA7u5u4lXNfIdbkaqxXpjmLW1tbWhvbyc5zmKxGLGxsdi9ezdqa2tX/dwYtFotbt++jd7eXiwsLJAcZ9py+/GCpmpQtgObSdUgwpnrbUktFAoRHR1NKtrFYjHkcjmOHTuGQ4cOISYmhlRoM7BYLHJ8TEwMRCIRuFwuYmNjkZKSgpKSEpSUlEAikawqmhk8Hg/0ev2qHe3S0tJw5MgRlJSUICYmBjxvu+21YCIZQqEQSUlJyMvLQ1paGiQSiU8ByVbzMIRzZGQksrKyyE1KcHAw3Ku0db7b0Gq1aGhowJ07d3xe82EKZ5fLBYfDQTqPhYWFITIykoy6ujqUl5cD3gueydtA4vr167h+/TpGR0cxMzMDjUYDlUqFqampRzqGh4cxNDREOsBJJBLExMSA63U+Yf5mq9UKgUCAxMREMjIzM5GamvrAz8/1EOQtyBWJRAHC2WQykXNoJRZvVzw+n4/k5GRIJBJERUVt6u9QqVTo6+vD+Pg4ZmdnSZExQ3V1Nerq6u5aUHa/jI+Po7u7G+3t7RgeHvbfDHhvYHfs2AGpVIqZmRlMTk5icnISDocDEokEXC7XZ45aTTgzMMJ7fn4eo6OjWzpGRkYw4m2jvrCwQETfwxDOHm8r+unpabS0tKC9vR1DQ0PkPcTGxiIrKws7duxASUnJXUXv4uIirl69ip6eHuj1enI+bFQ4z87OYnJyEn19fZiamgIACIVCZGRkIDExEQqFImB+psJ5/VDhTNkObIlwZggODoZAICDLZ/n5+SgsLMSOHTuQlpZ214gAQ3BwMCQSCeLj45GYmEiWye4mdOGdgPR6Pa5evRrQ0S4xMRG1tbVISkoi0eZ7wQgApnjoQdlmreRhCGemADIqKgphYWFYuo+W2yqVatXP+WEKZ6xIXYiLi0NZWRmqqqrIqKioIM13PB4PzGYzlEol6uvr0dTUhLm5OUxPT2N8fBz9/f3o7e19pKO/vx/Dw8MYHx+HUqlEamoqMjMziUcy8/eKRCKkpKQgKyuLjLS0NFJkt9ZKyqMgKCgIod4OnxKvtdrCwsKafr3p6ekoLS1FTEwMIiMjNy2cBwYGMDk5uapw3r17Nw4fPvxAbjRaW1vxySefYHBwECqVyn8zsCK31mw24+LFi7hy5Qq6urrgdDqRkpKC8PBwn/lmNeEc5LXLdDgcxGVmbm5uS8fs7CxUKhXpLMikvTwM4exyuWAymdDe3o6TJ0+ira0NK/sGZGdnY+fOnSgoKCCFqWuhVCpx/vx5dHR0wGazkRSojQjnpaUljI2NYXh4GAMDA6RQks/nE8/r+Pj4gHxoKpzXDxXOlO3AZoRzwNWGKRDKz8/HoUOHcOjQIbIcud4cViaaxuSaSaXSe17YGJHrXzTIwPK6ZnA4nHWLiiBv22CRSEQurus99nHGZrNhenqaTOJMBHYjo7W1FWo/e6+HTbC3nXBqair27duHI0eO+Iy0tDSf/ZeXl+FwOKBWq0l0b2xsDHfu3EFnZ+cjH3fu3MHAwABGR0cxNTUFvV4fUA/A4/GQlJSE/Px8n8EUL4WEhDxW52hwcDAiIiKQmppKIrwlJSVITEz0SY8IDw9HYmIi4uPjSbrJg/47mELVrby5c7vdsNlsmJmZQVdX15qiGV5RqNFoMDIygps3b6KxsZHY1o2Pj/sIxLVg6kPc3vxou92+5cPhcMDpdMLtdq8793orWF5ehtlsxsTEBHp7e9HV1YXJyUmfGyCpVIrc3NwA+7fVcHsdXQwGg49t6kYI8ja8YW5eCwsLUVhYiKysLEilUvDuowkXhUL5fBGoUL0wF8uMjAxkZGRAIpH470J5RGi1Wty6dQsffPABfvazn+HNN9/c8Pj1r39N/FwfFczNkEAggFQq9XHp2A4OI58nQkJCEB0djeLiYuK4sdJtIz4+Hk8++SSxZ4uKinrgwvlBwPjIz8zMYHx8HAaDwX+XANxuN4xGIzQaDTQaDaamptDW1uaTkrAWzM29XC5HVlYWKioqtnwwHsbx8fEP7TfFFEsqlUo0NTWhvb19VY9nsViMtLS0+/KQvh9YLBZiYmJQXl6OF154Aa+//jpef/11/NVf/RUOHjyI7OxsCIVC/8MoFAqFEJCqwRAcHIzQ0FCEeTuerRbVYSKARqMR8/PzUKlUWFxcDBgGg4GkCJjNZvLvamNmZgaNjY0BeYUKhQI5OTkQCoXweDyw2WwBx641mIsaU2HuP7RaLYxGI9xuN0K83fruF6fTCZ1Oh9HRUdy+fTsgYrWRVA2n04mpqSlScMakfTCRl8XFRczPz2N2dnbDQ6VSkeKalSgUChQXFyMuLg7h4eHrWmG4X4K8jghsb9ewEL8OhSu/B4/XrtBisWBhYQEejyegQ9pWD2bpViwWk/fiH0Fei+DgYFRWVqK4uBgCgWDLi9ceNixvATDjCMJisaDVasFisSCRSFBcXExcbOLi4u5Zg7Ae7pWqsWvXLuzdu9fnsc2iUqkwNjaGGzduoLm5mdzYMbm6K2FynCMjIzE0NASVSgWn04mgoCAsLy9DKBQiJSUFoaGhYN2lcyDjn83Ugvj7MG92JCQkQOB1s9Dr9eRm4EGlajCR5qmpKbS3t6OxsRF37tyBWq0mkWKJREKKtnfv3g2hULjqNWYlKpUKDQ0NAdeG5ORklJeXk9zku83fzHwjEAgQHR2NxMREJCcnIzExEdHerqerFecaDAbMz8+js7MTbW1tPoWqNFXDF5qqQdkObCZVI8izHhWwBg6HAzqdDpOTk2RiXA2myIjrbVxyN2ZmZvCf//mfaGpq8nk8NzcXx48fR2ZmJiQSyT0n2ZUsLS1Bq9XCYDDA4XAEFDZxuVyEh4cjPT0dxcXFm4o4GAwGDA8P4/Lly/jd736Hvr4+n+1M50Amd/duGAwGXL58GfX19aivr38oEeKCggJ85Stfwe7du5GRkbEugf8wYIoDtVotae/7oHF7O2IyEcTh4WHMzc2tesPhD4/Hw2uvvYZXXnkFcrn8M7Niw+Tjjo+Po6mpCZOTkzCbzcjOzsb+/fuJAFst3WqjdHd349SpU7h69Spu374Nk7cZC8Mbb7yBH/zgBz6PbZb29nZcu3YNFy5cwIULFxATEwOpVIq5ubmA+S0nJwdvvPEG4uPj8bvf/Q5Xr17F/Pw8lpeXIRKJ8NRTT+G1115DcnIyQkNDodVqAzoHBgcHo7CwECUlJTh48CDKysp8XmMrsNvt6OvrQ1tbG86dO4dObwfEregc6I/H44HL5cLk5CQuXbqEpqYmtLS0kN8Nc/NRVlaGvXv3Euec9bgcdXV14Y033sDZs2d9Ht+zZw/++q//GmVlZYiLi7tnAya3201ugFde/lje5j3sFV1xGYaHh3Hr1i2cP38eH330ESwrOh+yaedAH2jnQMp2YDOdA9cUzktev2Y2mx1w981gt9uhUqnQ3d2Nc+fOYXx83H8XwJv/KJFIEBISck/hrNPp0NTUFGBHFxMTg+LiYnJhXus9rcaSt7uV2WyGw+EIiByJRCLEx8ejvLwc+/fv39QFRKfTobe3F5cvX8af/vQnUnzH5/MhFovx8ssv4+///u/XldNnMpnQ1NSEmzdvoqurC3Nzc+DxeBu6aVgPKz1oExMTcejQIZSWliItLS3AlulR4fF4SL6m3W4PiD5uFcznYLFYyLL74OAg2traMDY2BpW3+Q68oickJARisRiRkZHg8/kICwsDl8uFQCDA0aNHsW/fPohEosfmc9wqdDodJiYmSEMkhUKB3Nzce6YCOL3t2s1mM1wuFyIiItY85mEKZ7fbDZfLhQsXLuDkyZPo7u5Gb28vCgsLkZmZia6uLgz6dXtkWm7n5OTggw8+QENDA9ra2ojAPnToEL7xjW+goKAAsbGxpPhvpXDmcDioqKhAdXU1jh8/jpqaGp/X2ApsNhs6OzvR3NyM9957D7du3QK2WDh7vH7UZrMZc3Nz6O7uxoULF9De3o6pqSmYvWkazIrFwYMH8cILLyA7OxvJyckBQnUlzMpmR0cH/uEf/gGffPKJz/ba2lp89atfRUVFBVJTU0kh7kZgVgpN3o6ETHCFmQuGh4fR0dGBjo4OdHZ2+kScqXD2hQpnynbggQhnm80Gu93u4wjgDyOcm5qa8Mtf/hJdXV3+uwBegcE4Bdxr+ZbJF/SP6oWEhEAgEAQs4a8XJsqwvErjlNjYWBQWFmLv3r04evToqp3S1otWq0VXVxcuX76Md999l9jqxcfHIy8vD0ePHsXLL7+8rgikzWZDf38/RkdHyTKnVCpdU2jcD8wFz2azQa/XIzQ0FOnp6UhISEBMTMxjlWKwvLxMhv93uBUse72i9Xo9pqam0NfXh+bmZvT29mJubo4UJTHV/AKBACKRCHl5eSguLkZ8fDxiY2OJnV5ERATEYjGCve3eP0u43W7Y7XbyeYSEhNzzhtbj8cBoNBLRbTabUVBQgISEBP9dgYcsnC0WC4xGI/7whz/gxz/+MbRaLWw2Gw4ePIjq6mp88sknuHHjhs8xjHCurKxEW1sb6uvr8eGHH2JsbAwAUF5ejqeffpq0rWfSjD6LwpmZt6empnDt2jU0Nzejra0NMzMzPsEKhUKBtLQ0HDt2DC+99BKioqLumdbDFGG2trbihz/8IRobG322V1RU4MUXX0RNTQ3y8/PvK+VEr9eju7sbY2NjUKvVxFNep9Nhenoas7OzZA4wm81kDgAVzgFQ4UzZDjwQ4cwUujAXR4VCgcjISB8RwAjnK1eu4M0330R7e7v/02wLEhISUF5ejoMHD+L48ePrigavhUajQVdXFxoaGnDy5EkinJm2tIcPH8bTTz8NkUjkf2gALpeL2EjZ7XYEBQURn9+twuOt6Hd4fWRZLBbEYjFEIhFEItE9Vwi2O8wNosFggFarxcTEBKampkjHuN7eXszMzMBsNoPFYoHP5yMiIgJSqRTR0dFQKBRIT09HdnY2ZDIZpFIpRCLRY5Pi8qhYWloiqS4Wi4U0qZmdncX8/Dzm5+fBYrHw3HPPobKy0v9wAMCNGzfwm9/8Bjdv3sTo6GhAod1WCuepqSkMDQ3hvffew+9//3t4PB5wuVw899xz2L9/P/70pz/h3LlzPscwwrmuro7UZvzmN7/BnTt34HA4EB8fj/z8fDzxxBM4ceIElpaWoNFo8LOf/cwnVSM7Oxv5+fnYs2cPCgsLfV5jK3A4HBgaGkJ3dzfq6+vR29sLbJFwZm42NRoN+vv70dPTg9u3b6Ovrw/T09PkZic0NBRisRj5+fmorq5GTU0Nampq1nVj7nK5oFar0d3djd///vdobW312Z6Tk4NDhw6hrKwMubm59yWcTSYTRkdH0dfXh9bWVhIlZxorMYLZf7WSmQdef/11/OVf/qXPts8rVDhTtgObEc5rFgeq1WrMzMygp6cHHR0d4PP5iIqKAntFFzS317N4cnISt27dwvz8vP/TbAtEIhFiY2ORmpqKrKysTS2r22w2qFQqjI+Po6+vDxqNBvAWw8TGxpJWsOsRvywWC2FhYZBIJMR1QiwWIzw8HAKBYEsGn8+HUCiESCSCVCqFVCqFWCwmBaF3iwRtdzzehjtKpRIDAwO4efMmPvjgA3z00UekUcPCwgLxvhUIBIiLi0NxcTH27duHAwcOkLSW1NRUyOVyCIVC4hf+ecbpbSM9Pz+P8fFx3L59Gw0NDbhw4QLx4l1cXERxcTGys7P9DwcA9PT04L333sPAwACcq7Tw3sriwMHBQTQ2NqKjowMTExMICwtDREQEqqurUVpaiu7u7oBmQUznwOzsbPB4PBiNRvT19WFxcREOh4OkLUilUpSUlCAoKAhOpzOgAQqLxYLL5YLFYoFSqQzo/LfZMTAwgDt37mBkZAQzMzNEzG5FcaDb7YZarcbQ0BDOnj2L8+fPo6+vD/Pz83A4HOQ7i4yMRHp6Onbv3o3jx48jKysLfL9GWmux7O2qaLFYYDAYwOPxfLpupqWlISUlBQqFgjSE2igcDgdisRhLS0vkux4aGsLMzAyMRiMcDodPlJkhOzsbNTU1JE2EQosDKduDB1IceOfOHXR1dZEWpzk5OaS7WVJSEhQKBXg8HklN+PDDDwOqnblc7pqFQh6PhzSLYAr2mOYqDocjwKczNDQUERERcHu73gUHByM8PBxxcXFITEy86xIxw9LSEqxWa0B+rFQqRXp6OsrLy7Fz505ERET4bN8IarWaiISPPvoIo6OjwF0izhqNBgsLC6QwZSUsb9twRoj5b99KlpeX4XK5yPCPrPB4PISFhSE0NBShoaHbXlAzriw3btxAa2urT6OZ6elpwLsEy+PxIBaLERMTg5SUFGRmZiI9PR2pqamkcGw9TYE+qzDnDfN5arVa0slRqVRCo9FAq9Vienoa09PTmJubI4WdycnJ+Md//Ee8/PLL/k8LADh9+jTeeOONAMHK5/MRHh6Ob3/725teHrfb7bBYLLh48SLefvtt0qkwPT0dubm52L9/P8rKyvDmm2/ij3/8o8+xTMT56NGjWFpaQmdnJ/70pz/h2rVrGBwchN1uB4/Hw3PPPYdvfOMbEAqFcLlc+PnPf04izkFBQeTvYW5at5plb2Gt0WjE4uIiEc5paWl49tlnsXfvXpSUlEAqlfofuiYer7ORRqPBtWvX0NTURApozWYzmWOZeTsnJwe1tbWorKxEeXn5ulw0GJh5W6PRkJtZrPDcDgsLg1QqhUKhQExMDCkOZOZMLpd7z4JBhpGREZ989cXFRf9dAG/qII/Hw+HDh3H06FEUFxcjLy/Pf7fPJTTiTNkObCbivKZwvnHjBq5du0YqozkcDiIiIrB3717s3r0b1dXVSEpKgtlsxuzsLIm0rEQikSA6OnrVCdLtduPPf/4zzpw5A51OB6vVStrU6nQ6n6plAJDJZMjOzobFYkF/fz/4fD4SEhKwZ88eHDp0aF0RXIfDQZbdVsIsIyYmJiIjI2NTOcRKpRLXrl1DfX09PvnkE0xMTAB3Ec49PT1ob28nhWYrCfY2n2CimA9SnLndbphXWPj537gw3yUTlX6QIv5hoFarMTc3h5/97Gd45513SGqBy+UihUFcLhcSiQSZmZnYuXMnysvLUVhYiMjISHA4HFI4u91vIjYDE1lmvI+Z6GZfXx/6+/vhdDpJ8SlTZ8DclN2vcFYoFEhMTMQrr7yCV1991WfbRtFqtZibm8Of//xn/OIXv4BarYbb7cb+/ftx5MgRpKenIzo6+q7C+dixY/B4PBgfH0d9fT0aGhpQX18Pm80GiUSCQ4cO4eWXX0ZERAQ4HI6PcIZXPLPWcHPYKlbWBzCR05SUFBw/fhx79+5FRUXFhmo7lpeXoVarMTIygp/97Gc4ffo0CXh4VrhVSKVSZGVloa6uDs888wySk5MhuEd3v9Vg3vfKm3qLxYLFxUUSEeZyuRAKheS5mYZZTNrZepibm8ONGzdQX1+Ps2fPkptof0TeTppf/OIX8aUvfQlSqfS+Ul0+i1DhTNkOPBDh/MEHH+DPf/4zurq6iKWaQCBATU0Ndu/ejSeffBJ5eXlwOp0wmUxQq9UBBX1hYWE+ExmDVquFWq3GW2+9hQ8//BAWiwVsNhuFhYWIiopCZ2cnpqamfI5JTU3F3r17odPpcPnyZTidTkREROCpp57Cl770JdJ++m643W4YDIaAXMng4GDSTSoqKmpTeb2zs7O4ePEi6uvrceXKFczMzAAAEV8HDhzA4cOHieXdqVOn8M477wDe97ESNptNorwP8qKKFZXrjHMFc3EK9bZbzs/PR1VVFUlHeJDv5WGwsLCA6elp/OhHP8Lvf/97n22h3hbgSUlJyMzMRGZmJrKyspCUlITY2Nh15WV+1lheXibRWZ1OR2og1F5vdI1GA71eT3zFlUolsWZbi4SEBHznO9/BiRMnEBYWFnDjuJZwTk1NRU5ODl588UV88Ytf9Nm2XpaWluByudDb24tr164R20fmhv3FF1/EV77yFVLceS/hDK/P8J07d9DR0YG2tjYEBweTPOeSkhKymvbhhx/ivffe83mutXA6ndDr9bBYLD52bszcyufz73sFSCaToaysjBQnRkdH+++yJh6PByaTCUqlEufOnUN9fT26u7vJvB0WFobo6GhkZ2djx44dKC8vR3FxMSQSyZbdbOr1ekxOTqK/vx9dXV2wWq3gcrnkuePj45Gamor09PSALqRrsbi4iO7ubjQ2NuKjjz6CWq0mqWtcLhd8Ph8CgQAymQzR0dGorKxEZWUlwsLC1hW8+TxAhTNlO/BAhPNPfvIT/OQnP4FarYZWqwW8goIp7njppZdIUY/H41nzArmak8bg4CD6+vrw1ltv4dSpU4A3ovnss88iJSUF77//Ptra2nyOKS4uxhe/+EUolUr86U9/wvz8PIKCgvDSSy/hW9/6FpKSkiCTyQJeayUrIyGrwUR+NsPk5CROnz6N+vp63Lp1izQtycvLw8GDB1FXV4c9e/ZA4M2j/t//+3/je9/7Htxu96rvfbXHHiT+n09UVBSSkpJw9OhRfOlLX4JcLg8QONuRuwnnyMhI7Ny5Ezt37sSePXuQlpZGbABXO58/D7hcLuh0OiiVSgwPD6O/vx+9vb0YHh7GxMQELBYLlr1uJyv/vRuxsbH49re/jWeffRZSqTSgoHIt4ZyXl4fy8nI89dRTePrpp322rRcmZ/aTTz7Br371K/T19ZFoMwB8/etfx9/+7d/C7XWLWI9wNpvNUCqVmJubw+zsLKKiopCdnU0KenU6HdRqNW7evBngU78WRqMRY2NjmJubg1arJTZoMpkMiYmJkMvlpPZko6xMo9i1axcUCoX/LnfF43XkmZiYQHt7O371q1+hoaEBWCHKd+/ejSNHjiAlJQW8LW5nrVar0d/fj4sXL+Kdd94hQQqGmpoa7N+/Hzt37lx3cxK9Xo/R0VE0NTURv+aUlBRSXxIdHY2YmBgkJCQgPj7+M5O6tpVQ4UzZDmxGOAcUBzq83dkaGxvR0NAAq9VKLiZhYWEoLCxEWVkZsrKySE4cIzhXG4zQCAoKgtvr3nD79m1cunQJd+7cgVKpRGhoKKKjo7F3716kp6ejp6cnwBM6MTERNTU1CA4OxszMDGw2GxwOB6KioiCRSBAeHo6YmBif11tt+L8///e6WRjbpL6+PiiVShKFj42NRUFBAVJTUxEfH0/EJ5MOs3IZ+3Ea8fHxqKqqQmlpKTIzMxHq7YK2FTi8XSeZwUTVrFZrwLDZbHC73VheXibf42aweO3Hbt26FWCjyETY8/PzkZ6eTgqONnKOeDweUszk/7esHMz7MJvNJKLIvNbDhlkKNxqNUKvVJJrX3NyMy5cv48qVK7h+/TpaW1tx584d4mvNNBZaWmH36H8DJpVKkZSUhOzsbJSUlGDHjh3YtWsXSfkKDQ0NWHEZHBxEQ0NDQLMbuVyOuLg4shKwETzeDoCzs7O4ffs2+XsWFxfhdDohk8lIEVt1dTWWlpZgsVhw69Yt9PT0+DwXUxyYmZlJHmNWiSQSCRG1KwUjh8NBWFgYFAoFWc2425BKpXC5XLBarSQlAd5oallZGUpKSlBZWUlqUDYyMjIykJaWRoIOXO7GLiDMnBrsdVqyWq0IDw9HXl4eKisrsWfPHpSVlSEpKYmkZ6z397MeGBvNiYkJtLW1QaPR+MxdpaWlOHLkCJKTk9dl/8kQHBwMgUCAmJgY0pwmJycHaWlpSE5ORlxcHGQyGYRCITgcziP5rT7O0OJAynZgM8WBAcKZWYq9fPkyGhsbiWiGN1WDudjFx8cHRIjuhcNbaX7x4kWcPHkSc3NzcDqdJL/40KFDSE9PR3NzMwb9mg0kJydj9+7d4PF4UKlUMHtbaTOTvVwuR2Zm5iOfxNRqNZqbm9HX1+cTIUpISEBJSQmp/mbSQW7cuIHLly/D4/H4iHvcI9rsf1NyvwN3eZ2goCDk5ubi2LFjKCoqglwu31Qaiz9MjqJGo4FOp4PZbIbdbvfJtWaG1etsEeRtmctms4lAu5/BnD+3bt1Cd3e3z/sSiUSk2CfO23ocK1Ys1jOWl5dJSpL/37JyGL2+xmavcA4KCkLYPfyQtxLPCoHrcrngcDig9jrq9PX14fbt2zh//jzOnDmDhoYGNDU1obe3FxMTE1Cr1bBYLFjyKyRdeX4x52lqairy8/OJoNq3bx/q6uqQlpYGkUgUIJpxD+EcGxuLzPsQzsvefOuBgQGcO3cOzc3NGBsbIykaTC1CVVUVioqK4HA4YDAY1iWc2Ww2SW2SyWSQeJs+Mb9nDocDPp+/btGcmZmJiIgIkhqjUqnI+8zIyEBdXR1qa2uxa9cu5ObmBhx7r5GRkYHk5GTI5fINi2YGFouF0NBQhHldeGJiYlBaWoodO3Zg586dyMzMJAXia80z9wsjkCcnJ9HS0gKdTuezfd++fST/eL2/p+AVRefFxcUoLS0lojkpKQkxMTGk2dGDTp/brlDhTNkObEY4B6RqTExMYHh4GL///e/x1ltvrdwEuVyOb37zm3juueegUCg2XAHe39+Pzs5OnDlzBufOnSO5xjt37sTu3btx4MABhIWF4Xvf+x4+/PBDn2Nra2vx+uuvQyAQoKurC01NTWhsbASXy4VCocDx48fxwgsvkAK2R0V3dzf+5V/+BRcvXiSROACoqqrCyy+/jB07diAvL4/kyZ4+fRrvvPMOgryRm7CwMHA4HLLcOz4+DpVK5fMaMTExqKqqQkxMzH1P3kxO8+LiIlpbW0kRI4NYLEZ8fDz27t2Ll19+GampqSQ/catQqVQYGRlBT08P6ca11vMHBQWRzpMcDmdVobURLBYLTCYTiZ6uJDw8HJmZmURUMGk1G8HjjTj75/374/FGQGNjY1FUVISsrCykpaU90DxqxgGDcVpQq9VYWFjA3NwclEolLBYLzGYz9Ho9tFotccew2WwBRaP+MEWkCoUCCoUCEokEYrEYsbGxxC4sIiKCeF3zeLw1b8bWStXIz89HRUUFjh07huPHj/tsuxdMikZTUxP++Mc/or29HZOTk+R3eujQITz//PMoLS1FcXExVCoVpqam1pWq8SAYGRnByZMn0dDQgM7OTlKAvW/fPnz1q19FSUkJUlNT1/wMHxYOhwPz8/MwGAykWVVUVNQDPY/NZjMWFhZw5swZ/OhHPyIORgyvv/46/uf//J/rtr2jbA00VYOyHdhMqkaAcG5vb0dzczPx5GRgsViIjY3Ff//v/x0vvfQS+Hz+unNdmYroixcv4tSpU2htbUVHRwfYbDZEIhFeeeUVPP/880hOToZOp8N3vvMdvP/++z7PwQjnhIQE6HQ6fPLJJ/jDH/4AjUYDj8eDp556Ci+99BIKCgqQnZ3tE1F9WHg8HrS0tOC73/0uLl686LOtpqYGX/7yl1FZWenj48w0DeBwOOByuYiIiEBoaCi6u7vR3t6Oy5cvk4go81UVFRXha1/7GkpLSxHqLRzcKG63G3q9Hv39/fjP//xPn65oQUFBSEpKwo4dO3DgwAEcPXoUUVFRPsdvBZOTk+js7MTZs2dx8uRJ6PV6/10+NxQXF+PEiRPYuXMnioqK7kusY8U5sjLyvfK/l5aWSK6tUqmEUqnE0NAQqTtgGvbcC+b3xUT/mYhiUlIScnNzkZeXR7oCxsfHIyws7J7Fu/48COFst9uh1+tx9epV/OEPf0B3dzcWFhbgcrnAYrHwpS99Cd/61rcQFxcHqVR6X8KZ+ZyZHG/mO2Ei8BthaGgIb7/9Ni5fvoz+/n4SVX3iiSfwzW9+E7m5uZDJZPc1B8D7Xv0uAeS7vN+b8pUwN4ZL3mJM5rVYXheRzWDxdmI8d+4c/uM//oN0bGR47bXX8D/+x//YVNEe8/79P6OQkJD7jtJ/1qHCmbId2FLh/Mknn+DDDz9ES0sL6QTIYrEQGRmJjIwMvPbaa3jqqaeIHdd6YKyqzp49i/fffx/z8/NQq9XE/u2ll17C4cOHIRKJMDU1dVfhnJOTAxaLhfPnz+OXv/wlpqenYbFYkJubi5KSEhw5cgQHDx586FXObrcbJpMJt2/fxj/90z8FtIWtq6sjYjchIYHcdGi1WiwuLpILCZMPqVKpyEWTyTVnomJZWVk4ceIEampqkJmZSRw6NoLJZEJzczOuX7+O+vp6DAwMACuWk0tLS/Hss88Sob8Zi761oML5/7MVwnnZ2yjCbrfDarXCZDLBYDDAaDTCYDBgfn4eU1NT0Ov1sNlssFgsJDWLSQfwX+5ei9DQUERGRiIuLg4pKSmQy+Ukr1ehUBDbwvDwcISHh29olYARK6dPn8b3vvc90umOYTPCmamzGB8fR1tbG65fv05+q1FRUXjmmWfw5S9/GSKRCGFhYfclnNVemzatVgur1UoEtEAgIP7F6/0shoeH8e6776K1tRVabwdReOfDF198ESkpKYiIiFj3XLwSu93u85wMTDOk6OhoREdH39dzMxiNRmJT2NHRQaxA5XI5EhMTNxUpt3s7fra3t+PChQsBK3NPPvkkXnrppU29hkajweTkZMDKUV1dHY4ePbqp5/6sQoUzZTuwJcKZiUi9/fbb+MUvfoGJiQniYcnhcJCeno7i4mK88sor2Ldvn//zrAoTeent7UVLSwvOnTuHjz/+GEtLS2Cz2aitrcXOnTvxxBNPYMeOHQCAgYGBuwrnsrIyRERE4NNPP8XPf/5z9Pf3Y35+HgKBABKJBC+//DJeeuklkrLxsKLOzFJlc3MzfvKTn/hEcOFdAv6bv/kbFBQUQCqV3vXC6fG2wZ6dncUvf/lLfPTRR5idnSXCkvGvrqurw969e0nKxnr+Vo+3El6pVOKdd97BhQsXMDAwQNw/wsPDoVAosG/fPrzyyivIysp6YDm3VDj/f7ZCOLu9nTx1Oh1mZmYwNzcHlUoFlUqFhYUFIl7M5o1d1JibOkb8crye7omJicThIj09HbGxsRAKhSSn9X5ZWlqCw+HAxx9/jH/4h38gdpgMmxHODDabDQaDAfX19fjjH/8IFouF5ORk7Nu3D08++SQRRPcjnIeGhtDY2IjR0VEsLi6S9JbIyEjIZDLwvE2N1sP4+Dg+/vjjgJWA3Nxc7NmzBwqF4r7tIU0mE+mMt5L4+Hjk5uYiJycHOTk5636vqzE/P4/Ozk5S1zI7Owt4230XFxdvKmrr9jZAYYS5/3nNFKLez2fDMD097SP4Gf7u7/4OP/jBDx5qcGa7QIUzZTuwGeFMigMdDgdMJhOuX7+OCxcuQK/Xk+5PISEhyMvLQ1lZGfLy8hATE+P/PKtiNBoxOzuLa9eu4dSpU+jr6yMRLTabjX379uHYsWNITk4mBvWLi4toaGhAf3+/z3MlJCSgqqoKcXFxEAgEsNvtcHnb1M7MzMDlcsHpdILFYsFsNpOqaHgv/A8ap9MJlUqF4eFhtLW1YW5uzmd7Tk4ODhw4gNjYWB+v0dVYmWbi8XgQHByMhYUFqNVqYEUnMHjdCsJWeD3fC5fLheHhYbS0tKCxsRGdnZ0wGAzk4h4bG4u6ujrs2rULOTk5W+q76o/BYCD2Zn19fQGRr88TCoUCubm5SExMRHR09H2JlWWvK8bk5CQ++ugjfPLJJ+jq6sLAwADGx8cxNzcHo9FIIqDrgc1mQyAQIDo6Gnl5eaiqqsLevXtx4MAB7Nmzh4hmxt+b6aK4mfPF6XTCYDCgt7cX169fh8bbtp5hM8WBDEHemgKPx4OQkBCkp6eT/PLo6GgyZ1i8zijrKQ5kUCqV6O3tJc1gJiYmMDs7i5mZGYyPj5O0mN7e3nuOgYEBzM7OBvw2mJSbiYkJDA4OBhy3ntHf34/h4WFMTU1hdnaWDA6Hg9jYWERHR0Mmk931Jv9emL0WfaOjo+jr6yPz1vLyMlkFWfnaGx1KpZIU4Pqf18vLy9Dr9aRe5H6GUqmEwWAIKICtrq7G3r17N/XZfFahxYGU7cCWFAdqtVosLCzgV7/6Fd58800fN42wsDA899xzePLJJ1FaWnpPM3lmqXV8fBxdXV04c+YMTp48CavVCniXLCMiIvD666/jlVdeQZjXXB7riDhXVlZCLpdDqVSir68PH330Ed555x2YTCZSZJWUlIQXX3wRx48fh1gsRnh4+KYu5OvBaDSip6cHV69exbvvvksszphcwWeeeQbf+973kJmZiWCvH/C9YCLDXV1d+M1vfoMrV67AYrGQG5rCwkI8//zzqKmpQW5uLsRiMTgczprPbbPZoNPp0NjYSKzFmGgeU5hYUlKCL33pS6iurkZiYuKG81I3wvT0NO7cuYNLly7h7NmzMJvN6xL/7BW5l2v9rfdiydspUK/Xk4s5Q7DXjirM25RjoxdHJr/VPy9yNZa9Lg+5ubk4evQoqqqqkJ+ff1+pMUtLS7DZbGhpacG//uu/4sqVK7CusJNcD0FBQeByuWSEhoZCKpUiLi4OBQUFxPYsLi6OdLTcaiwWC1QqFc6dO4c333wTIyMjPtuLioqwY8cOPPnkk3jyySd9tm2UxcVF0rSDz+cjIiICUVFR5Ly6n4hzV1cXTp06hWvXruH27dsB59fjTnV1NU6cOIEdO3agqKhoU1HhtSLO2x0acV4bGnGmbAc2E3Emwnl8fBx9fX04efIk3nrrLZ87bIFAgL/4i7/Ac889R5Zk74bD6wXd0NCAt99+m/gyMxfw6upq0kWvtrYWwV4fUGxAONvtdiwuLuLkyZP41a9+BZVKBZPJBD6fj/DwcOzatQu1tbWorq5Gfn4+gh+wN65Go8H169dx+fJlnD9/niytcrlcCAQCPP300/hv/+2/ISUlZd3vY3l5GVarFdPT0/jkk0/Q2NiI1tZWcvGJiIhASkoKdu7ciWPHjpH2wKsJveXlZfT19aGnpweXLl1Cc3Mz5ufnSXpEREQECgsLUVtbiyeeeAJZWVkQCASrPtdWsbi4iMnJSQwODqK/vx8sFuueNzksFgsCgYBE2Nf7WfpjNBqh0Whw/vx5XL161WdbREQEqqqqUFhYiMTExA27x1gsFiJY/SNV/thsNuj1ekRGRhLf6MTExPu6IDMpPiMjI3j//fdx+fJldHV1BURs7wabzUZqairxG4+LiyPRR6atsEgkIsXB9/v53417CeeamhoS8d69e7fPto3C2B/Cm5LG5XJ9PnsqnKlwXg0qnNeGCmfKdmBLhHNraysaGhpQX1+PS5cu+Sx7CYVCvPbaa/jiF79IioBWg8lpZponnDp1Cr/5zW+IhVJYWBgEAgFOnDiBEydOICUlBfHx8T7PsV7hzGaz4Xa7cebMGfzhD39AX18fRkZG4PF4wGKxkJqaiuzsbBw+fBg7d+6EVColEdkHcbFXKpU4ffo0Ll68iNu3b5P8cKFQCIVCgaeeegrf/OY3kZCQ4H/oPWGi2Tdu3MCHH36I7u5uOBwOciNSWlqKp59+moi9lZFAj8cDg8EArVaLpqYmNDU14caNG8SpINjrW5qamkpuZEpLSyGXy33ew4PAbDZDq9VCr9dDr9cjLCwMIpHort8Pm80mrYZX3nBtlLt1DoyNjcWJEydw8OBBFBcXb6gVMbzfl8lkgtvtvme012q1Qq1Wg81mE2EaERGxqaKjhYUFtLS0oKGhAR9++GFAMyEGttcRg/ldMjd5BQUFyMvLIw0foqOjyXu623ezVdxLOO/btw/Hjx9HVVUVysvLfbZtNfcjnPv7+/Hpp5+ira0NPT09ZKWNScFiPve18Hg8cDgc0Gq1MJvNcDqd5AaMx+MhPDwcLpeLrLLBawMYFRW1oRUSZr72Xx0pKirCoUOHUFRUhNzc3E2tKqjVavT19aGpqQkXLlwgntxsNnvdK29rwazWGAwGaDQaUjzNIJVKoVAoNvUazMqU/+rRK6+8gm9/+9ubuqn4rEKFM2U7sCXC+eOPP8bvfvc73LlzB8PDwz4ThVgsxne/+1385V/+JUJDQ9ecSJ1OJ8xmM9ra2nD+/HncunULnZ2d5MKRkZGBvLw8HDt2DEeOHEF4eHhAKsB6hTOHw8Hy8jIGBwdJhOf999/HkrdJRnh4OMRiMXnNffv2oaSkBGKxOOA1t4LJyUn88pe/xLlz5zAxMUFyuaOjo5Gbm4sjR47gC1/4wobb2sKbl6zX63Hnzh289957aGpqwsTEBIlkRUZGIj4+HnV1dXj66aeRmppKxJ7b7UZzczOamprQ3t6Onp4eqNVqEmkWi8UoLi5GVVUV9uzZg9zcXERGRj6USIrb63DgdDrhdDoRHBy85rnFEOT1c2Yuuvd7UXyQwtnlchHrLf+8S3+YzyAoKAg8Hg9cLnfTkVyLxYK5uTk0NDTg3//93wNycxmY1ZmsrCxkZ2cjMTERCQkJJLc1PDycRPeZvPz7/bw3wr2E88GDB/Hss8+ivLwcJSUlPtu2mvsRziqVCgMDA1CpVNDr9eTmiRGLAoFgzVQcJs1tbm4O9fX16OzshGpF45OEhAQUFxdDq9X6FHrW1dXh+PHjiIqKIvUi98LlcsFsNpObcOZcjYqKQnx8PGJjYxETE7NuIb4ajGXc9PQ0xsbGfNL1xGLxps5zxlqwpaUFH3/8Mebn5322P/300/jyl798zznlbjArQv7+5YWFhaiqqrrrDdDnFSqcKduBTQlnh8PhsdvtePvtt/GjH/0Is7OzMBqNRDgLBALi3/yVr3zF/3hgRVHSwsICxsfHceXKFZw6dQoTExMwGAxgs9ngcrnYvXs3Dh48eNdI0XqFMzMZMp3X3n77bRLdZkQri8WCUChEbGwsDh06hNraWqSmpiI2NnbLlpqZ6NDg4CDefPNNnD17FkajkRTzMKkU+/btw5EjRzblhzw7O4tPPvmELAFPT0+TVtQAUFlZiaNHj6KoqAjZ2dmw2+0wGo24dOkS6uvrMTY2RiLhwcHBEIlESE5OJpHm4uLi+xL225EHKZwfNUyu87Vr1/DDH/4Qt2/fhtVqBYvFApfLRXh4OEQiEaKioiCVSpGfn4+ioiKkpKQgMTGRCOVHhclkwvz8PM6fP48f//jHAY0tDh06hBMnTqC0tBRFRUU+27aa+xHOVqsVWq02QGyxvc4kAoEA4Wt0XXW5XNBqtejt7cXbb7+Nq1evkg6rAoEAhYWFOHz4MCkAXVhYgNvtxpNPPokvfOELpIPgelZjnE4nTCYTKbRm5nxG4DM3VpuZI91e5wtmMOI8PDwcERERm3ruezVA+du//Vv84z/+46aCAIxLjf93KRKJIJFIHsqN5HaDCmfKdmAzwpllMpkwOTmJmZkZLC4uwmq1kgmUxWKRVtEymcz/WILT6SST/fvvv49PPvkEU1NTpNJZKBQiMTERhYWF2LNnD5KSkvyf4r4JCwuDVCpFcXExjh075lPh7vF2b5uensbHH3+MX/ziF7hw4QK6u7uh0Wh8oiz3i9vthlarxezsLBYWFmAwGEjxHrx+t4yv7WaW3+Fdjt21axeeeOIJVFRUICkpyeeiMDw8jHfeeQfvvvsuLly4gLfffhs//vGPcebMGfT29pKUGXiXfAsKCnDw4EHU1dWhpKRkzRQcyvaCxWKBx+MhKirKJ2eaz+cjPj6eNOP52te+hm9961t4/vnnUVlZiaSkJPD5/E2fp5tlaWkJVqvVR2htJ7hcLrGeWzmioqIgkUju2k3PbrdjaGgILS0t6O/vx9zcHOx2O4RCIXJzc1FZWUm6j0ZHR4PP5yMoKAj9/f14++23cfPmTeh0ugAXjtVg0rQiIiIC3mdERATCwsI2LQzZK9qQS6VS8hpCoXDTz/0w4PF4q36XAoFgW7x/CoWy9bCMRiNGR0cxOzsLi8Xic2cdFBSE6Oho5OTkIDIy0udAeC9wJpMJU1NTuHnzJi5fvowbN26gv78fer0ey8vL4PF4xEqusLCQtG7eKoK9bhBpaWmoq6tDaWkpUlNTIRaL4fF44HK5YDQaMTw8jFu3buHKlSskj7upqQkDAwOYm5uDXq+H3W7f8IXa7XZDpVJhcnISWq0WDofD5zl4PB7kcjkiIyM3teQJrwhPTExEUVERampqUFZWhoSEBIhEIrDZbHLzcuvWLVy+fBmNjY24evUq+vv7sbi4CJvNBjabjbi4OBQXF6Ompga1tbXIzs5GdHT0piIzlMeHIK/VmkQiQU5ODioqKlBVVYWdO3di79692Lt3L+rq6rBz505UVVUhOzsbMTExEIlEDy2P+W7Y7XaoVCofD+TtBCMW+Xy+zwjzNmVabR5YWlrC4uIiRkZG0NLSglu3bmF6ehpmsxlutxsSiQRFRUUoKytDamoqMjIyUFJSguTkZHA4HKhUKrS2tuLmzZu4ceMGRkZGYDQafW7i/WGxWAgJCUFoaCjCwsIC3ufdHHrWC3Mucrlcn9cICQnZ9HM/DNb6LjeT/kGhULY3LJ1OR8SjvwNAUFAQpFIp0tLSVs2bY5p+tLS04A9/+AP+/Oc/Y2hoiBStcLlcSCQS5Ofn4+mnnyaG9/daQrwfFAoFKisrsWvXLhw4cGDVqLbZbEZLSwveeecd/PCHP8S//du/4aOPPkJrayumpqZW9eu8F263G3NzcxgdHV21ep7L5UIqld53d6+VMBchhUKBvXv34vDhwygrK0N8fLzPRD47O0us5jQajU/XKy6Xi8rKSrz88st44oknUFZWtqn0Ecrji0gkQmFhIY4ePYpXX30V3/jGN/Dqq6/iySefRHZ2NmQy2QP7PW4Gi8WCsbExTE5OBhR8fVZxOp2kccqlS5dw48YNUkgHr9NLRUUFiouLIRaLkZKSgqNHj6K0tBRcLhc2mw1arRbNzc347W9/i2vXrmF2dnbVOYlCoVAo9w9rfn4ePT09mJqaWlU0isVixMXFkZy85eVl2Gw2TE1NoaOjA42NjWhoaEB7ezvGxsZgNBpJvlx0dDRqamp8lhbZm2yOsBZMykZeXh7q6upQXl6OzMxMn+i2y+WCWq3G6Ogoenp6SAT6008/xblz59Dc3Izp6WmYTKZ1RZ7dbjfMZjOGh4fR3d0NrVZLtvkvUYpEolUjTRth2dtS2eVyIchbJMfko66MElqtVqhUKrJky+RAwyu+GdsteD8Tu90Ou92+6vdP2b7w+XwkJSWhoKAAlZWVKC0tRU5ODhISEiAWixEaGgoWi/VAfo/3g9PphFqtxtjYGLq7uzE6Oupz08fARDA3+3t61DgcDuj1egwMDBArS2aFSKVSwW63Izw8nDSfyszMJCtDjH1hYWEhcnJyIJVK4XK5MDMzg7a2Nly5cgUXLlxAS0sLxsbGoNFo4HQ61zWvUSgUCmVtWFNTU2hvb8fk5KSPwIJXZAmFQsjlcoSFhZGKb71ej46ODpw5cwZ//OMfcfbsWdKyeSVpaWl48cUXsWfPHshksrvm9m0VSUlJ2L17N/bt24e9e/cG2N2tRKvV4vbt2/jggw/w85//HO+99x66urpIwc3d8HhbV+t0Oty5cwctLS0+OcTBwcEQCoWIioqCTCYj6RSbYWlpCWazGfPz8+jr68PQ0BBJD/G3S1oLt9tN2sh2dnait7eXRKbu9TdTthdMmhDjw7wV5+CDxGKxYGRkBO3t7WhpacHw8PCqwpnD4SA8PPyRFjBuBWazmbhn/OY3v8EHH3yAa9eu+bhDyGQyHDlyBE8++STi4+PB4/EQFBQEPp8PhUKBgoIC7N+/H5mZmWCxWLDZbNBoNGhsbMTPf/5zfPjhh2hqasLU1JRPITGFQqFQ7g92fn7+95uammAwGHw2hISEIDw8HHv37kVNTQ3cbjc0Gg2J1DY1NaGtrQ0DAwNYWFjwiVbKZDIUFBSgrq4O+/btQ2xsLMLCwtaVO7nelttrCQAOh4OwsDCw2Wzw+XywWCywvY0y3F4/Tibqsry8DLvdjpCQEMTExCAnJweFhYWQy+X3rCZfWlrC7Ows+vv7cfnyZdy5c8fnMxCJREhNTUVJSQmqqqp8upHdDafTCZvNBpPJBL1eT/Kn+/r60N7ejvb2drS1taGzsxN9fX2YnJzE4uIizGbzuiLGQV5LMavVCo1Gg/n5eUxNTWFiYgITExOYnp4m+aV6vR4GgwF6vZ5cdJ1OJxwOx5rD5XJhyWsJeLfP71Gj1WqhUqlw69Yt4mnNwBRipaamQqFQQCAQ+GzfLjCpPcx4UKs9d0OtVpOW00xr57m5OSiVSqhUKszMzGBiYgL9/f1oa2vDzZs30drair6+Puh0ulVvCIuLi8nN+FruFFvF/bTc9mdpaQkur++yRqPB2NgYenp60Nrailu3buHGjRvo6urCzMwMdDodlpaWwOfzkZaWhsrKSuzfvx8FBQWIjIwkucEsFotE3MPCwsgqk9vthtVqhdVqJalnRqMRKpUKc3NzWFxchNFohMVigcPhIHPG/a48LC8vE2cjnU7n48uu1+tJ3YzL5QqYKzY7TCYTmFTD1tZWYrHJUFJSgsrKSiwtLQUcu9lhsVjI3+3/NzO55cvLy+T683mCttymbAc203KbnZiY+P2BgYGAKuzw8HBERUVh7969qKysxOLiIgYGBnD27Fl89NFHJDVjtbSG3NxcvPDCC9i1axdSU1OJgF0PmxXO8AqG8PBwxMTEICIiAhKJBFarlfhx+hccpaWl4dixY9i3bx8KCgoQFRWF4HuY8zudTvT29qKlpQWdnZ2Ym5vz2S6VSlFeXk6WWNdzgfd4PDCbzdDpdFhYWMDs7CwGBwfR3t6OCxcu4Ny5c2hoaEBTUxNZylZ5OyauN5Lk8XhgtVqxsLCAiYkJ9PX1oa2tDS0tLejq6sLAwABmZmagUqmg1WqhVquhVquJ24rNZoPFYll1WK1WOLyesBwO55G7M9wNxmaMuflbyWdFOD8ODA4O4saNG+jt7UV3dzcGBwcxNDSE8fFxjI2Nob+/H+3t7aT5UnNzMwYHB2E0GgPmFYaqqiocOnQIEonkgUedt0I4u1wuWK1WKJVKTExM4Pr16zh79iyxiRwaGoJGo4Hdbic3ClFRUdi/fz8OHDiAsrIyxMbGrlpQFxYWhpiYGFi9jXSYiDO8v3W9Xo/x8XF0dXWho6MDCwsLMBqNsFqtWFpagsfjAZvNRkhIyF3n1LVwuVyYn5/H5OQkZmdnMTMzA6VSSYbRaCTC1X++2OxgGp8MDg6is7MzIPiTl5eHgoIC2O32gGM3O7RaLRYWFjA3N4fp6Wmfv5kpamWKLx/0Ofq4QYUzZTuwGeEcVFpa6unr6wtYEk1NTUVmZib+4i/+As8++yzUajWmp6dx9epV3L59G0NDQ5iZmSGijVkWzsjIQFVVFfbt24fU1FRIpdIN5SJu1Mf5biwtLZGIamdnJ3p6ejA4OIiJiQmo1WrAW1S4Y8cOPPfccygoKIBCobjnROdwOKDT6XDy5EmcO3cOfX19mJqa8tknKysLzz//PPbs2YPi4mIIhUJy8TCZTMTXlInQrhSoVqsVFouFiGimEyPTCGGtSnmpVIq4uDjIZDJIpVIsr/DXVqlUWFhY8MnDXkmwtzEDk5MdEREBoVBIXAAY79+7XVy5XC7JoxWLxY9EcLq9DUW0Wi3xv10Jk889NDSEoaEh3Lp1C11dXT77bHcf58eJrq4utLa2oqOjw0d4Mh7qLpcLFouF+K/f7fwWi8WQyWT44he/iL/+67+GSCRa1zywGcbHxzE4OIhf/epXAXNSbm4u3njjDTz55JMICQkhN5bM79dkMsFkMmFhYYEIKq1Wi7GxMYyOjkKj0ZDfY5C3AY5QKERSUhJyc3NRV1eH4uJixMfHQygU+ry2P11dXbh58yY6OjrQ0dGBmZmZgJt5Ho+H5ORkxMXFQS6XIyoqCkKhEAKBgHSPFAqFkMlkiImJgUQigVAovGvQw2q1oqWlBd3d3ZienvZJV4P3NcVi8QP5npxOJywWC/kdM/79DMx1aCPXn/XCRJ6Z+WQlYWFhKC4uRn5+PpKTkyGVSn22f9YZUzkwpvp8FPVSti/CMDZS5VxEhm98fgjicrkep9MZsCS6Y8cO1NbW4siRI6irq8OS11t1cHAQPT09uHr1Kjo6OjA5OQm73Q6JRIKKigqcOHGCTPZMysRG2ErhDK+Qcrlc0Ol0mJqaQmNjI+miFxQUhOrqauzduxeHDh1CfHz8PZezPd4W1tPT0/i3f/s3vP3223C5XAER36KiIrz66qvYtWsXkpKSEBQUBIPBgPn5eZ90CKvVCrvdjo6ODnR3d2PZ2/6WSSlZ9rbFdbvdJELk/10xFBYWEku+oqIiEulqbW1Fa2sr2tvb0dfX538YsCKFY2VqC7N8u3Lb3RCLxfjmN7+JF1988ZEJZ5vNBoPBgN7eXty4cSMgCqXVaqHRaDA+Po6JiQk4vJ0LV0KF89YxNjaG4eFhvPXWW/jzn/9MHmd+Y8z5vLSi9fNa53d6ejpKSkpw7NgxPPfcc+B6uxk+SLq7u9He3k680VeSmZmJb3/72zh06BDEYjGWlpbITapSqcT09DQmJiYwODiI/v5+2Ly+1Mx8wfzN8BYTSyQSJCUl4ciRI9i1axcyMzMhl8sRHBx8z9+e1WolrkHNzc1knltJ0IrUHba37Tfzuw4KCkJkZCQSEhJQWlqK2tpaZGZmIikp6a4rR0ajEWfOnMGnn36K9vb2gPbu65k3NsOyt+22fRUrUS6X+0Draphz1f98FYlEeOaZZ3Do0CEUFBTctc7ms4h7yQPX0uq/YQrlcYEVFAROcBBY93EJYT/77LPfl0qlYLPZPmkXOTk5KC4uRlpaGmJjY4mgYiKTEomEtGaOiYkhQrusrGxd6RSrwVx4GhoaApbPN5KqsRImF5CZRPl8PqRSKfGnrqioQG5uLhITE9dt+K/T6TA3N4dr164RscsQEhJC/HP37t2LjIwMkqoSFBQEnU6HyclJ9Pf3o7W1FaOjo5icnMT4+DiUSiVsNhuJYjCizu1t1MJM0Fxvg4WEhATk5eWhtLQUNTU12L17N/HljY+Ph0gkglAoRHh4OGQyGeRyOeLi4hAXFwexWAy32w2Lt5UvvBeClULd5XLB6W2HvTK64j+cTif5PGtqapCbmwsej7fu7+hBwLjFjI2NYWRkBJOTk5ieniZ5tiqVak37QYlEgrKyMuTm5kImkyHsAbRo/7zg8XjA4/EwPDyMkZERcjPndrvJWCmaV4NJu6qoqCD5vgqF4qGcX/Pz85iZmUFvb29AZ7rIyEhUVFSQdDS73Y7x8XH09PSgubkZXV1dGBkZwdTUFBYWFnxSmZi/l8ViIT4+Hnl5edixYwd2796NyspKZGZmIjIyEqGhoeuak9je7qwcDoeksISFhSEkJAQOb/Ew8zm7V9Qq2O12svoVEhJC7EcLCwtJg5W7CV+73Y7+/n4MDAxgYmICSqWSzBn3mje2Yji8dRWrnTtLS0sB+2/lYKLOK/9ep9MJFouFzMxMpKWlQS6XQywW+7+1zzQsVhA4bDroeLxHMDsI65haV4X9f/7P//m+WCyGxWLBxMQEiZwWFBSgvLwc8fHxkHm7BrJYLCI8U1NTkZCQgODgYCQmJuLQoUOorKwkwvZuk+1qeDweuL3NRBobG7dMOGNFpIXP5yMuLg7p6enIysoiVk4beU6Px4OFhQVMTU2hpaUFQ0NDPttDQ0MRFxeHoqIi7N27F8nJySTCw+VyodFoMDIygra2NjQ2NmJsbIy4Wqw2+a+GQCBAfHw8CgoKSBvzY8eOkWYmMpkMPB4PPB4PAoEACoUCmZmZSE9PR05ODrG0UqvVUKlU/k+/YdhsNiliKi0tJX/zo4D5nOfn59HV1YX+/n50d3eTHMyFhQVi07cWERERqKmpQX5+PiQSCXi0Mcx9w+PxIJFIMD4+TlanNuotLJPJkJ2djbq6Ojz11FNITExc94rTZlEqlZibm0NfX9+qwrmyshLp6ekQCoUwmUzo7e1Fc3MzLl68iDt37kCpVMLk9bVfDQ6Hg6KiIuzZswdHjhzBwYMHkZaWhsjIyHumjK0kKCgIbDYbYrEYiYmJiIyMhFQqJbnPjKi7G1FRUUhLS0NRURF27NiBqKioe87jDocDg4ODGBkZwdzcXEC6xOcRHo+H3NxcZGRkIDo6+nMnnCmUzzpBY2NjHqVSieHhYfT392NychJTU1PYs2cP9u7di9TUVCQmJvocxEQmDQYDxsfH4XK5EBsbC4m3nex6BKg/S97q756eHvzzP/8zzp0757O9vLwcf/mXf4nq6mqkpqZuKgro9vovLy0tISQkBBwOh+Rc3guPx0McGZqamtDS0kIimmq1GgKBAHv27MG+fftw4MABJCQk+ByvUqkwMTGB+vp6nDt3DhMTE5ibm1tVNLNYLISGhkIoFEKhUEAmk0EikUAulyMxMRHx8fGIiYmBTCYj0anVCoiwov24yWTC4uIi5ufnMTg4iMnJSRiNRhgMBuLkodVqodPpoNfr73mxhTfK/uUvfxknTpxAVlZWwPnyKOjv78eVK1dw6dIlXLx4cV1iLTQ0FBkZGSgrK8PTTz+NiooKiESiDQkYyuqcPn0aZ86cwa1bt9Dd3e2/2YeVq0KxsbFITU1FVlYWcnJykJube99zzP3Q2dmJ1tZWnDx5EhcvXvTZlpGRgddeew1PPPEEZDIZXC4XJiYm0NjYiJMnT2JoaAh6vT4gjUuhUEChUCAuLo5Em5nfTXR0NDgczqZvPNVqNZRKJfr6+tDX10fyqkdHR30aq6ykpKQEzz//PHbu3Ini4mLw+Xz/XQIwmUyor6/H9evXMTg4GJBXzcDlciEQCMD1NtxZbY7aTjB57Kul6YWHh6Ourg41NTXIzs5GbGysz3YKhbK9CfJ4FRtT1NLS0oKmpibk5uaioKAAMpnsoXSWY4rYOjo68KMf/Qiffvqpz/aCggK88MIL2LlzJ4qKiu5ZLPOgWV5ehk6nw8zMDC5cuIDGxkbcuXMHfD4fX/3qV7F//36kpqau2nERABobG3H69Gk0Nzfj9u3bPsKZuahwOBxEREQgPj4epaWlyMvLQ0pKChHNm8kh9njbkZu8LdNnZmYwOzuLiYkJDA8PY3R0FOPj47BYLAGifuX/ezwecLlc/Nf/+l/x6quvQiwWr8tB5EGjUqkwNjaGDz74AL/5zW8CiiKZz3jlBTwyMhLHjh3DwYMHUVlZuWr3Scr9cevWLdy8eROnT59GQ0PDqp8/8/9MI6Pi4mJUVFQgOzsbKSkpDzRfdS06OjrQ1tZ2V+F85MgRyOVyIjSbmprwq1/9Crdv38bY2BgcDofP31tcXIzy8nJUVVWhvLwccrkcERERPs+9FTA3y1qtllj9Xbx40efGZeVv+cCBA/j7v/970p1wPeLdarXi9u3b6O7uhlKpDLCEYxAKhYiOjkZ4ePi6gxSPMxqNhqTf+K9e8Xg85OXlITs7G6mpqWTFlkKhfDYgwpnJaWVy+pjGHXw+/6FcsLabcPZ4PLDb7TAajRgeHsadO3fQ1NSEpaUlvPTSS6ioqLirXdbo6Ch6e3tx8uRJvP3224iKiiIXUMbRQiwWIzo6mgypVAqxWAyRSEQuQJthaWkJTqcTRqMRRqMRZrMZer0eOp0Oi4uLUKvVMBqNPk4BjNsHk3s9MzODxcVFfO9738M3v/lN8Hi8Tb+vrcBgMGBhYQHvvvsu3nzzzYBqfybXOyoqClFRUcSxITc3F+np6VAoFHSJdQsZGhpCf38/3nvvPVy6dAmRkZGQSCQIDw+HQCAAn88Hn89HeHg4IiMjERsbi5iYGCgUCvL9rEfIbTXXr1/H1atXcf78eVy/ft1nW2pqKv7qr/4Khw8fRlJSEjlfhoeHcfXqVVy7dg3Xrl1DaGgokpKSyO84ISEBiYmJiI2NhUKhQFhY2AObY51OJ+x2O5RKJWZnZzEyMoKJiQnissOkLplMJuzevRt/93d/h5ycHPB4vHWJW+aasbCwALPZDMcaLdK5XC74fD5CvLZ3/jdM2w3GlpPJ019JcHAwpFIpOcc3szpKoVAeP4hwftQwwrm7uxs//elPcfnyZZ/teXl5eOaZZ1BTU4OCgoLHIqqJFZHb+fl5fPrppzAYDHjyySeRlZXlv6sPdq+36M9+9jP88Ic/RHp6OrKzs5GcnIzExESynBsbG4vIyEj/wx84TqcTVm8TBZ23uYFGo8Hi4iIWFhZIEWNbWxsGBwfx3e9+F9/85jf9n+aR4XA4YLVa8fbbb+Nf/uVfoFarEbTCIaSkpAQlJSVIS0tDamoq4uLiiIhZ62aHcv+o1WrMzs7i3XffRX19PTnP5XI5STVibh7FYjH4fP4jEcr+1NfXE+/0jo4On23x8fF48cUXsW/fPlLMBwB6vR6zs7O4cuUKPvjgA8jlcuzYsYNEIcPDwx+JmGLmKp1ORwr6mHQtpVKJqqoqfOMb30Bqaqr/oRQKhULx8tgI5yVvK+/Z2Vm0tLQE2BrJ5XLk5OQgOTkZMTExj1XB1tLSEiwWCyYnJ+F0OpGcnHzPpVcmUtHR0YFbt24hKioKUqkUQqEQQqEQfD4fAoEAAoHgkfytjLOGv1+p1WolXQTdbjcWFhag0WiwY8cOFBUV+T/NI2PJ262tra0Nly5dgsPhIE4DoaGhRLCJxWJincfn88HhcB5a/uznCcYubWhoCFNTU2TVhM/nIywsDDweD6GhoeTGhcPhrCvi+aCZmprC9PQ0KSxdSXh4OLKyshAfH0/qO+C9aTObzZiensbo6CjCwsKgUCgQGRmJyMjIR9YcyOOtTXE4HNBoNNB5u94ZDAYYjUbExMSgtLSUrrRQKBTKXXhshPPy8jKs3uYfjG3TSkJCQhAWFkbGZ0XcMCkyW1EQRAlEo9Fgbm6OuKqIRKI1884plM8jjLd0UFAQOBzOtk+joFAolAfJYyOcPV47OkZI+pvZM37MjMD8rEzuy94mJyxvwxHK1sKkxKz0834ccrAplMcFJhIN7zz7WZlbKRQK5UHw2AhnCoVCoVAoFArlcYaGOCkUCoVCoVAolHVAhTOFQqFQKBQKhbIOqHCmUCgUCoVCoVDWARXOFAqFQqFQKBTKOqDCmUKhUCgUCoVCWQdUOFMoFAqFQqFQKOuACmcKhUKhUCgUCmUdUOFMoVAoFAqFQqGsAyqcKRQKhUKhUCiUdUCFM4VCoVAoFAqFsg6ocKZQKBQKhUKhUNYBFc4UCoVCoVAoFMo6oMKZQqFQKBQKhUJZB1Q4UygUCoVCoVAo64AKZwqFQqFQKBQKZR1Q4UyhUCgUCoVCoawDKpwpFAqFQqFQKJR1QIUzhUKhUCgUCoWyDqhwplAoFAqFQqFQ1gEVzhQKhUKhUCgUyjqgwplCoVAoFAqFQlkHVDhTKBQKhUKhUCjrgApnCoVCoVAoFAplHVDhTKFQKBQKhUKhrAMqnCkUCoVCoVAolHVAhTOFQqFQKBQKhbIOqHCmUCgUCoVCoVDWARXOFAqFQqFQKBTKOqDCmUKhUCgUCoVCWQdUOFMoFAqFQqFQKOuACmcKhUKhUCgUCmUdUOFMoVAoFAqFQqGsAyqcKRQKhUKhUCiUdUCFM4VCoVAoFAqFsg6ocKZQKBQKhUKhUNYBFc4UCoVCoVAoFMo6oMKZQqFQKBQKhUJZB1Q4UygUCoVCoVAo64AKZwqFQqFQKBQKZR1Q4UyhUCibxOPxwOPx+D9MoVAolM8YQR4621MolM8ATqcTbrcbISEhCA4O9t+85SwvL8PpdJLBYrEQGhoKDocDNpuNoKAg/0MoFAqFss2hwpnywGCicGudYkFBQURcUJFB2QwejwdGoxEWiwVcLpeIZzabDTabDRaLteXnmNvthtlshtFohFarBQCIxWIinoODg8FisRAcHIyQkBCf851CoVAo2xMqnClbjsfjwdLSElwuF6xWK5xOp/8uAIDg4GAicrhcLhUVlPvG7XZjYGAAg4ODmJ+fh8ViQWpqKhISEiCTySCRSBAWFgYOh+N/6H3jdDqh1WoxODiIixcvYmpqClwuFxwOBywWC+Hh4YiKikJeXh7KysoQHh4OLpfr/zQUCoVC2UZQ4UzZcpaXl+FwOGAymTAzMwODweC/CwBAIBAgMjISYrEYIpEIbDbbfxcKZV04nU40Njbi6tWraG1txfz8PMrKylBUVISUlBTExcVBKpVCKBSCx+NtSSqHw+GAWq3G9evX8eabb+LmzZs+22NjY5GdnY3Dhw/jueeeg0wmQ2ho6GfuBnHlypLH4yGR9UcdYV9eXsby8vJj834oFMpnAyqcKVuO2+2GXq/H2NgYPv74Y/T09PjvAgBIT09HdXU1srOzkZKSgpCQEP9dKJR14XA4cOHCBVy8eBEtLS0YGxuDTCZDZGQkhEIhFAoFsrKykJ+fj5KSEkilUv+n2DBMqsaNGzfwv/7X/8L169d9tpeXl+Opp57Cjh07UFpaCoFAsCWC/XFi5eqSxWKBy+UCj8cDl8sFl8t9pDfDTBoNs6LFrG5RKBTKZnjkwtnj8cDpdMLlcsHj8WB5eRkulwtLS0s++7ndbtjt9oDHGZicQjabTXILmfxGNptNCnYeRK4jxReXywWVSoX29na8+eabaGho8N8FAFBZWYkTJ06guroaRUVFCA0N9d+FQlkXdrsd7777Lk6dOoXu7m6MjY0BAFgsFjgcDmJjY1FbW4s9e/bgwIEDiIuL83+KDePxeOByudDc3Izvf//7aGxs9Nl+6NAhfP3rX0dBQQHi4uIeqmhmor9M1HUr577l5WUyDzOfgdlsxuTkJHQ6HcLCwhAaGoqwsLCH+jf7o9frodFoEBUVBZlMRla2KBQKZTM8cuG8tLSEmZkZqFQquFwu2Gw2qNVqmEwmn/0WFxcxMjIS8DhDZGQkZDIZRCIRhEIh+Hw++Hw+RCIRRCIRpFIpxGLxli3TUtaGCmfKw8ZqteKHP/whfv3rX0Or1ZJ5gsvlQi6Xo7CwEM888wwqKyuRkJAAgUDg/xQbhhGnzc3N+O53v4vLly/7bD9y5Ai+9a1vIS8vDwqF4qHOO263G263GxaLBXa7HQKBAKGhoSSosBksFgssFguwQjjPzc3h1KlTaG9vDwhgPCocDgccDgd27NiB2tpapKWlISkpyX83CoVC2RCPXDg7HA5cv34dXV1dJHIxPz8PvV7vs59KpcKdO3cCHmeQy+WIjY2FRCKBRCJBeHg4RCIRJBIJIiIioFAoEB0djaioKERERIDP54PL5W5ZFIby/6HCmfIwYVKDvv/97+Pf//3ffbaJRCLk5eVh586dOHHiBPLy8rZc0DU3N+M73/lOwHn+xBNP4PXXX0deXh7kcvlDTVuw2WywWq0YGRnB3NwcCSYwonYzMO4lYWFh4PP54PF4UCqV+Nd//VecP3/ef/dHzvPPP4+XX34ZeXl5yMjI8N9MoVAoG+KRC2eTyYSf/OQn+POf/4zl5WW43W7YbLYAJwa73Q6DwRDwOAOPx0NYWBhCQkKIFRWHwyH5baGhoYiKikJRURHy8/ORm5uL2NhY8Hi8TV9IKL5Q4Ux5mOj1eszPz+Nf/uVf8Nvf/tZnm0KhwNGjR7F3717s2LED8fHxW14k9jgKZ61WC6VSiffffx+ffvqpjz3eZv92Jq0uMzMTWVlZKCwsBJvNxj//8z/j448/9t/9kfPKK6/g1VdfRXx8PGJjY/03UygUyoZ45MJZp9PhjTfewE9/+lP/TVuOUChEUVERCgsLkZ+fj8zMTCQlJSEyMpIK6C2ECmfKw2R2dhZjY2P4j//4D7zzzjs+25KTk/FXf/VXOHToEFJSUiCRSHy2bwWPo3BWqVSYnJzEj370I/zxj3/037xpOBwOKioqsGPHDhw6dAgRERH4wQ9+gA8//NBnv5CQEISHh9+zKM9ut8Nms5EUE3i93ZlCQ0b43w2bzQaTyRRQB/O1r30N3/rWtyCXyxEVFeWzjbL1LDu1WHZq/B+mUB4rgtg8sEIiEcQO8990Tz5XwpnD4ZAcaGYJ99ixYyguLkZMTAzCwjb+AVICocKZ8jAZHh5GX18ffve73+HUqVM+2zIzM/F3f/d3eOKJJxAREfFAzrHPs3Curq7GsWPHIJVK8b3vfQ8nT5702U8qlSI7OxtisdjncX/m5+cxNzcHo9FI8tM5HA4UCgUp7LvX/DwzM4P+/n7YbDafx6lwfrg4NU1waZr8H6ZQHitYvGiERO0CO2zjdQ/bTjiHhYVBJBIFRB9cLhecTidsNlvAxLkWycnJOHjwIHbt2oWKigrExMSAx+Ntaf7jdoCpkne5XAgKCkJISMimLvJUOFMeJu3t7WhtbcWf//xnfPrppwAANpsNgUCAwsJC/M3f/A3279//wAqDP8/CuaamBsePH4dMJsN3vvMdvPvuuz77ZWZm4ujRo0hMTPR53J+enh50dXVhZmYGc3NzAIDQ0FAUFRUhJycHcXFxiIyM9D/Mh5aWFpw5cwY6nc7ncSqcHy6O+dOwz5/2f5hCeaxghyWBF/MMgoW5/pvuybZTiBKJBPn5+SgvL/cZeXl5SE5OvmdkYyUqlQrnzp3D6dOn0d/fj8XFRbJM+HnB4/Vhtdvt0Ol00Ol0cLlc/rtRKI8tBoMBMzMzMJvN5LGQkBDEx8cjIyMDUqkUoaGhD1W4Uv4fUqkUu3fvxvHjx+86qqurkZqa6jN/czgcJCUloaqqCgcPHgw4xn+UlpbSm28KhfLAYX//+9//vv+DDxO73Y6Ghga0trb6bwK8RX8ymQypqakoLi5GVVUVKioqkJWVhdTUVDISEhKQmJgIhUIBhUKBmJgYREREYHl5mVgn+eNyuWA0GuHxeIjvqFQqBY/H23QBzeOI2+2G0+mE0WjE4uIipqamMDQ0hO7ubvT392N+fh4ulwtisXhTFyDmM5+fn8etW7cwPj7uvwsAIC4uDrm5uYiPj0d0dPSWtkOmfH64ceMG6uvrMTExQaKNfD4f+fn5KC0tRUFBAeRy+QP7Tc/MzKChoSHgPE9PT0dVVRVkMhkEAsFDXclyuVxwu93QarVgsVhIT09HZmYmcnJykJeXh5ycHKSmppJuhna7ndwwCwQCyOVyZGZmkqBETk4OsrKykJmZidTUVKSkpJA6kfT0dAQHB6OhoQG9vb0+7yMzMxPHjx9HTk4OsQZdbczNzWF8fBxKpRJKpRLwRpyLi4tRVFSEjIwMJCYmBhy3coyMjKCxsTGgU2lZWRkqKyshEAjume5B2TxL5kG4zYP+D1MojxUsjhjB4dlgcWX+m+7JYy+cJRIJ8vLysG/fPnz5y1/GkSNHyPJdVlYWGbm5uSguLkZxcTEqKirIRUGr1WJmZsb/aX1gLjBcLhdZWVkQCoVbUn3+OOHxeOBwOGA2mzE7O4uhoSHcvHkTly5dwscff4zr169Dr9eDy+UiPj5+Q5F7f6hwpjxMTp8+jXfffRdarZasGIlEIlRXV6OqqgpJSUkQCoX+h20Zj6NwZlKuoqKikJeXh5qaGuzZsweHDh3CoUOHsG/fPpSXlyM+Ph5sNhuzs7MwGo2A14mksLAQR44cwVe/+lUcPnwY+/btw549e7Br1y6Ul5ejqKgIRUVFSE9Ph0KhIPO4v3BOTU3Fvn377ulmMTw8jMHBQczOzhLhzOPxkJubi4yMDERHR99zTuru7kZDQwMVzo8YKpwp24HNCOeHN5PfJ8HBwRAIBCTqnJKSgpiYGMjlcp8RExOD+Ph4pKWlIS8vD2VlZaitrcXhw4fxxBNPICMjg/iY+mO1WjExMYHR0VFMT09Dp9MFVGZvd5aXl9HR0YG3334bH3zwAc6dO4fGxkbcvn0bvb29GB8fx8LCAsxm8+cuXYWyPbFarVhcXIRGo4FOp4PdbifblpaWYDKZMDc3h56eHty8eXPTo7W1FXNzc3A4HI/9/MDhcMDn85GYmIjCwkIUFhYiLy8P2dnZyMzMJJHjuLg4RERE+Ny0hoSEkDblTKSasZ7LyclBfn4+CgsLkZGRgdjYWPD5fJ/XplAolM8yj71w3ighISHg8/lISkpCeXk5XnrpJXz9619HZWUlxGLxqrZITqcTBoMBSqUS4+PjUKlUj/2FcaO43W5cunQJ//RP/4Sf/exnePfdd3Ht2jWMjIyQSBOFsp0wGo2Ynp5e9fx1Op2YmJhAS0sLLl68iI8++mjT4/z58xgaGoLNZnvs5wcWi4WQkBCIRCLIZDJERkZCJBKtOv+tFzabDQ6HA6FQ6POcXC7Xf1cKhUL5zPKZE85BQUFgs9kICQmBQCBAbGwssrOzUVNTg9raWsjlcv9DSIGcVqvFwMAAZmZmPnMFch6PB0ajEfPz81hYWCBtie12+2MvAiiU1TAYDBgfH1+1m6jT6cT09DQ6Oztx69YtXL9+fdOjpaUFGo0GHA7noaZd3A9MkxdG7DIdAzebfvYgnpNCoVC2E4/37L9JgoKCEBYWBoVCgdraWhw5cgRxcXH+uxH0ej0GBgYwNTX1mRPOFMpnDZ1Oh7GxsTWF88zMDHp6etDW1oaWlpZNj87OThiNRoSFha2a8kWhUCiUzz6faeGMFUUy0dHRSElJQWJiIuRyOXg8nv+uMBgMGBoawszMDM3zpVAec1QqFTo6OqBSqfw3wePxEBcZp9MJh8Nx38PlckEkEiE+Ph7h4eH3HWFdXl6G2+3G9PQ0bt26ReaZ5eVl/10pFAqF8pjymRfO8ObmRUREEMu6mJiYVe3WjEYjhoeHMTs7SyPOFMpjzvz8PFpbWzE/P++/aUthsVhQKBTIysraVMvu5eVluFwujI+P4+rVqxgfH4fL5aLCmUKhULYRnwvhDG/kmcfjITExEWlpaRAIBP67wOPxYHl5GTabDRqNBmazGY+4sSLFi8fjgdVqhU6nw+LiIhYXF2E0Gh/LHG273Q69Xg+NRoOFhQUsLCxArVaTvPLteFPmdrthMBjI36PT6UiR3MP+jRgMBkxMTGB2dhaLi4s+nULDwsJQV1eHr3/96/c1nn32WVRUVPjYpwUFBYHP5yMiImLVlap7wRQf37x5E7/4xS/wzjvv4OLFizh79ixOnz6NoaGhz6yAVqvVuH79Os6cOXPXwdhWrrSSc7lcmJycxO3bt1FfXx9wjP/o7Oxcd9dYCoVCuV8eex/n8PBwxMbGIiUlBVlZWRCJRP67rBu32w2z2Qyj0YiJiQmo1Wr/XQAAaWlpyM/Ph1AoBJ/PR1BQEDweDykiXF5eXnN4PB5SmLMVrHxe/9fyf02G1d6n0+lEQ0MDbt686fP8DHw+HzExMUhKSkJGRgZEIlHA66wcDKv9nctb4OPMfN7LK9qB6/V6aLVaGI1GmEwmItr8C5RWe08PCv/3ubS0BIPBAI1GA6PRCIPBAJPJBLPZTJpMsNlssNlscizDVr7vle/Lf9zrNf2PZTpLqtVqaDQamEwmOBwO4nXO/D4YVnvOrWRhYQGjo6NoampCc3MzSasKCgqCRCLBSy+9hK985SuoqKjY8GCaJhmNRtL6OTg4GOnp6cTKLSYmxuf93MvHmc/nw+Fw4NKlS/j1r3+NW7duobe3F3q9HgaDATKZDElJSWCxWA+1u6HVaiVOQn19faR5TGRkJGJjY5GWloasrKx1OXFotdpVfZzZbDbcbjdmZmYwODi45rhz5w7Gxsag1WqJrSBzHplMJszPz2NiYiLgOP/nmJqagtPp9HkP1Mf54UJ9nCnbgc34OAd5Vl7xHgE6nQ5vvPEGfvrTn/pvArxm/BUVFdi3bx+efvppxMfH+++ybgwGA1pbW3H16lV88MEHuHPnjv8uAICnn34ar732GrKysiCXy2Gz2WA2mzE5OYnp6Wn/3X2QSCTIzc1d1b1jozgcDkxPT2N+fh4mk2nNaEpUVBQSExPB5/NJM4OxsTGfPG2Xy4U//elP+Pjjj32OZRAKhaQbWGVlJaKjo/138SExMREpKSkIDQ0NSHtxuVxQqVRob2/Hm2++iYaGBp/tDJWVlThx4gSqq6tRVFREnsdiscBsNmNubg6zs7MYHx/H5OQkyTllxB/jnCKXy6FQKBAfHw+FQoHo6GjSYvlBijij0QiNRkPG+Pg4xsbGYLfb4fB6/a68yWCz2QgODgaPx0NERARSUlIQGxuLyMhIREVFISIiYkusvex2OzQaDdRqNebn52G1Wn22h4eHQyKRkA6bKx0ilpeXodVqoVarMT09jenpaSiVSmg0GlitViJKmL9DJBIhKiqKfP7R0dGIjo5GSEjIAxOB7e3tuHHjBs6fP49z584B3s82JSUFeXl5eOmll7B3717/w9bFjRs38Omnn+LWrVtoaWkBAHC5XBw/fhxPPPEEKisrkZWV5XNMc3MzvvOd7wSc50888QRef/11hISEYHp6GvX19Th//jxZKYmKikJ0dDR27dqF2tpaFBUVIS0tDWw2+6G4dqjVanR2dqK+vh4nT57E2NgY4BX8FRUVOHz4MJ5++ulVV+f8GRkZwXe+8x28++67Po+Hh4cjOjr6noLVYDBAr9fDbrcT4cxmsyESiRAeHo6wsLB7CtwAFW0AAJ8lSURBVHidTgelUhkgnL/2ta/hW9/6FuRyOaKiony2UbYex/xp2OdP+z9MoTxWsMOSwIt5BsHCXP9N9+RzFXF2Op1YWFjA9PQ0+vr6sLCw4L8LACArKwuVlZWIioqCQCCA2WyGRqMhS4ZDQ0NrDqPRiPj4eEil0k2LNpvNRuy0urq60NPTE/B6Q0NDsNvtiIiIAIvFgtPpRHd3Nz799FP09/f77NfX17dmlB3ephE2mw16vR6Tk5MBr7NyhISEQKFQICQkJGD5+n4izkxLZKfTCbVajampKXR2duLGjRv4+OOP8cEHH+D27dtob29HR0cHOjo60Nraiu7ubkxMTGBxcREOhwNsNht8Ph8hISFbbhvGRGLdbjccDgfm5uYwPDyMO3fuoK2tDefOncM777yD27dvo62tDR0dHejs7CSjvb0dra2tuHnzJvr6+mCxWIhQCAoKQmhoKIKDg0kU937PH6vVitnZWfT396O5uRmdnZ0+351Go4Hdbgefz4dcLgeLxYLH21nSYrFgYmICfX19aGpqwqVLl3D+/HlcvHgRbW1tPn/L7du3cefOHYyPj0On08HtdoPNZkMgECA4OJj8LVsF8/n39PTg6tWrGBoaIvnNHA4HJSUl2LlzJ0pLS5GWloawsLANj+npafT392N2dpZEnDkcDiorK1FRUQGFQhEwB90r4mwwGNDd3U0aDTmdTni8qUdarRZWqxVmsxlSqRQKhQIsFuuhuHY8jIiz2+0mN5hMitVqg7mZWHmz7/F44HQ6YTKZSOqT/3H+z7FaUTeNOD9caMSZsh3YTMT5cyWcHQ4HlEolJicnNySc4Y1+NDc34/z585ibm1tzLC0tIT09HdHR0ZuOHOn1epw9exbnz58nXQ39X29ubg4SiQTl5eUQi8VwuVxob2/HJ598gsnJSbLP7OwsVCrVmlFreAWv3Zufq1KpAl5n5VAoFMjJySGCw/95NiKcY2NjIZVKoVQq0d3djfr6epw6dQotLS0YGBjA7OwsLBaL/+GA9+LqcrnI0vr8/DwWFxfhdrshkUgQEhKyqe9gJS6XCxaLBcPDw7h+/ToaGhpw6dIltLe3Y3BwENPT0zCZTP6HrYrH44HNZsP8/DyGhoYwMTGB+fl5WCwW8Hi8TQlPt9sNm82GqakpXLt2DXfu3PH57pxOJ0JCQiCXy5GcnAyXywWTyYSWlhacP38eDQ0NuHr1Knp7ezE1NQW9Xh8QxWNgBLfBYMDMzAxUKhUWFxcBADKZDCwWa8s+f6fTCbPZTHJmZ2ZmyHnB4XBQVVWFmpoaJCUl3XcRX29vL27evImZmRnyd3A4HOzYsQMVFRWIiooK6JR3L+Esl8tJzrTJZCIpYwxLS0uwWq3khiwsLAwikWhTN0/r4WEIZ5FIhIyMDCQnJyM2NnbNwaw2Mb9neFc1oqKiEBsbi/j4eCQmJgYct3JwuVySwrUSKpwfLlQ4U7YDmxHOW3NF2yZ4vLm/9ypoCgoKQnBwMLngc7lcCIVC2O12TE9PY2RkBL29vauOoaEhzM7OQq/Xb6oIjLm4MpG/jo6OgNcaHBzExMQEjEYjeDweuFwulpaWsLi4iIGBAZ99+/v7odFo/F+GsLS0BIvFgoWFhbv+fcyYn5/fsoImu90OrVaLwcFBXL16FWfPnsW7776LS5cuobOzc80bHHjFrEajwfDwMG7cuEGKrpqbmzEzM0OEyt2+73vBnDdmsxnT09Po6OjAuXPn8NFHH+H06dNoaGhAW1sb5rwRyvVgtVoxPDyM5uZmfPLJJzh9+jROnTqFxsZGDA4OQq1Ww+l03tfny2KxwOVy4Xa7MTExEfDdjYyMYG5uDnq9Hm63G1qtFmNjY7h27Rree+89fPjhhzh37hxaW1sxNTXlI/L8sXtzn/v7+3H16lV88sknOHv2LFpbW6FUKre0wNZms0GtVgfc+DJpIwqFAqmpqfd9c+3xeMhvYOXfHBQUBIFAcN+pNHK5HJWVlaiqqkJZWRmSkpLI6sLy8jIWFxcxODiI69ev49KlSxgYGIBWq4XD4diyz+5RIRaLUVhYiNra2ruO7OxsyGQyH2HLZrMhl8uRlZWFsrKygGP8R0ZGxn19PxQKhbIRPlfC2e11BtBqtWtG0OBt2y0SiRAWFoagoCCwWCxwOBxkZmbiwIEDSExM9D+EYLfbMTs7i+np6btGd+/G0tISdDod5ubmAvJTVxIREYHS0lLk5uZCKBQ+8JzeB8XMzAzJ//zkk08wNDR034LBZDJhZGQEN27cwEcffYTbt2/DbDYHRKE2gtvthslkQn9/P95//32cOnUKbW1tmJ2dXXVp+H4wGo0YGRnBlStX8Mc//hH19fVQKpWwWq33/VncC4fDAb1ej1u3buG3v/0tLl++jImJCR9ng42i0+kwMDCAa9eu4f3330dXVxdcLtemPn8GrVaLvr4+zM3N+dxQSCQSJCcnIyEhAbGxsQER4fWw7LWK0+l0mJiYINFXrBDOUqk0IJ9/PTDzR3Z2Np599lnU1dUhLy8PUqmU7ON2uzE7O4v29nZcvHgRFy9exPT0NNzb3OdZJpNh9+7dOH78+F1HdXU1UlJSfFYKOBwOkpOTsWPHDhw6dCjgGP9RWlp6X98PhUKhbITPjXBmlgAXFxehUqlIAcpK2Gw2eDwe+Hw+wsPDwePxiHAODg5GUlISqqurEbvCqsofJio9NTV138J5eXkZer2eCKe1EIvFyMvLQ3p6OikM3E44nU7odDoMDQ3hypUruH79uk/klsPhICwsDOHh4RCJRMTlZKX7hj9M+kNPTw/q6+vR1taGhYUF2Gy2DQtQjzefmXFhaW9vx6VLl9DU1ITh4WFoNBofQcgIpPDwcEilUlK0yBQsymQykj7iz8r3/emnn+LatWvo7e2FUqncssg+AxNB1+l0GB0dxe3bt3Hu3Dl0dXVhYWEBVqsVQd7GQf6ff1hY2F3PM7PZjJmZGXR0dODixYvo6emBTqdb9fe2Xpj3yzQ8mZqa8vk8ZDIZsrOzkZCQcN+WcS6XC1arlaQpMRFnHo8HsVgMsVgMoVC46nd3L5j5Iy4uDtXV1aiurkZlZSWSk5MhEAgQEhKCpaUlaDQactPX2NiI/v5+LCwswG6339e5u+xtuOJ0Ou+5yrYePCty/J1OJ1nJudvzikQi5OXloaqq6q4jOzsbCoXC56YnODgYMpkMmZmZKC4uDjjGf6SmptKIM4VCeeB8LoQzc+E1m82YmJjAyMjIqrmofD4fcXFxkMvlxJVhJUxk625LwTabjbgrrJWXey8Y4axSqe4qnPl8/qpWbtsFlUqF5uZmXL16Fbdu3cLk5OSqkcT8/HxUVFSgqKgImZmZd/38GQwGAyncYwToRsUnc84MDw/j1KlTOHv2LMbHx9eMYIeFhSEyMhIFBQUkQnbixAmcOHECzz//PI4ePYqamhrIZGvnVDFR4Pb2dvzxj3/EtWvXYDAYNpX24w+TA93X14dTp07h9u3b0Gg0Pjd6bDYbUVFRSEtLQ2FhIcrKylBYWIjU1NR1uSxoNBr09fWht7cXfX19JF/4fmDe79jYGC5fvozBwUGfzz8lJQW7d+9GXFycz3EbgUkDMZlMPkIwPj4epaWlW+KSw2azweFwkJubi+effx67d+9GTk4OIiIiyD5OpxPT09Noa2vDhQsXUF9fj/n5+Q2nGy0tLcHpdEKv10OtVsNsNm/6BmzZa2vJ+HlvxXNSKBTKduNzIZyXl5dhMpmIxdbs7Oyq0WCBQICEhATI5fJVi8rEYjESExMhlUrXjHzabDZMT09jfHycVHlv5IIH7/tdXFy8Z35paGgoYmNjIZPJwOFwSMRcoVCgsLAQJSUlZBQVFd1VsAUHB0MoFJKCvZXHrjYSExMRFha2qep/vV6P/v5+9PX1YXR0FGazGeHh4YiLi0N2djZKSkpQU1OD2tpa7Nq1Czt37iTWdUwBZnh4+KrvwWazQalUYmRkhEQpVxO7d8Nms2FmZgY9PT24du0aiV77RwB5PB4iIyORmpqK8vJy1NbWYt++fThw4AAOHTqEQ4cO4eDBg9i/fz92796N0tJSpKenIyoqKuAGze12w2q1Ynx8HFeuXEFrayvGxsZ8Ugc2CyMS+/v7ceXKFQwNDcFsNoPNZkMikSAhIQE5OTkoLS1FTU0Ndu7cid27d2Pnzp2oqqpCQUEBUlNTIZPJ1lzpMHvtBAcHBzfd3c9ms0GlUpEitvn5eR+xFh0djZycHIhEIuJSwtgBrher1YqFhQUYjUaf71YulyM3N3dLbMyCgoLAZrMRFxeHiooKVFVVYceOHSQvOyQkhOScj46O4ubNm2TlgUnbWu9c4nK5YDabMTIyQqz12tra0NbWhvb2drS3t6O7uxsjIyNQqVRwOBzkWKbmYHJyEl1dXWR/5viWlha0tLSQdLSNfM4UCoWy3flcuGo4nU5MTk6ip6cH169fx8jICFwuV8BFSKFQoKCgAAUFBcjMzAxY9mOKkBiHC5fLFSDAPV6XAaFQiMLCQiJq/UX43bDb7bh58yaampqIq8FqZGRk4PDhw0hLS0NoaCg4HA64XC5kMhmKi4tRV1eHffv2Yd++fdi1axd0Oh36+/v9nwbwfs5ZWVmora3FCy+8gOPHj5NjVxuVlZWkGt5fOC2v01WDyStlRI5MJkN6ejp27tyJp59+GnV1ddi1axeKioqQm5uLnJwc5OTkkCr90NBQLHkdCdZKBWCxWLBYLIiOjkZhYeGqNztroVarce3aNVy7dg09PT3ErcP/vImLi0N+fj4OHDiA559/HmVlZSR1ICYmBtHR0VAoFIiNjUVCQgJSUlIQFxeHZa+Lid3bGGUlHq8VV2hoKMmxTUhIWFcOu9vthsViwfj4OG7dugWVShWw3WQyYXFxkXQzdLvdiIuLQ1ZWFurq6vDUU0+hrq4ONTU1KCwsRE5ODnJzc5GVlYXMzEzExsaCw+GQqLz/+2cICgqC0WhEUlIS8vLy/Devi/n5eXR3d+P27dvo6enxEXkAsGPHDlRWVoLFYhFLPbvdjuDg4HWnVqhUKoyOjqKrqwu9vb1YWlpCUFAQCgoKUF5ejtTU1DW9ze/lqiGTySAQCMgcwKR/hYWFISYmhriFMO8d3t+GzWaDxWKBzWbD8vIypFIpeZ57nQcmkwkqlQoff/wx/vSnP6GpqQlXr15FY2MjGhoa0NDQgMbGRty8eRMDAwNYXFwk36Hb7YZer8fExARaWloCjrl69Sra2trIjXZISAgsFsuqrhqpqanYt2/fXdPbAGB4eBiDg4OYnZ2FUqkEvDekubm5yMjIQHR0NMRisf9hPnR3d6OhoSEgR5+6ajxcqKsGZTuwGVeNz7Rw9ngtvxYXF9Ha2oobN26gu7sbKpUqQPzAu+RbW1uLvLw8IgxWwlyIp6amoFKpYDQaAyKBzHKmWCwmleJrRadXgxEily9fxrVr17C4uBggCnk8HqRSKUpKSrB3717ExcUhODgYbDYbISEhiIyMREpKCtLS0shITExEe3s7mpubfZ6LQSgUIiMjA+Xl5Th06BAqKip8jvcfMpkMXC43QDRjA8KZyZfkcDgQCoXIyclBdXU1iXJmZWURwSKTySCXyxEdHQ25XA6pVEqEm06nI0vs/t+r2+tOkpycjNLSUhKZvxtLXj/r8fFxXLx4Ebdv38bs7GxAxI/H45EbJCYiW1NTg5iYGERGRkLkbd4QHh4OoVAIsViMiIgIyOVySCQSn6VvRhwxLHvzU+GNuMrlcmRmZpKo5d1Yj3C2WCywWq2w2WykGLaoqAjV1dWora3Fjh07kJmZieTkZJ/Pn/kOJBIJuFwuqRuw2+2rLtm7vQW5ubm5yM/PX9f7Z1haWoLD4cDg4CAaGxvR2dlJCubg/T1yuVwkJiZCKBRidnYWk5OTmJychFqthkAgIGLrXkJzYmICnZ2dpIPd8vIygoKCUF5ejurqasTFxa1pcXe/wlkgECAyMhIOb2MfZj7xeFPL7HY7bDYbrFYrlpeXIRQKweVywePxwL5HIbDRaIRarca5c+dw5swZTExMYGxsDKOjoxgZGcHIyAjGx8cxNzcHnU7nc+PDRKtVKhXGxsbI/qOjoxgbG8PExARUKhWysrKQm5uLsLAwWK1WKpwpABXOlG3CZoTz+sOg25AlrzVbf38/6uvrceHChbtahkkkEuTl5SEpKWnNSFVQUBDxMF6Zm+iP1WrF9PQ0ZmZmAoTv3XB6Df+VSiWmp6dXTdWQSCSoqKhAaWkpIiIi7nkRfdyRSCTIysrCzp078cwzz6CqqgrR0dGruiOw2WwIhUIkJiZi586dqKurQ2pqKoRC4aopGw6HAzqdjhSFrifv3Ol0QqlUYnh4GP39/RgfHw9YWcCK911dXY1jx44hLy8PIffomMf2NghJSkoiqRwpKf+XvfuObvO+78X/xgZIAMQiwL03Ke4tURJFDVsyI9mW7diOM+06SVMnTZveNk5u3Z64Pbenya3be5O0aZzV2IlVT1myFqlFSpwiKe49QRLgwp4E8Pvjx+e5BAhSXJJJ+fs653vi4BmEAJD4PN/n8/184lZNOdFoNGhubkZvb++6n/9GBQcHIyMjAwcPHsTjjz+OnJycVStIcDgcSCQSJCcn4+jRozh48CCioqIgFAr9/rutVivm5+cxPT0NtVrt9/O8GrvdTpcpvHbtGjo7O72q4QgEAshkMrS0tOCNN97wGr/+9a/R3d3t9w6BP1TFDt80ELFYvK7Od5vBYrEgEAiQkZGBw4cPIzk5GRKJxOtvD3UBV19fj3PnzqG2tpZelLqefxdBEASxvR66wJlaHT81NYWenh7cvn2brrM7MjLid1GgUChEfHw8kpKSEBMTA7lcvmpqBZPJpHMq5XK572Yalac6Nja24tbyajweD0wmE2ZmZuhb6P5ugYtEIiQnJyMhIQGBgYGrPtfdIiQkBMXFxSgoKEB6ejrCwsIQEBDgd5aewWCAx+NBIpEgJiYGaWlpSE1NpXOufVEzd9RiS3/vvy+73Y7R0VG6+cpqi/NCQkJQUlKC/Px8JCUlQaFQ3PM2OoPBoIPPxMREZGVlIScnh25f7stisUCj0WBiYmLLpeJWEx4ejuLiYuTk5CAlJQUhSy3L/QXyTCYT/GUtw1NTU5Gamur3Dg2WLexbWFjYcOBvMBjQ29uLrq4uDA0N0QEjm81GQEAAoqKikJ+fD7fbTefhLs/fnVpqN07NUPtDpQvNzc1hcHAQWq0WHo8HnKWKLlKpFCqVyu9F3FYxlurFh4aGIiMjg+5OGBERQc8qO51OurnM3bt30dvbSzekIYEzQRDEg7e7Iy4/qIUtd+/exYULF/DOO+/gj3/8IwYHB313palUKhw4cADFxcUIDg4Gj8dbNRhlMBgICQlBSkrKqrduAcBsNmNwcBCjo6N+Zyv98Xg80Ol0mJiYWHNmjs/n07mzq82M7yaRkZE4duwYsrKy6IDhXqgAOjg4GJmZmcjIyIBIJPLdjWY2mzE9Pb1i8Zc/FosFfX196OzshMFg8N1Mi4qKwrFjx5CRkbGu57wcFYCGhYWhtLQUeXl5az7/ubk59PT0rNnEZrOio6NRUVGBuLi4defjM5dK7ymVSuTm5iIpKWnNMnCWpfbSG7n7MjMzg/r6enR2dnr9DlEzzdnZ2Th58iQSExO9jsNSQGwymWAwGPxe9FAWlxZjzs3NYXR0FPPz83C73RAIBJDL5QgODkZwcLDfi7LtwFhqtR4SEoLy8nI888wzyMzMXDHzbLfb6ZbTRqMR9oegOQpBEMRudO9vyE+ZzWbD5OQkurq6cOvWLdTW1qKpqWnFDFNNTQ0uXLiAjz/+GB9++CEuXLiAa9euoaWlZdWZZirwSkxMRGFhIdLS0rxyEf1hMBgQiUQICQmhg1d/X6pUqsbY2Bj0ev26vug8Hg8WFhZWvaXNZDIhEAgglUrpahq7OXAWCoWIjIxEfHw8nTfNXmebaSpXlkp7iImJ8fs+UKgLqrUuYqica6PRiMHBQfT39/v93Pg+7+Dg4DU/M/5Qz59K90hKSqJrEPv792s0GrS1ta3IV94KoVCIsLAwxMbGIjk5eV0z5ssxGAyIxWLEx8fTi8RWY7VaodPp1nX3xWq1Qq1Wo7e3Fy0tLRgaGvI6jrpYys3NRX5+PkJDQ72Ox7LFldZ7VH2wLLWdpipqUD9HLpcjOTkZKpVq3Rdzm0XNoMfExCA7OxsFBQXIzMyEVCqlq+SkpKTQf6OCgoL83g1YjsvlQiwWIyMjA0ePHsXx48fxuc99Do8//jhOnz6N06dPo7KyEmVlZUhOTvaaUacWohYUFODUqVP0/qdOnUJlZSUeffRRVFRUICEh4Z6VdaxL1W3GxsbWHFqtFkaj0SsVh7r4mZmZgVqtXnGM75ibm/N7d8G+1BJ+IxdtBEEQq9nYt/2nwLjUsa2qqgq///3v8bvf/Q7vvfcePvzwQ6/x61//Gj/5yU/w4x//GD/+8Y/xxz/+EbW1tWvmNAcGBiIuLg6ZmZnIzs5GbGzsikoa/nC5XIhEIkRHR9N5ib5sNhumpqYwPj6O2dlZmM3mNb/AsWzGebXAmc1m0801wsLCoFAo1gxWdjqZTIbMzEwkJSXR5bjWG7RReDweQkJCEBISsuZ753A4YDAY1vzy9Hg8sNlsWFhYwPDwMF0iz5dMJkNWVhYSExPpphgbfd4UgUCAiIgIREdH04vI/AVp09PTWy7r5ksulyMtLQ1xcXGbTkcICAhAeHg4goOD1wygqMVvywOj1RgMBnR2dqKpqQl3796lK9hQIiMjcfDgQeTl5SE+Pt7vnR/qIsh5jzrDRqMRIyMj0Gq1Xr+foaGhqwbl9wNzWZWN0tJSHDp0CCqVCkKhEKmpqThy5Ai+8pWv4PHHH0dMTMw9U7QEAgGUSiWOHTuG73znO/irv/or/OAHP8Df//3f4/XXX8frr7+OV199FV/96lexf/9+r/UacrkcWVlZePrpp/G3f/u39P6vvfYavv/97+Mv//Iv8c1vfhMlJSUrZsZ9mUwm9PX1obW1dc0xODiImZkZWJbVrXctNYUZGhpCV1fXimN8x+joqN+7C0ajEZOTkxtKEyIIgljN6n95dwiqKsLk5CTa29tRX1+PmpoaukwYNRoaGnD37l309PRgeHgYU1NTq85wCQQCxMTEIC8vD4cOHUJxcTEiIiJWDVp8MZlM8Hg8REZGIi0tze8Xt9vtht1up8t+6fX6ewbObrcb4+PjaGlpgVar9d0MgUCA6OhoxMXF0V9Ymw3YdgKhUEhXbeD6qZu9HhwOBzKZDHK5fM0vcGrWaa0ZZ5fLBaPRiLm5Oej1elgsFr/vWVBQEBISEhAeHr5mWs96sFgsBAYGIjg4mH4t/OUKG41GTExM0Bdh/gKEjZLJZEhJSUFoaOg9FzWuhqrwIpVK1zzearXSd15W43Q6MT8/j76+Pty4cQONjY3QLHX5pNIngoODkZCQgPz8fMTGxiIgIICuPb58zYF7qbLLausEKDqdDl1dXV7VOrAUPFJ3AR4UFouFgIAAxMbGoqCgAEePHqVnePfv3++V/8+6x4JgDoeDwMBAREdHIysrCxkZGUhLS6PvbiQlJSEuLg7h4eGQyWRenzlqtjokJAQJCQn0/qmpqXR1lD179tCfGyrdxd9s78zMDGpra3Hu3Lk1R1NTE8bHx71So5xOJ8bGxtDc3IyrV6+uOMZ3tLW1+f39pqqz+Ht+BEEQG7X5b/wHjLp929PTg+bmZjQ0NHgNqgWyvz+cvkQiEfbs2YPDhw/j5MmT2L9/P4KDg+/5ZbQca6mRwWqBM8Vut2N2dhYLCwv3/MPt8XgwNDSEW7du+Z1ZDAgIQGJiIpKTkyFcR/e2nS4wMBDh4eGQy+VrBl1r4XA4kEqlkEqlfgNOin2pI99aM84ulwt6vd5vCcDlRCIRHeSuNcu6HsyldsxSqRSJiYmIjIz0ewFAVaeYn5/fcgtrikwmQ3JyMoKDg303rRuPx4NMJoNYLF7zPaQWaK4VOFNpWXfv3sXly5dRX1/vlSojEokQFRWFlJQUZGVl0bPBsbGx2Lt3r1fJM9dSWUdqId1q5ubm0N7ejpGREa8AWyKR0BeoDxKHw4FKpUJ2djY+//nP4+tf/zqeeeYZ7Nu3b0N/o1hLpSmDgoKgVCohkUgg8FNzfSOoYFwmk0GpVEIkEoHFYsFms0Gv1/t9nTUaDa5cuYIzZ86sOWpqalYsfnU6nRgeHsatW7dw7ty5Fcf4jvr6eq8Za4IgiPth1wTO1Op3m80Gi8UCs9nsNWw2GxYXF/3elmWxWJBIJIiPj0d5eTlOnjyJRx99FCUlJYiJiUFQUBA4HM66vpAoTCYTKpUKcXFxEIvFvptpJpMJg4ODmJiY8PvFQqHqps7Pz8O0SkMJPp+PiIgIetX9bkctMFtvXrM/VK7wvQIKz1JtXH+fD4rb7YbFYln19afw+XwoFAqIxeItzTZTGEsLxJRKJV1e0Jd7qa6zzWa75/NbL/ZSQ5+1LjjuhbFUGeJer7/b7b7n689aylkPCwtDRkYGEhISvD7noaGhKC0tRUpKCoRCIf28g4ODkZyc7DU7vLi4iLm5OXrG2hdVP3t6ehpDQ0N0qgY126pUKhEVFbWhuvHbgbFUdUUsFtPNcqiUjY3+nlC/G9T7s5H8dX8YS/WnqXNSn32n0wmHw+H37gy1ZmBhYWHNYVpqALP8HJ6lZlImkwl6vX7FMb7DbDav+fkiCILYDlv/1t8F2Gw2lEolMjIy8Pjjj+OrX/0qTp06haKiIigUig1/IWHpS16pVCImJmbNaghUSa2RkZE1Z9sMBgMmJib8LkajUPm8oaGhD0XgvNNQOc5ms3nNuwNcLhcSieSeeaYbweVy1zVzS3WZ247Aeaehul5mZGTg+PHj2Lt3r1fgGhERgUOHDiElJcXrNaIa/iyfHV5cXMTs7CzdqtqXw+HA/Pw8JicnMTIygtnZWbhcLrpih0qlQmRk5Jq/2/cTm82GZKlhzlYubB4El8t1z1xygiCIh8X2fOvfR9SCOIVCQd/W93d7XCaTISkpCenp6cjOzsaBAwdQWVmJL3zhC3jppZfw5S9/GadPn0ZxcTFiYmIglUo3ndcJn5mh5ORkZGZm+s2HNBqNdJcu6namv+oaBoMBk5OTfhejsZbyYOVyOcLCwqBSqdZcCEdsDjVLOT09vWbKD5/Ph1wu37YZZ/jkCvv7fFMsFgsWFhbWfH67FZPJBJfLhUKhQHp6Og4fPowvfelLePbZZ1FRUYG8vDwkJCSsqLNOVblZvrjRbrdjaGgInZ2dmJ+fx6JPIxSDwYC+vj66XCQV9IWEhKCgoABRUVH0LO2nhclkbnmW+H6j7paEhYXh6NGjeOmll/Ctb30L3/3ud/GXf/mX+Ku/+qt1jSeffBJZWVlQKv9fFy8+n4/MzEw8/vjjePnll1ccc6/x53/+5/jWt76FY8eO0XcWCYIgturT+1ZYJyo4ValUiIqKgkql8jsDQ33Z5uTkoKioCEePHsUzzzyDP/mTP8F3v/tdfOMb38Czzz6LvLw8usTUVlG3ltPS0lBQUOC3IYpv4GxfpSyd0WjE1NSU35XfLBbLq5pG8FKtaWJ7LZ+lXCsw5fF425qqgWWBs0QiWfNijqo57C/9YLej0j6kUimSk5Nx+PBhvPzyy3jxxRfx2GOPobCwELGxsZBIJF7BpFAohEql8ipHaLfbMTg4iPb2dszOzq5I49Lr9ejt7cXo6KhXClVYWBhKSkoQHR1NP0asjrlUDSQqKgqf+9zn8Od//uf4/ve/j9deew0/+tGP1j2++MUvoqCgwKuKCZ/PR0FBAZ5//nl873vfW3HMvQZVBeTUqVNITEz0O7FBEASxUdvzrX8f8ZeaRBQUFOCpp57Cn/7pn+IHP/gBXnvtNa/xyiuv4POf/zyefPJJVFZW4sCBA8jKykJsbCzkcjm9En27Z3A4HA7Cw8Ppts/+eDwemM1mTE5O0t3PfGk0GnR2dmJ2dtZ3EwQCAVJSUujartv5/AlvHo+HHqu5X68/g8G4b+febRgMBvhLHQrj4+NRWlqK5ORkv5VkeDwexGIx4uLikJWVBYVCASzLkZ2ZmYFWq6VzaG02G9RqNRoaGtDd3e11kSSXy5Geng6VSrXsJxCroS52qIYxKpUKQUFBEAgE4HK54HA46xpUzrTve8tcWjzLZrNXHHOvIRAIEBQUBLFY7JUTTxAEsRW7JnDOzc3F6dOn8c1vfhPf//738bd/+7de40//9E/x9NNP49SpUzhx4gT27t2LjIwMRERE0LV27wcOh4OwsDA6cPb9w0+xWCxrBs5arfaegXNWVtYDX+VPEJ8WDodD10svLCxEQkKC3+CHw+FAKBQiPj4e2dnZXlVCnE4nZmZmMD09DZvNBpfLBbPZDLVajebmZvT19cFut4OxtJBOoVAgJSXFK2WAWBuLxQKPx6NzsqmmKKv9LXxQOEtt06nh77NDEASxUTs+cN7pWCwWZDIZ3cmPqtDhi6oXOzY25rWwy+l0wmw2Q6PRrCjHROFyuQgLC0NUVNSa3fEI4rOKyWQiNDQUqampXuUh7XY7pqamoFar6ZJ+DQ0NaG1t9VpPEBERgYMHD2LPnj339UKbIAiC2N1I4LxFrKVSd6GhoQgNDYVcLvebf6zT6dDT04OxsTGvBYL2pY5qMzMzfqtqsJaaIoSGhiIiIoIEzjvAWmkcW3GvFBFidUwmEyEhIUhOTqYXDzIYDDgcDqjVaoyMjNC/Z42Njbh7965X4BweHo4DBw4gLS2N3NYnCIIgVkUC520SEBBAp1P4a4ii1+vR39+P0dFRuvWwx+OBwWDA2NiY35lmNpuN4OBgREVF0Q0H1qq4QDwYHo8HTqdzzZJ1G0XVKfet/uCLzWaDx+OtuYDws4jBYEAqlSIiIoJu+MHlcmEymdDR0YG6ujp0d3ejp6cHd+7cQX9/v1dus0KhQFZWFiIjI7dtwSdBEATx8CHfENtEIBAgMTERGRkZfssemc1mjI2NQa1W0x3sqMDZt9Ushao/HRMTA4VCgcDAQBI430fUQicOh7Nm8LS8he9aQe5GUIvWVitXSKEWPZHPgTcmkwmxWIywsDBERETQraltNhuGhobQ0tKCO3fuoK2tDZ2dnRgfH4fdbqfzqMPDw+n24592bu5uRLU4n5+fx9zcHObm5ugulwsLC9Dr9TCZTLBYLH6HzWZbUQva4/FgcXERdrsdVqt1xTHUMBqN0Ol0KxqizMzMYGpqasVdPIIgiK1YPTogNmS9echWqxVarRYGgwEejwdGoxHj4+N+Z5y5XC4iIyORlJTkNxgnthebzYZCoaCDrtVQXee2s1MZdU6TyeR38SiFatCxHeUUHzZUWlNaWhpKSkq8KmNotVpcuHABFy5cwMzMDP14aGgoysrKkJmZSc9Sk8B540wmExobG/HBBx/gnXfewTvvvIP3338fH374IT788ENcvnwZTU1NaG1t9TuGhoYwOzvr1azG5XJhbm4OQ0ND6OrqWnEMNW7fvo3z58/TP4sav/3tb/Ev//IvuHXrltdzJQiC2AoSOG8TDocDpVKJiIgIr/J3vsxmM6ampqDT6eDxeKDT6TA8PIyFhQXfXcHhcBAREYGEhIRPrYPZZwmLxYJUKoVSqVwzMLXZbJibm4PRaNy2wNlut0Or1WJhYWHNwDkgIIAEzqtgMpn0nZ+8vDyEhITQdw/0ej2am5vR3NwMvV4P5lK79/DwcLoCD0mFWhvVNt1isUCn08FsNsPhcMDtdsNut2NgYAA1NTW4dOkSPv74Y3zyySf0xcqVK1dw48YN1NTU+B2dnZ0r6tgvLi5ienoa3d3daGxsXHEMNa5fv45Lly7RP4saH330Ed555x10dHR4/TsIgiC2ggTO24TJZCIwMBAqlQoJCQmIjY31O2tpNBoxMjKCmZkZuFwuzM7OorOz02sWjMJmsxESEoKYmBgIhULfzcQ2owKve6XEUOXMqDbN28FoNGJoaAhqtXrNdtoCgQASiYQEzqtgsVhQKpWIi4tDaGjoqlVuuFwugoKCEBsbi4KCAsTFxfndj/h/nE4nTCYThoaG0NjYiIGBAczOznrlittsNoyNjeHu3btoampCQ0MDGhoacO3aNXzwwQc4c+aM31FbW4uRkRHodDqvnzc0NIRbt27h/PnzK46hxscff4za2lr6Z1Gjt7d3xSw2QRDEVpHAeZswmUzweDxIpVIkJCQgLi7OqwUwxWAwYGhoiK4rOzs7i6GhIa8ZZwaDAR6Ph6CgIISEhCA0NNRvEE5sL+ri517lyIxGI4aHh6HRaLa8QNDj8cDlckGv12NwcBATExNenewofD4fUqmUbuaw1vP7LKPuGoSHh9NdNv1dZAiFQsTGxiIpKQmJiYlQqVR+7xB9li0uLsJisWB+fh6Tk5Po6elBY2MjamtrcfPmTYyOjq7IS3Y6nZibm8PExARGR0cxPDyM4eFh9Pb2oqWlBU1NTX5Hf3//iiCcmlgYGBigA3F/4+7du3R31uVDo9HAZDKteSFKEASxUSRw3mYBAQGIj49HQkKC38B5YWEBPT09GB4ephfPzM3NeX1hMJlMKBQKREdHr1kbmtheLBYLQUFBUCgUfksKUqh2zRMTE1sOnF0uF6xWK2ZmZtDX14fx8XG/gXNwcDDS09O90g+IlaiLTrFYjPDw8FVLOCqVSuzbtw85OTkQi8VgsVgkt9kHdWelra0Nly9fxq9//Wv8wz/8A/7zP/8T58+fx+zsLBQKBQQCge+hBEEQDy3y7bvN+Hw+IiIiEBUV5fcLxWQyYXx8HMPDwxgaGoJGo4HFYvGaFWGz2QgPD0dqaiqUSuUDKT9G5Sna7fZty9vdbZhMJoRCIWQyGRQKBSQSid8LFuquwdjYGObn52G1WteshLEWm80GjUaDiYkJTE9PQ6/X+03/CA4ORmZmJkJCQkiQtwZq9n5mZgZGo3HFjCiFynFmMplwuVxwuVybfg9X4/F44Ha74Xa7t/3c9xO1gLm7uxs1NTW4evUqqqqqUF1djatXr6KpqQl9fX0wm810WhN10RkREYH09HTk5eUhLy8PBQUFKC4uRmlpKcrKyrB//36/IyMjA6GhoV4paWw2G6GhoUhPT0dhYeGKY6ixb98+lJSUoKioCPn5+fTPzs3NRXZ2NkJDQ73+fQRBEFtBAudtxuVyoVQqoVKp/M5a2u12ekFgU1MTxsfHV3ypstlsxMfHIz8//4G1/l1cXIRer4dOp/vM3tqkZiulUiliY2MRHx/vN7fcbDZjYmICQ0NDGBwcxOzsrN/gbD2MRiN6enowMDDgddfBl0qlQnZ2tlelCGIlp9OJvr4+3Lx5E7dv30ZHR4dX3ixFo9Hg5s2baGxsxPT0NCwWy4rfw61yu91wOBxbvivxoM3OzqK1tRXnz5/HL37xC7zzzju4du0aRkdHfXel8Xg8xMbGYv/+/XjhhRfw7W9/G9/+9rfx3e9+F3/913+N//k//yd+9KMf4fXXX/c7vvjFL6KgoMAryOXz+SgoKMAXvvAFfO9731txDDX+/u//Hj/84Q/xV3/1V/jOd75D/+xvfetb+MY3voGCggKv50oQBLEVJHDeZmw2G2KxGCqVCtHR0QgNDfUKoKl6vWNjY6irq8PIyMiKL2wWi4XQ0NBtLUPHYDAgEomgUqn83rp2OByYmZmBVquF2Wze1hrFuwWDwQCLxYJQKERCQgKSk5P9VjNxOp10nnNdXR36+vo2nEu5uLhIN79pbGxER0eHVyc7CpvNpjtHpqamQqFQ+O7ymUfV+9VoNOjq6kJdXR1u3LhBLw6z2+2+h8BoNGJgYAANDQ24cuUKGhsboVarYTQa1/25pwJju93u9y6B0+mE2Wyma7Z/GlxLNcctFgsMBgO0Wi3Gx8cxODiIvr4+9Pf3Q61Ww2az0cfYbDbMzMxgeHgY7e3t6O3t9SqZSf0dEQgE9Ew9h8NBWFgY0tPTUVRU5DUjXFZWhrKyMuzbt2/VQaUhLU9vY7PZUKlUSE1NRUFBwYpjlg/qZyz/uQcOHMCBAwcQExNDn5MgCGKrSOC8zZhMJvh8PkJCQpCbm4uMjAy/uc6Tk5O4desWhoeHV3ypMplMyGQyhIeH+z12MxgMBkJCQpCSkuK3s6HdbodGo/Fq0LLZWdTdjipplpaWtuaFy9jYGC5evIimpqYVeer3YrPZMDk5iY6ODty4cQMtLS1+A2eqbnN4eDgSEhL8vnefdVSeeFdXFy5duoRLly7h5s2bmJ6e9t2VRtXNbmxsxM9//nO88847aG1thUajWfH7uBqXywWTyQSj0eh3VtnhcGBhYWFb631vhMfjgd1uh8lkohf49fb2oqmpCdeuXcOlS5dQVVWF1tbWdTcJYTAYdDArkUiwuLgIt9sNDocDuVyOiIgIhISEQKVSQaVSQS6XQyQSgcfj3bf0IjabDYFAgKCgIAQHB9M/OzQ0FJGRkWv+DhMEQWwUCZy3GTVrKRaLkZCQgJiYGL+5zhaLBVqt1itYYjAYUCqVSE5ORnh4OCQSid90j81gMBiQSCQICwvzm37gdrthtVoxOzuLwcFBjI6Ofmpf+J82Ho+HyMhIpKSkIDo6GsHBwX6rWOh0OvT396OxsRFVVVXo7OyEwWDwO8NJWVxcxPz8PAYGBnDjxg1cv34d/f39mJ+f9ztjrVKpkJeXh4SEBFKGzgc1ozs0NETPMt+4cQNdXV3QarWwWq3g8/mIjo5GXl4eDh06hNLSUoSGhoLL5WJxcRFzc3Po6+tDfX09Ll68iMuXL+Pq1avo6Oig776shgpMV7vIdLlccDgccDqd6w7Gt4oqGXfnzh3893//N9599128//77+OCDD/DRRx/h/PnzdMBcW1uLjo4OTE5Oes04UwIDAxEWFobU1FSUlJTg8OHDqKysxIkTJ3DkyBFER0fTwTCV5hQQEACBQAA+nw8+nw8ejwcOh3Nf8/Kpv7lcLpf+uXw+HwKBAAEBAX7XKRAEQWwWCZzvE4FAgIiICPpLej2YTCbi4uJQWlpKB9xr1RPeCAaDgYCAAEil0jWDcb1ej7t376KzsxN6vf4zmbLB5XIREhKChIQEpKWlISYmxm96i91ux8LCAhobG/G73/0ON2/ehEajWTPYstvtGB8fR2NjI959911cuHABWq3WdzdadHQ0jhw5gtTUVHC5XFJNYxmbzQadToempia89957uHjxIm7fvu010ywUCpGTk4NTp07hG9/4Bp577jmkpKRAJBJ5LbgdGBjAu+++i9/85jf45S9/iStXrmBwcNBvfjSFShGhZl13ApvNhoWFBXz00Uf4wQ9+gL//+7/HP/7jP+InP/kJfvrTn+J3v/sd3n//fbqT3/j4OAwGg98Zc5lMhpSUFJSXl+O5557DN7/5TfzN3/wNvv71r+Opp55CamoqqfBCEMRnDuu11157zffBB8lms6G6uhpNTU2+m4ClfLrw8HDExcUhJSVlV912Y7FYmJubQ2dnJ3Q63T1X17PZbOTm5qK0tBTJyckICQnZtlkaj8eD2dlZ6PV6jI6OYnx83HcXYCl4X1xchNlspnMiZ2ZmMDk5iYmJCXp4PB6IxWK/z8/tdtMdEuvr6zE8POy7CwDQK/AjIyPpMmubNTIygurq6lX/XUqlEuHh4UhOTkZKSorf501hMBhgs9nweDz0jOHc3Bw9A0+9h56lqglOp5MOPgwGA6ampuhKGVNTU3RN287OTjQ3N6Ourg4NDQ1obW3F1NSU3/xYuVyOxMRElJWV4dChQ4iMjFz19fZFvX/Dw8Oor6+HRqPx3QUA6AuDsLAwhISE+G7ekI6ODlRXV/vtgAmALg2XkpKC2NhY380bYjQaMTMzg87OTtTV1aG2thZNTU0YGxvD3NwcXC4XeDweoqKikJWVhfLychQXF69IU6Ly0qlcZZPJBIvFAr1eD6PRiLm5OajVakxNTWFmZgYmkwk2m40OlN1LnfQcDgccDgeUSiVSUlLokZOTg7S0NLqb6P2ujIOlWW63242mpiY0NjZidnYWGo0GOp2O/neZzWZYLBbY7XYsLi7SjX8UCgViYmKQkpKC7OxsFBUVobi4GLm5uUhPT0d8fDx9ByYoKIhuT76ez+S99Pf3o7e3F2q1mr7w4fP5SE9PR1JSEkJCQiCRSHwPI3Ygl6kXi6Ze34cJYkdhciRgi1LB5G28AAMJnO8TapGZTqdDe3s75ubm7lnqjc1mo6SkBPv27UNYWNi2/1utViscDgddxcEfapHg2NgY+vr6MDg4iMnJSQwMDKCnp4ceQqEQ8fHxfr80d3vgTKEWejIYDIyNjWFhYQEOh2NFoLu4uAibzQa1Wo3m5mb09/fTFTdGRkbQ09OD9vZ2VFVV4fLly6ipqUFHRwcWFhZW/TwkJSXh4MGD2L9/P4qKiiCRSNY9s/ewB87T09Po6+tDVVUV3nvvPdy9excjIyNeqUUikQhFRUWoqKjAwYMHkZmZCYlEArFYjIiICHC5XExMTNCpNdRx1EXQ+Pg47t69i66uLq/fX4fDQX92qPQAsViM6OhoOtikRlZWFh00C4XCdb9/W8FiscDj8TA2NgatVku3x14L1WwpPj4ehYWFKC8vR2VlJX3BkZSURHdhpEpjruf3ZyNI4PzwIIEzsRuQwHkHovLudDod1Go19Ho9FhYW/OaxYulLQiwW49ChQzhw4ACkUum257N6PB4wmUwMDQ1hYmICbrd7xS1a6vazw+GAxWKB0WikFxaNj49Do9Fgfn4e0dHRyMrK8vsF+rAEzgwGg87PpIbJZKKD5+V3D6jZaWomz2g0YnZ2FtPT0xgfH8fY2BhGRkYwOTmJhYUFWCwWv0GzXC5HSkoKSkpKcODAAaSmpiI0NHRDKTsPW+DscDhgNBoxMTFBV824du0ampub0dfXB51OB6vVCvfSIrWYmBjk5OTg4MGDKC4uRmxsLCQSCf0e8vl8cDgc8Pl8CIVC+nNntVrpms4OhwNWqxVWqxUmkwkmk4m+oOzv70dnZyfu3r2LtrY29Pf308/BZDJhcXERHA4HDAYDdrsdVquV/j2am5uDwWCA2WymL2Spn2O1WukZ74WFBczOzmJ2dhZzc3P00Ov1Xv9W32CcwWCAyWRCrVZjbm4OMzMzKxZJslgsBAQEQKlUIi0tDXl5eSgtLUVJSQny8vKQmpqK2NhYuvkSj8cDm82mZ+Xn5uag0Wi8nhc1dDodPQO//N91r9Hd3Y3u7m5MTk7SqUs8Hg8JCQmIiIigZ7h9j/M39Ho9/br5vn5zc3MwGo2wWq1gMpnrTqMj1o8EzsRuQALnHcxiscBkMkGn02F8fBzWVSoviEQiKJVKHDt2DOXl5eDz+esK7taLwWDQi2WGhoagVqthXfqi9se91BBFr9dDo9FgcnKSrrhhtVrpslO+X9zUsQ9D4Ex9sYrFYkRGRoLL5WJsbAw6nW7Nuwf2pVrdWq2Wft2mpqawsLAAm822YsZ6ufj4eBw8eBAHDhzwWsi2nudLedgCZ7PZjNnZWbS3t+P69eu4dOkSLl68iOHhYZjNZq+L0YCAAHqmuby8HNnZ2RAKhV6zxDweDxKJBImJiZDJZHC73bBYLND4aaG+uNR2WqvVYmBgAO3t7WhqasLt27dx8+ZNXL9+He3t7TAajdDpdPQsNpYCcb1ej/n5eWg0GkxPT9NNbsxLZeocDgfMZjM9DAaD1wUX1Rhn+bF2ux1sNhtCoXDV9I+5uTmYTCaMjY2tqL/M4XAgkUiQkJCA8vJyPPLII3j00Uexd+9eJCcn0wuIfT93er0eWq0WY2NjGBwc9Hpe1FhYWIDL5aIXbq539PT0oK+vD9PT05idnQWW1hrExMQgJCQEAQEBYDKZK47zN2ZmZjA+Pu71u0c9P61WC4PBAJvNhoCAAL8LpYmtIYEzsRtsJXBmeNZKun0AFhYW8Oqrr+JnP/uZ7yYAQGhoKAoLC1FRUYFTp04hMjLSd5cdbXJyEm1tbbhw4QLeeeedFbM/lOzsbOTl5eH06dN45JFHfDdvG6vVips3b+LmzZuoq6tDR0cHPYu1Hnw+HwEBAfjOd76D73//+36/uJ1OJzQaDe7cuYM33ngD1dXVvrsAAIqKivDUU0+htLQU2dnZfquPrNfVq1fxgx/8ALdu3fLdBADIyMhAYWEhKisrcfLkyQ0HolarFf39/bh16xba29vR399P54qvdhdhPahSWiqVCnFxccjJyUFJSQkSExMRHR0NPp/v9zVei9VqhUajQXV1Nd544w3cvXvXdxcAwLFjx3D69Gnk5+cjOzvbd/OGvP322/jBD36AoaEh300AgMLCQhQXF+PkyZM4dOiQ72ZgWc748lnN6elpOgAaGxujx/j4uNeFC4vFQkxMDJKTk3Ho0CHs3bsXsbGxqzaMoWaV1Wo1+vv70d7ejtbWVgwMDGBoaAgWi2XdvxNCoZDOQcdSNQqJRLLqbCaXywWPxwOPx1uxj3tZbWgqB3m5hIQE7N+/H4mJiQgLC1txPJZex/b2dty5cwd//OMfcfHiRbpcW1RUFD3i4uKQlJSEqKgoqFQqBAYGrpmGMTIygqGhITQ0NKCtrc13M7AUlItEog3fLRseHsbAwACmp6cxMzMDLM04JyUl0bPf1Ot7LzabDRaLBYtLCzeXoz4nCQkJdN47sb3sUx/BNvWR78MEsaOwAmLAD3scbHG676Z7IoHzfUbNNJ89exY///nPV50RfeKJJ/DEE0/QC4ruF7fbjfn5eQwPD+Pdd99FVVUVRkZG6Fme9WAwGPgf/+N/4Ec/+pHfoO5hC5wpVApGZ2cnamtrUVNTgxs3bsC8RhWNexEIBJDL5cjJycEjjzyC/Px8pKames2SbtRuDZzdSwstp6en0dXVhdbWVjQ3N6O3txfDw8N0IOvxeFYssuVyuThy5AiOHDmC/fv3Izs7e12vH3WukZERdHd3o6qqChcuXKBTktaLsYFFcuvdD0vPb7ny8nK88soryM3NhUqlWvUuzcDAALq7u/Hmm2/i7NmzkMvliIqKwqFDh1BSUoL09HSEhYVtKGeZurj47//+b3z88ce+m4EN/tuWW/6eLv83U6/rVs67HJfLRUFBAUpLS3Hy5EmUlJR4bSe2jgTOxG6wqwNns9mMt956CxcvXvTdBAAICgpCbGwsMjMzUVJSguDgYN9ddjTNUjezTz75BP/1X/+Fqakp310AAC+99BJefPFFREZGerWd3W4ej4cuWdXR0YGenh4MDg5iYmKCzgGcn5+H0WiExWKh8yGDgoIgk8kgEokgEonw1FNP4YUXXvCbqrG4uAidTofBwUGcP38enZ2dvrsAS7NnhYWFSE1NRXx8vN/Zs/Xq6OjA22+/jd5e/7cIw8PDERsbS1cK2MwXMXULmuq+Ri1oovI9jUYjjEYjfXt4OTabDalUColEgqCgIEgkEshkMqhUKoSHhyMmJgbx8fEICwtDcHDwqgHRelCpIu3t7fjkk09W3Kqn7NmzB0VFRUhMTER8fLzv5g2pqanB22+/vWpaCNXCvKSkBFlZWb6bgaXPpsvlwuzsLHp7e1FfX4/q6mr09vZicnISDofD9xAAQFZWFrKyslBcXIy8vDxER0evOtO8GiovdmhoCAMDA5iYmIBarabHRgPp7RYYGAiVSoXDhw/jxRdfRHJyMj1D7M/4+DiGh4dx9uxZ1NXVISMjA2lpaUhOTkZMTAyCg4Ppknzr/V2gAud33nln1cB5p+NyuSgsLKQD59LSUt9diC1aNPXBZfT/d5ggdgoGRwK2KAVM3sZjyk89cHY4HPQCG3+4XC5EIhFCQkIQFxfntwXyTjYyMoK6ujpcvnwZZ8+epW9DUphMJphMJr73ve/hu9/9LgIDA7c087peHo8HTqcTer0eg4ODGBgYoMfQ0BCmpqYwNzcHLpcLmUyGyMhIOrCjmnIUFBT4/dKlcpzn5uYwMDCwap1iqVRKdxlTKpUbWgDnS6PR4O7duyteX0pgYCBEIhFiYmIQFxfnu3lTqNx1KtianJzE9PQ0mpub0dLS4rUvn89HTEwMoqOjERERQT+PuLg4xMfHr/s29HpQOc4ajQb9/f3QL7VK9hUcHIzQ0FAolUoolRvP81pudHQUbW1tXg19lhOJRAgKCkJcXBwiIiJ8N3tZWFjA0NAQampqcPbsWfT09GBmZsarkQhjaREck8nE888/j6effnpT+dOrodISmpqa0NTUhM7OTroSDTU7unyGdPn/vx9UKhX27NmDo0eP4tlnn73na0jl1zc0NGBoaAgVFRXIy8tDYGDgmnXc17J8xvncuXO+m2n+/iZ8Gvy9HxwOh8w4EwSxJZ964OxyuTAzM7PqoiJqgda98gZ3Gmr2rKWlBWfOnEFtbS29iGi5+Ph4JCUl4fOf/zyeeuopcDicLQWQG+FyuejZSZ1Oh/n5eeiW6r2aTCZYrVa6CoFYLIZEIoFQKKRnv1abGaeCcqvVCp1Ot+oCRB6PB6FQiICAAHrxz2ZRC7hWy0tls9ngcrn0bO92cDqdsNlsdBUEk8kEs9mM6enpFTOvbDYbQUFBEIvF9JBIJPQM9GaDGX+olAez2UwvZPRHIBB4vf5bQdX8Xi3fm8vlgsvlQiKR3PPil2psMjIygvb2dty+fRs3btyARqOBxWIBb6lDXWpqKtLT01FWVoaSkhLI5fJtWzxsMBig0+nohWWTk5PQaDQwGAz0QkC9Xg+DwYC5uTlMT0+vetGwHeLi4lBRUYFDhw6hoqLinnfejEYjDAYDNBoNjEYjoqOj6QW4q81S30tfXx+6u7tx/fp11NXVeW1jLFWg4fF4EC212P60+Fb0WI7NZiMxMRHp6ek4dOjQllOUCIL47PnUA+eHldPphMViwfXr1/HTn/4ULS0tfsvRHTp0CMePH8fevXtRXFzstY0gPsuoC6/q6mr8/ve/R3d3NzQaDYKCghASEoJjx47h+PHjiImJQVRUlO/h28bj8dDVcTQaDT2bS91hoGp1z8zMrJiJphYwLv8zu3yGer1/ftPS0vDkk0+irKwMmZmZ97xAcDqddFm87boQHxsbw/DwMLq7u1fcIWQuNVERCoUIDg7+VKtVmM1mGI1G6PV66HQ6r9eYxWJBqVQiIiICeXl5SExM9DqWIAjiXkjgfJ/MzMygo6MD165dw3vvvYehoSHYbLYVJcyee+45vPTSS4iLi7uvX/4EsdssLi7CbrdjcHAQd+7cQX19PW7fvo3k5GQUFxfTebtisfies9hb5XQ66Ythi8UCs9lMdxo0GAyYn5+HwWCAxWKh63xbrVaYzWY4HA6v6g42mw3WpVKQvjOiq4mPj8fhw4eRlZWFuLi4e94hcC91NqTSWbYDFYwuLCysuEPIWOq2yeFwIBAIPtU7g06nk65M4nA4vAJnBoNBl6FTqVTbdveJIIjPDhI4bzPqNnl/fz8++eQTXL9+HfX19SuqVvB4PPD5fLz88sv4i7/4C4hEogeS20wQu41lqSlIbW0tzp07h7y8PDz66KNQKBT3nHl9kKi651arFU6nE0ajka7dvTyAM5lMdBDqm7q1mtDQUOTm5iI2NhYKheJTDUwJgiA+y0jgvM0sFgu9KOe///u/cefOHWg0GthsNq/9EhISsGfPHpw6dQqnT58Gl8vdtluqBPEwoTpZqtVqDA0N0TWv+Xz+jgogqdrQi4uL9AU0VYt5+Z0makbU4XCsSN1aTUBAAF0JYzO1vQmCIIjtQQLnbUJ9UWo0GjQ3N+P69es4e/bsirq2TCYTLBYL+/fvx4kTJ1BSUoKioqIdsxKdIHYqqhwgi8XaUrk+giAIgtis7Ul+I+BcatzQ1taGjz/+GJcvX/ZbGo3H40EqlSI2Nha5ubn3LCtFEMT/j8lkbqkqBEEQBEFsFQmct8CzVHaN6sTX0tKCW7duoa6uDl1dXX7zF4OCgpCQkICkpCQkJCRALpeT2WaCWAcGgwEWi7Vti90IgiAIYqPIN9AWuFwuGI1GtLW14dy5c3jrrbfw4YcfYmJiwndXWkREBA4dOoSsrCwEBQXtqBxNgiAIgiAIYnUkx3kDqLqsZrMZZrMZMzMzUKvVaGhoQFNTE9ra2jA+Pu57GLC0uCcoKAgVFRV4+umnkZaWhpiYGHLbmSAIgiAIYpcggfMGLC4uwul0YmhoCIODg3SwPDY2hqmpKRgMhlXrskZFRSEnJwcVFRV47LHHoFKpIBAISJoGQRAEQRDELkFSNTbI4/FArVajubkZ9fX1qKurQ29vLzQajd+gmcfjQaFQICkpCaWlpcjKyoJKpUJAQAAJmgmCIAiCIHYREjhvAIvFAovFwuTkJFpaWjA8PAydTge73e67K00kEiE+Ph55eXnYv38/UlNTwePxfHcjCIIgCIIgdjgSOG8Ag8Gg6zCz2Wy43W44HI4VbbSxlNMcHR2NnJwclJeXo6ioCLGxsZBKpaQqAEEQBEEQxC5EIrgNYjAYCA4ORnx8PCQSie9mWlBQELKzs3H48GGcPHkSpaWlkEqlYLFYJEWDIAiCIAhiFyKB8wYxmUzI5XLExMRALBZ7PS4QCBAaGor8/HxUVFTg8OHDKCkpQXx8PORyOTgcDgmaCYIgCIIgdikSOG+Cv8CZxWJBJBIhNjYWjzzyCJ555hk89thjyMvLg0wmIzPNBEEQBEEQuxwpR7dBHo8HCwsLmJycxG9+8xtcvnwZcrkcCoUCISEhiI6Oxp49exAXF4fQ0FAEBAT4noIgCIIgCILYhUjgvAlutxsmkwnvv/8+GhoakJaWhuTkZERERECpVEIgEIDL5YLJZJJZZoIgCIIgiIcECZw3yeFwoKurCxMTE1CpVFAqlZBIJAgMDCRpGQRBEARBEA8hEjhvgcfjgcfjoYNkEiwTBEEQBEE8vEjgTBAEQRAEQRDrQKpqEARBEARBEMQ6kMCZIAiCIAiCINaBBM4EQRAEQRAEsQ4kcCYIgiAIgiCIdSCBM0EQBEEQBEGsAwmcCYIgCIIgCGIdSOBMEARBEARBEOtAAmeCIAiCIAiCWAcSOBMEQRAEQRDEOpDAmSAIgiAIgiDWgQTOBEEQBEEQBLEOJHAmCIIgCIIgiHUggTNBEARBEARBrAMJnAmCIAiCIAhiHUjgTBAEQRAEQRDrQAJngiAIgiAIglgHEjgTBEEQBEEQxDqQwJkgCIIgCIIg1oEEzgRBEARBEASxDiRwJgiCIAiCIIh1IIEzQRAEQRAEQawDCZwJgiAIgiAIYh1I4EwQBEEQBEEQ60ACZ4IgCIIgCIJYBxI4EwRBEARBEMQ6kMCZIAiCIAiCINaBBM4EQRAEQRAEsQ4kcCYIgiAIgiCIdSCBM0EQBEEQBEGsAwmcCYIgCIIgCGIdSOBMEARBEARBEOtAAmeCIAiCIAiCWAcSOBMEQRAEQRDEOpDAmSAIgiAIgiDWgQTOBEEQBEEQBLEOJHAmCIIgCIIgiHUggTNBEARBEARBrAMJnAmCIAiCIAhiHUjgTBAEQRAEQRDrwPB4PB7fB4mdxePxwO12w+VywW63w+12g8PhgM1mg81mg8kk1z/EzmI0GqHT6eB2uwEAfD4fXC4XAMBkMsHn88Hj8XyOIgiCIIidjQTOu4DH44HT6YTVaoVOp4PL5UJAQAACAwMREBAAFovlewhBfKpGR0fR19cHl8sFAJBKpZBIJAAAFouF4OBgBAUF+RxFEARBEDsbCZx3AbfbDafTiYmJCVy9ehWjo6Pgcrng8Xjgcrn0jLNKpUJUVBTCw8MRHh5OAuotstlsmJmZwfT0NMbHx+FyuSAWixEUFASRSAQ+nw8OhwORSISgoKAdO/M/NTWFzs5OTE9Pw2AwQCwWQ6VSgc1mAwD9WQoPD0doaKjv4ZvS2tqKW7duYWpqCtPT0/RFHgCw2WyEh4cjKioKaWlp9GeVwWD4nmZHczgcmJ+fh8vlgkwmg0Ag8N2FIAiCeMiQwHkXoALn5uZmvP7667h27RodZCwPNrKzs3H48GGUlZVh37599K1xYnPm5+dx9+5dNDQ04Nq1a7DZbIiLi0N0dDSioqIgkUggEokQFRWF2NjYHXuhUl9fj1//+tdobGzE6OgooqKikJeXRwd6QUFBkEgk2Lt3L4qKinwP35Rr167ho48+QmNjI5qamsBgMOjPKofDQWxsLDIzM/H8889j//794HA4O/b1W43BYEBvby8cDgdSUlIgl8t9dyEIgiAeMjtziozwwmAwwGKxwGQy4XA4YLFYYDabYTabYTKZwGazERUVhfT0dOTm5iIyMnLXBSE7kdVqpVMOxsbGMDAwgObmZly9ehUfffQROjo6wOFwdnyuLovFAp/PB4vFgtVqxfj4OJqamlBXV4e6ujro9XpERUVta+oEh8NBYGAgmEwmbDYbrFYrLBYLLBYLHA4HJBIJIiMjIRaLwWazd9Vss8vlgtFoxMjICKqqqvDuu+/i448/Rl1dHTQaDb0OgSAIgnj4kMB5F2AwGGsuBJTL5cjMzERJSQn279+PxMREEjhvA6vVSgfMVLpGa2srrl69ivfffx/t7e3g8/kIDAzc0YEfl8uFVCqFSCQCi8XCzMwMWlpa0NDQgIaGBlitVqSmpm7rjCmPx4NEIvGbvkClalCztKt9rncql8sFvV6PwcFBXLx4EW+//Tbeffdd3Lx5E5OTk7Db7SA38giCIB5Ou+fbioBAIEB0dDRiY2PpfFEACAgIQHh4OBQKxa4OmKmUFGpB2XbayLndbjfsdjvm5+cxODiIkZERWCwWent0dDQqKytRVlYGlUoFgUCwowNnLF18+T5HsViM6OhoREREQKlUIjAw0Gv7VnC5XIjFYr+z8UwmE0KhEDKZzO/2nc5qtaKjowMNDQ2YnZ2F0WhET08PLl68iP/7f/8v3nzzTdTU1GB4eBgWi2VdnzmCIAhid2C99tprr/k+SOxMRqMR4+PjmJ+fx/z8PKxWKwAgNjYWhYWFSE5ORlhYGDgcju+huwJVOWRxcREulwuLi4t0GT7qf9c7FhcXsbi4CKfTCafTCYfDAbvdDiaTSS+KW43L5YLFYkF/fz8++ugj3L17F4uLi3TKTFZWFk6fPo2SkhLExMSAz+evCEp3Eq1Wi97eXoyOjkKtVsNutwMAgoODERsbi3379qGsrGxbPzcLCwtYWFhAf38/urq6vLYJBAIUFxcjJycHwcHBEAqFXtt3MrfbjYWFBVRVVeH69esYHR3FwsIC5ufnMTw8jJaWFmi1WohEIgiFQkgkEnC53DUXP1KfVeqz63a74Xa76TKU92Ms/51yL/0sj8fj9wKLIDZi0e2G3eXGottDBhk7driX/t4xN/H3jiwO3EWGh4fx7rvv4sqVK/QXNAAUFRXh9OnT2Lt3L7Kzs/3eHt8N+vr60NraivHxcUxMTEAmk0Emk3lVZFgvk8lEzwaazWYEBwcjIiICmZmZyMzMXDM4sFqtmJiYQG1tLX7605+isbERWCqpFhUVhYqKCpw+fRoJCQmQyWQ7fpa/p6cHly5dQnV1Na5fvw6dTgcASExMREZGBp566ik8++yzvodtSU9PD1pbW/Hee+/hzJkzXtukUim++c1v4qmnnkJERMS2pojcT06nE2q1Gl1dXfjjH/+Ia9euYW5uDmaz2Wu/xMRE7N+/H6WlpSguLkZoaOiqVVcWFxfR3t6O/v5+YGk2nsqbF4lE92VGfnFxEUajEVarFU6nk64MExISgujo6A3/rhHEcjcnp3FdPen7MEHsKGGBgSiPCEOsWOS76Z5I4LyLjI6O4sMPP0RVVRUaGhowPT0NPESB87Vr1/Dhhx/i9u3baGhoQGRkJCIjIyGXyyGVSn13X9PMzAyGh4cxMzODhYUFpKamorCwEJWVlTh58uSagbNer8fdu3dx/fp1/PGPf0RHRwcAICoqCvn5+aioqMDx48ehUCh8D90UJpMJFosFDofjN7jaqsHBQdy4cQNXrlzBhQsXMD8/DwDYs2cPCgoKUFlZiVOnTvketiVrBc5yuRzf+c538Nxzz0GhUEAsFntt34k8Hg/MZjMaGhpQW1uLjz76CE1NTV77sNlscLlcREZGYs+ePSgqKsL+/fsRFRWF4OBgvxdYdrsdZ86cwZUrV4BlzWGEQuF9m4232+2YmZmBXq+H1WpFYGAgwsLCsGfPHpSUlEAmk/keQhDr9m9tHXij7f//m0kQO1WmXIbv5mRiX1iI76Z7IoHzLvKwB841NTU4d+4campqUFtbC6FQCKFQCIFAsOGZN6vVCoPBAKvVCpvNhvT09HUHzlNTUzh79iyuXLmCuro6jI+PA0t1stPS0pCeno709PRtCWo4HA4CAgIQFhaGpKQkiEQbv/q9l9HRUTQ0NODSpUv44IMPMDs7C3yKgbNCocAPf/hDfOlLX4JAINjxZRM9Hg8sFgump6fx9ttv49y5cxgaGqLv+FDCwsKQn5+P7OxsZGVlITY2FqGhoRCLxavmwVssFvzLv/wL/uu//gtYVkGHw+FAIBBsa/oMxeVywWq1wuFwYHFxEQqFAmlpadi7dy+OHj0KpVLpewhBrBsJnIndgATOO4jH44FraTHQWnmNm/FpBM5U7iP1MWEymdv6b1quvr4eV65cwdWrV1FdXU3/TKqiCFWSby1UDieVN0qdIysrC6WlpTh+/DhOnDjh999A5ZQODg7iF7/4BS5cuIDx8XHo9XoAoEuoKZVKyGSybQlqhEIhPdtXVlaG4OBg3122bGJiAq2trbhw4QLOnDlDB3yfVuCsVCrx+uuv48UXX/R6fCeifp8nJyfR09ODn/70p/jwww+99mGz2QgMDERmZiZOnTqF0tJSpKWlrWsm3WQy4dVXX8W//uu/+m56YCIiIlBQUICjR4/ic5/7HMLCwnx3IYh1I4EzsRtsJXBeOwohNszpdEKn02FhYQFOp9N3866zuLjoVTf6fpbaEggEK25PMxgMyOVyxMfHY8+ePSgsLFxzZGdnIzExEUql0iuwpRqVUG2f/XG73dDr9ZiensbY2BjUajW9ABNLs9hqtRo9PT1obm6my7ltZQwMDMDj8SAwMNDvrXzi0+V2u2G1WnHnzh18/PHHGB4e9t0FCoUCBw4cwGOPPYaSkhLExcVt68UrQRAEsXOQqhrbjCpNNTo6CqPRiPn5eWi12hVjYWEBBoOBXrxmNBrvOaamptDR0YGhoSFMTU3RJdKUSiWio6MhkUgQEBAAq9W64tjVhk6ng0ajwdTU1IrnqNVqMTU1hYmJCRiNRiwuLtLNNPzN2G6VTqeDTqfDwMAAOjs7gaVZ++joaKSmpiIlJQWpqamIjo5edQQHB0MgEMDpdGJ+fp6+eElOTkZBQQGio6MREhLi9/k7HA6o1Wp0dnbi+vXr6Ovrg8vlApvNplMKGAwGFhcX6aYe9xoWiwV6vZ6uhDI3N0f/9/z8PEQiEfLz85GSkgKlUrnhlJT1MBgMmJ6exsDAALq6uujFbCqVCuHh4UhOTkZKSorvYVsyOzuL6elpdHd3e1XV4HK5kMlkqKioQHZ2ttcxO5FOp8Pk5CQuXbqEy5cvY3Jykv69Y7PZEIvFSEpKwrFjx1BWVoaUlJQNlYV0Op24ffs2urq6IBAI6BEQEEC3d1/+v1sdIpEIgYGB4PP54PP5EAgEUCgUiIyMRHx8PJKTk7clBYn47GrQaFGv8U5jIoidRhUgQEmoClGijf+9I6ka26y3txdvvvkmWlpawOPxVv0ClclkUKlU9Beiv0DO19zcHFpaWtDb24uxsTEYjUYAQExMDLKzsxEfH4/IyMgN5YyaTCb09/evyNekUCWyqBzI1NRUJCQk3LOk22b09vaitbUV77//Pt555x14PB5wOBwcPnwY5eXlSElJQVRUlO9hXjQaDXp7e1FbW4vLly/TC+GOHDmCp59+Gnl5ecjOzvb7euv1ety8eRNXr17FxYsX6eA9KCgIUVFRkEql4PF490wXWW5xcRHT09OYmZmBcamSwXIlJSX47ne/i71790Iul2/ovVuvnZKqwWQyoVKpkJiYiFdeeQVPPvmk72E7isfjQV1dHW7fvo2qqirU1dXBYrHAZrMBS9VBsrOzUVpaiiNHjiAtLQ1BQUEbeg+tVit+/etfr0j/oJrWCIVCOk1pq6gUJqvVioWFBfoCQCqVIi4uDnl5edi/f/+2LXolPptIqgaxG2wlVYMEztustbUVr7/+Oi5evAjrUk1if4KDgxEaGgqZTAaJROI3kPNlNpuhVquh1Wqh1+vhcDiApS++0NBQuvrERr5kjUYjurq6MDm5dvmg8vJyPPvssygoKEB6evq25Pf68hc4c7lcnD59GqdOnaLTMNaiVqvpIPGdd96hg8S1AmePxwOn04np6WmcOXMGn3zyCbq6ujA1NQUACA0NRV5eHmJjY6FQKNY9K7z8Nn9HRwfm5+fpix2qs155eTm+/e1vIzc3FxwOZ12fg43aKYEzi8WiU25eeOEFHDlyZEU9YSzLq6fqcFOPU/W57XY77HY7PWPOZDI3dDGzHiaTCQaDAWfPnsW5c+fQ1dWFwcFBYOnfERgYiNjYWDzyyCM4cOAAcnJyEBKy8T/ATqcT169fR3Nzs9fjXC4XcrkcYrEYHA5nQ7/Tq3EvNQGyWCxeZfQCAgIgl8sRGxuL9PR0iNeRm00QqyGBM7EbkMB5B+nt7cUvfvELXLlyBcPDwzAYDL67AEuBE3X7f71BKLUa3mazeQUUXC4XfD4fPB5vw8HX4uIiXX1iLY888ghefPFFZGZmIjY29oHNOD+IwNm91NSiv78f//Ef/4Hz589Dr9fTM4txcXE4cuQICgsLkZ6ejqCgIPrY1VCB38LCAt566y26DBwVOKtUKpSWluLQoUM4fvw4YmJitj34o+ykwDk1NRVZWVl47LHHUFhYSKezWJeqPGBZgGdcSnWiHjebzdDpdNBqtZiensapU6fw3HPP0Z/97dTV1YW2tjZcuHABV65cgcFggMlkApYCTSr1p7KyEnl5eZBKpeDz+b6nuSe3202XTFyOyWTSfxu2a0EutfjV5XLBbrd7LWLmcrkQCoUICgq6L7/bxGcHCZyJ3WArgTPJcd5mBoMBw8PDmJ6exuzsrFer5uVcLhdsNtu685uNRiNMJhP9hbf8eof6IrRYLCuOudcwm82rzoovl5qair1799Llte5HkDc3N4fp6Wn09PR45TinpaUhJSUFISEh92yWYTQa6Xzezs5OelYtPj4e6enpCAsLW5Hj7HQ6MTY2ho6ODly/fh0dHR1er4lYLEZ4eDji4+ORk5ND51IrFIo1B5fLhd1uR3NzMzo6OmC1WuFyucDlchEVFYXDhw+jpKQEkZGR97XpxHbmONvtdszNzWFmZgazs7N0LvzY2Bj6+/sxNDSE4eFhdHV1obe3F93d3RgdHQWWtdqm0l30ej36+/vR19eH/v5+DAwMYHh4GIODgxgYGEBvby86Ozvpx6nzdXd3o7e3FykpKdi7dy84HM6Wgz1qlttgMECr1aK+vh5Xr15FS0sL+vv74XA46OcfFhaG4uJi7Nu3D3l5eYiKitr0z2cwGBAKhSs+O3K5HBKJhM5LpkozbmWIRCKIl/Kl5XL5ip8VEBBwX36vic8WkuNM7AZbyXEmfyW3GZPJBI/HWzO/eTeiZsDYbPa2zH7tJIuLixgaGsKdO3cwMzPjuxk6nQ53795FR0cH9Hr9igsXf9xuN704bmJiAjqdDg6HA2w2GyKRCKGhoUhLS0NiYiICAwN9D9+xjEYj7t69i6qqKnz88cd477338Ic//AE/+9nP8Hd/93d49dVX8eqrr+J//+//jT/84Q9ob2+nj3W73ZiamkJLSwvOnDmDf/u3f8O///u/49e//jXeeustnDlzBmfOnMG7776LDz74ABcvXsStW7foCiR3797F0NAQLBYLJBIJgoKCEBgYuO47NmuhZrlHR0dRU1OD6upqXLp0CUNDQ/Q+bDYb4eHhyM7OxsGDB1FWVgaVSuV1HoIgCOLhRlI1ttlqtZbFYjGCg4MhFoshFAo3FVTbbDbMzs5iYWEBRqORvoW9Heem6HQ6DA8P07WLKadOncK3v/1tJCcnQ6VS3ZeZqQedquFZamyh1Wpx5swZnD9/Hv39/dBoNAgICKAXeTEYDLDZbOzduxd/8id/gqysrDXrOLvdbjgcDlRXV6OqqoqeucRS3ebk5GTs27cPzz//PLKzs8FaR31qX3a7HWazGUNDQ9BoNOAstWkODAxcsThNo9Ggp6dnxYLJhIQEpKen4+DBgzh06BAcDgfsdjudNiGRSCCTyRASEkKX8ZuYmMCVK1fQ2toKtVoNnU4Hu90OjUaDsbExOr3lfgoNDUVkZCS++tWv4uWXX/bdvCFU6oJWq4VarUZLSwsaGhrQ0tJCv2cMBgMikQjBwcEoLi5GSUkJ9u3bh9TUVPpCkvozymAwHroLS4LYCJKqQewGW0nVIIHzNlstcE5MTERpaSlSUlIQGxu7qZxM6hby3bt3MTAwAJ1OB2zTuSkdHR1466230N3d7fX4wxg4u91ujI+Po7e3F7/5zW9w/vx5WCwWsFgshIeH08GiyWTC9PQ0UlNT8dxzz6GkpAQpKSmrzhQvLi7CZDLhzTffxB/+8AeMjY1Bo9EAS+kRx48fR0VFBfbu3Yvo6OgNB1oejwdzc3MYGxvD73//e1y9ehVBQUFQLJUV821PrtfrMTk5uSJVg1qgmpqaivT0dMzPz2NhYQETExPQ6/XIyMhAbm4uDh06hPT0dGDp83327FncuHEDbW1tmJmZoS8U7HY7nXd/P6WkpCArKwtPPvkknnrqKd/NG+JwOGC1WtHU1ERf4LS1tUGv19M5zSwWi77IqKysxIEDByCXyyESiejPEZXaw2az78vvBkHsFiRwJnaDrQTO5C/8AxIYGIjIyEikpKQgNzcX+fn5Gx6ZmZl0E4/ls51CoRCRkZFITU1FXl7eiuM2MpKTk1cNCB8m1K35/v5+3Lx5k74QcTgc4PP5iIuLQ05ODr0YksvlQqvV0uUAzWbzqkHizMwMent7MTAwgNHRURgMBrDZbMjlcsTFxSEzMxPp6enrrqbii1p4aDabMTY2hrt376KlpQWNjY2ora3FjRs3vEZ9fT06OzsxOTlJ36XA0mK76elpdHV14caNG7h16xbq6+vR0tKCzs5OejZ7eZ4+FSRarVa60Y9er4fVal319fDFYrEgk8kQFRWF2NhYxMfHe43ExESkpKQgPj6ezqlffhclICAASqUSwm2oN+x0OmEwGKBWq9HV1YWBgQFMT0/TQXNQUBCio6NRUFCAiooKZGVlITw8nP7ZTqcTWq0WdXV1uHXrFtRqNSwWy7pfC4IgCGJ3IYHzA8LhcCAUCiGTyaBUKjc1FAoFRCIR+Hy+16wWm82GUCiEVCpFcHDwiuM2MqRS6aopCA8T91KpuLa2NnzyySf0AjYsBWapqakoLS1FUVERfTExNzdHz/gbjcZVc53Hx8dRV1eHgYEBzM/Pw263g8PhICIiAhkZGcjKykJSUhJEIpHvoZvidrthMpkwNTWFzs7OFd0JW1tb6Vrdyxc92mw2zM/PY2BgAA0NDejs7MTIyMiqlWC2C4vFotuM5+Xlrej+WFxcjLKyMhQWFiIpKQlKpdJr8R1Vym8zVSx82e126PV6zMzMYGpqCgaDwes9ValUyMzMREVFBSorK5GQkEBXunC73bDZbBgZGcGZM2fwzjvvoKurCzqdbl0LbgmCIIjdhwTODwiDwQCLxQKbzQaXy93UoKoH+JanYjKZYLFY4HA4K47Z6Pis3Gqm8lmpqg8GgwEsFgsSiQQRERFISEhAWloaMjIykJiYiODgYGApX7i/vx+tra0YHR1dEYguLCygs7MTV69exfDwMBYXF+F2uyEQCJCenu5VRWMruejLeTweuFwuOBwOmM1mGAwGr2EymWC1WuF0Or2CwuWzxwaDAWazGTabbc2gj8vlIjg4GElJSSguLsbhw4fx2GOP4dSpU3jiiSfw+c9/Hl/60pfwxBNPoLy8HLGxsfSxzKUGKBkZGTh48CAqKytx/PhxPProo17jkUcewZEjR5CXlwe5XL6ixCKPx0NQUNC2BM5cLhdBQUFITEzE/v376TsBKpUKsbGxKCwsxLFjx5CZmQmVSoXAwED6udhsNoyPj6OrqwtdXV2or6/HRx99hLNnz6K2thb9/f0wGAwrXneCIAhi93r4IySC8GN4eBjXr19Hb28vFhYWYLPZwGazERwcTKcPJCYmIjU1FYmJiQgJCQGfz4fZbMbg4CBu3bqFnp4e2O12+pxmsxlarRZtbW2oqqrymsXm8/nIzMzEvn37oFQq6cd3G4FAgIiICOTm5uLEiRN4/vnn8eKLL+Kb3/wm/uzP/gzf+9738MMf/hB/9md/hmeeeQZ79uyhj2UymYiKikJxcTFOnDiBz3/+83jyySdx8uRJr1FZWYlHH30U2dnZftMxuFwuxGLxtgTOAQEBCA0NRXFxMb7whS/gwIEDCA4ORnR0NDIyMlBeXo5Tp04hOTmZnmmmWK1WDAwMoKOjg27V/tZbb+HNN9/E2bNn0dLSQt9xIIEzQRDEw4EEzsRnCpWe0N3djZs3b2JsbIxOueDz+UhOTkZeXh7CwsIQGBiIwMBAqFQqZGdnIyUlBTweD9PT06ivr8edO3cwMjJCN+no7e3FBx98gPb2dphMJjidTnC5XKSnp6O8vBxpaWlQKpVbDvgYDAaYTCYCAwORkZGBY8eO4fjx4zh58iSeeeYZfOELX/Aa1OxvUlKS18+WSCSIj4/HgQMH8IUvfAFPP/00Hn/8cZw4ccIrn3d5zjufz0dUVBQyMjKQl5eH3NxcZGRkICUlBcnJyYiNjUVERASCg4MRFBS0YqEqh8NBQEAARCIR3W7ed1B1i7GULz4/P08368BSahKPx9t07eTlmEwm2Gw2goKCEBERgaKiIjz55JN4/PHHUVlZiaysLMjlcggEAnqm2ePxwOFwYHZ2Fnfu3EFjYyNmZ2dht9vpqjR1dXX45JNPcObMGdTV1UGv18PpdPr+eIIgCGKXIYEz8ZlCzQp3dHSgpqYGExMT9DY+n4/U1FQUFRUhJCSETl8JDg5GQUEBsrKyIBQKMTMzg4aGBjQ1NdHl6xwOB+7evYvf//736Oj4fyvKeTwe8vLy8NhjjyE1NRVisRhcn3Jxm0HltRcWFuLpp5/Gs88+iy996Uv4+te/jldeecVrfPWrX0VlZSUyMzMhEAjoc8jlcqSmpuLEiRN45ZVX8PWvfx1f+cpX8Pzzz+Pxxx9HSUkJYmNjvXKxBQIBoqKikJ6ejqysLKSlpSEmJgbh4eFQqVSQSCTgcrnbkoZisVigVqsxMzPjFXSyWKxtC5wpXC4XEokEeXl5eOGFF/Dcc8/hySefRFpa2oqZZrfbDbvdjpmZGTQ1NaG+vt6r89/c3Byamppw9uxZvPnmm6iqqsLc3BwcDgeZeSYIgtjlSOBM7BgOhwNGo9Er/cHlcqGzsxPvv/8+fv7zn+Mf/uEf1hz/9m//hnfeeQdNTU102TUsVT8wGo1gMpmQyWQ4ePAgvv71r+P555/HY489hvLychQVFWHPnj2IiYnxShEQiURITk5GZmYm0tLS6M6Dvb29OHPmDN566y384Q9/wK1btzA1NUX/nPDwcOTk5CAvLw+ZmZmQy+WbqqLhj0AggFwuR2JiIl1iLz09HQkJCYiKivIa4eHhCA4Ohkgk8gpoORwOXZ84KioKCQkJdEvs3Nxc7NmzBwkJCRCLxfQxy3P1qUHVoaZy7xkMht/3ksFg0PWm1xNYe5ZaRPtWqODxeJBKpV4XAVtFPW+hUEh3qBSJRCtmzLF016KrqwuNjY2Ynp6G0+n0eo4BAQGIiIhAXl4eTpw4gfz8fAQFBYHFYtGlCmdmZrzG3NzcA6mB7Q/1nBYWFjA7O0s/J51OB7PZ7FWJhSAI4rOOBM7EjuFwOGAwGLwCCJfLhba2Nrz99tv4yU9+QnemW238r//1v/Db3/4WdXV1XoGz3W6nFwAqlUocP34cf/M3f4OXXnoJTz75JB555BHs3bsXe/bsQWRkpFd6glAoRGJiIrKysujtHA4HfX19ePvtt/GrX/0Kv/nNb1BTU4PZ2VlYrVYwmUy6jFlubi7S0tJW1FfeLAaDQQfOCQkJyMrKQkZGBpKSkhAREQGVSuU1FAqF35bKHA4HAoGAXgwXGRlJL4rMzs5GRkYGEhISEBQU5PXz14N6L5cHzlj2M9cTOK9GIBBAJpPdlzblVMUOqiOhv4WyVqsV7e3tuH37NmZnZ303QywWIzExEQcOHMDzzz+PgwcPQiaTgc1m0+XvqFbl1KA+N58G6qJyfn4eMzMz9HOan5+HyWQiM+UEQRDLkAYo22y1BiiFhYV46qmnUFpaipycnE3Nlq127qKiIpw+fRp79+5Fdnb2ps5NuXbtGn7wgx+gtrbW6/EH0QDl1q1buHDhAl1/eDs/mrm5udi/fz+OHTuGY8eOYXFxEQ6Hg276QQXZcXFxq7ZRHhsbQ3NzM65evYoLFy5gamoKFosFgYGBkEgkMBqN0Ol0UKlUCAsLw5EjR1BeXo7U1FRER0f7nu6BmZiYoJvCnDlzhm4Ks2fPHhQUFKCyshKnTp3yPWxLamtrvd5LLKVDnDhxAseOHcPevXuRkZHhexiwrErI2bNn8cMf/hCdnZ1e21944QW88soriIqKeqALLV0uF/R6PYaGhvC73/0Oly9fxuTkJN1lk8rfzs3Nxec+9znk5uYiKSmJrgBCVTy5ceMGrl696nVuJpOJgICALf3ubpbT6YTNZqNnzqnfu6SkJOTm5iI2NhZRUVH35XeeePiQBijEbrCVBigkcN5mqwW3+fn5eOKJJ1BUVLQi13S9xsbG8PHHH+PatWtoamqiA6DtODfl5s2b+Lu/+zvU1dV5Pf4gAudr167hww8/RENDAxobG+nHqdvoy3mWmoD43sanFnstX8jl8XiQlpaGgoICPPbYY/jc5z634nzrYbFYoNPpcOnSJfzqV79Cb28vZmdnvRauAUB6ejoyMzPpmWzuUinBT8unEThXV1fjww8/RF1dHRoaGoCl2dynnnoKJ0+eRHZ2NhISEnwPA5YCVIfDgbNnz+Lv/u7v0NXV5bX9i1/8Ir797W8jMjKSLhP4IDgcDoyMjODOnTv4xS9+gerqanobleahVCpx7NgxfPOb30RiYqJXKb25uTlotVr87Gc/w7/9278tO/POVF5ejqeeegqFhYV0a3iCuBcSOBO7AQmcd5DVAueQkBAkJiYiNDR0RUOH9TIYDBgcHMT4+Dimp6fpjm7bcW7KxMQEbt26hcnJSa/HH0Tg3NDQgKtXr6Knpwf9/f1gs9l0Hq5vN0OdToe2tjaMj497PR4eHo7s7GyIxWK6u57BYEBERASSkpJw4MABlJeXbylwvnr1Kt5++210dHRgcnJyRbUEqozdo48+ivLycrqxzKdltwXONpsNer0e586dwz/90z+ht7fXa/vLL7+MV199FXK5/L6ka/hDzTafP38ely5dQl1dHfr7+4GlhZqBgYF0esa+fftQUlIChULhFWySwJn4LCCBM7EbkMB5B1ktcN7tHkTg3N3djTt37mBqagoajQZ8Ph8CgQAKhQIymcxr34mJCbz11lteM9MAkJeXh2effRbh4eFwOBx0sCIWi6FSqeiFb+sNnKkFalTgpNVqcevWLXz88cfo7OzE2NjYisA5KioKMTEx2Lt3L4qLixEfH4+IiAh6UR2LxQKLxfI7k34/bCZwpmbqPR4PvehvI7YSOJvNZmg0Gpw/fx5vvPEGBgYGvLZ/5zvfwY9+9KMVF1P3i8fjgdlshlqtxs9+9jO89957mJ+fp9N7AgMDERoain379uELX/gCsrKyEBQUtOIuAwmcic8CEjgTu8FWAuftj34IYpNUKhXy8/Nx6NAhnDp1CidOnMDRo0fp3O3lIyUlBRKJxPcUEIvFSElJQW5uLgoLC1FeXo7KykocOXIExcXFiIyMXHcQSOXa6nQ69Pb24sqVK/jZz36GP/zhD2hvb/ebpgEACwsLGBwcxOXLl/Hmm2/iP//zP/Gb3/wGFy9eREtLCyYmJmA0Gtfs0PdpcrlcdE3i2dnZT63aw07hcrnQ39+Pmzdvor+/HwsLC16VJmQyGfbt24cDBw4gKioKgYGBJMgkCIJ4SJHA+QGhas9SzR82MwIDA+lSXsuDv+04NzW2sxX0RslkMiQnJyM3N5eerc3Pz6fLrC0fVIDiKzAwEJGRkUhKSkJKSgqys7NRWlqK/Px8ugHJvbjdbroqxNTUFPr7+9Hc3Izq6mq89957qK6uxvDwMOx2O12RIjw8HBKJBBwOh56dbGpqwrlz5/Dhhx/i/fffx5UrV3D79m20trait7cXIyMjmJqawuzsLHQ6HYxGIywWCxwOBxYXF+FyuVbkcN8PVOttKhVlamoKo6OjGB0dhVqt9qpOsvwYu90Oi8VCt+pefvOKauXtOxvPXmo5v5nPGJW/fj/udqyGqjjR3d2NmpoaDA0N0c1tmEwmBAIBQkNDUVBQgIKCAoSEhEAgEPh9joylxjVCoRDBwcH0UCqVUKlUCA0NRXh4+KaGQqFAYGCg3xrhTCYTEolkxTHUCAsLQ2hoKFQqFZRKJf28qEWNm3mvCIIgHlYkVWObrZaqIRaLERwcDIlEApFPPd31slqt0Gg0WFhYgNFopIOS5ecWi8V+v7TXi5otpSoFUB5EqsZGdHV14dVXX8UHH3zg9fhjjz2G119/HZmZmV6Pb4TdbodGo8Hg4CAaGhrQ3d0NtVqNiYkJjI2N0bnlVNWB8KU6yU1NTaipqYHRaKSDTeZShz+RSES/P2KxGEFBQZDJZHQZOIVCgaCgIEgkErpGMZ/PB4/HA4/HW/csuT/3StWoqKjAkSNHMDY2hrGxMQwMDECtVkMqlSIiIgJ79+5FSkqK1zlNJhO0Wi30ej1sNhtkMhmio6PpzoRnzpzBf/zHf6C/v59uPc7n8/Hyyy/j2WefRXR0NEJC/N8iWy1VQyAQQCgU4utf/zr++q//+oHkN6vVaoyMjODMmTP45JNPoNVqodPpgKUyhfHx8SgpKcFTTz2FnJwcCIXCFSkaFKPRCL1ej9raWrrSCIPBoC8mhELhphf29vf306lDy5v6YKkO+SOPPIKCggKvxymLi4uw2Wyw2WywWq30XZT4+HhkZWUhNjYWMTExn/rvPLE7kFQNYjfYSqoGCZy32WqBc3h4ONLS0hAVFYXQ0NBVv1zXsrCwgK6uLgwNDWFqaooOzrbj3JSRkRFUVVVhbGzM6/GHOXD2LLVQttvtMJvNmJubw+DgINra2lBdXY3u7m66ZTKLxUJgYCCCgoJQVFSEI0eOID4+HuHh4aiqqsLZs2cxMTFBvz+r1ealOtWFhYUhISEBYWFhkMvlUCgUCA4Ohlwuh1wup2cjt/J6rxY4JyYmIiMjA/n5+cjPz0dfXx96e3vR1dWFsbExJCUlIScnBydPnqSDLip9ZXJyEi0tLVCr1bBYLAhfWpSpVCohEonw29/+Fv/8z/8MjUZDB5oCgQDf/va38eUvf3nNBZMGgwGTk5M4f/48fvrTn2JwcBBYuiMRGhqKL33pS/jWt7616SBzPZxOJ+x2O5qbm9HY2IiPP/4Y169f99pHJpPR6UAnT55EcnKy13ZfVGA6Pj7u9fvF5XK96kdvxq1bt3D58mW0tbWhvb3da1twcDC++93v4vTp016PU5xOJ33nwGw204GzRCLx+ixu5eKN+OwggTOxG2wlcGa99tprr/k+SGyeXq9Hb28vhoeHoVarYTKZAADR0dEoKSlBUVERXcM2JSVlQ0OlUsFqtcJgMGBhYYEOymJiYlBcXLylc1ODxWKhvb19xaLGlJQUFBcXQ6FQQCgUfupfojMzM6iurkZPT4/X40lJSaioqFi1FrM/LpcLWq0WAwMDuHHjBi5duoTq6mrU19djZGQEBoMBTqcTHA4HYrEYmZmZqKysxKFDh5Cfn4/IyEhIpVLIZDIkJSVBJpOBw+HAbrdjfn7e98cBy8rpUYH62NgYPWvY0tKC0dFR6PV68Pl8emHhZhkMBkxPT2NgYABdXV30Bdfi4iIWFhYwMjKClpYWNDY2oru7G+Pj4zCbzQgODkZERARSUlIQHh5OH2M2m9He3o4zZ86gqqoKd+/excTEBLRaLVwuF+RyOZqamnD58mWYTCY6EONwOCguLkZ2djYCAwNXDXyNRiNGR0fR2dmJ1tZW+u6HSqVCcnIy3YlxK9Vj7mV2dhbj4+P45JNP8N5772FoaGhFyopAIEB4eDhiY2ORkpIChULhtd0XNbssWGpeExISgpCQEDpFQiaTQSwWQygUbnhoNBoMDw9Do9FgamrK6+eKRCIcPXoUpaWlK46jhlgshkwmQ3BwMP28qIubgICA+/paEw+XBo0W9Zr//+KcIHYqVYAAJaEqRIn+X5fg9dr8NBaxIQEBAfTs4p49e5CZmbnhkZqaioiICDqX1vfciYmJmz43NeLj4zc967VVVAWL+3EThDq33W6HyWTC3Nwc1Go1+vr60NLSgrq6Oly/fh1XrlzBpUuXcOPGDbS2tkKj0cDtdkMikSAmJgY5OTkoKyujA5GEhASEhIRALBYjKSkJhw4dwqFDh+gW3unp6QgPD4fQ5xa+2+2GzWbDwsICRkdH0dPTg7a2NtTX1+P69etob2/H/Pz8itzh9XK73XA6nTCZTNDr9XSTl+WLGQ0GA8bGxtDS0oIrV66goaEBPT09mJ6ehtlsht1ux+LiIv3zqeoSQ0NDaG1tRX19Perr69Hc3Izbt2/jypUruH79OpqamjA8PAyj0biiXfN6cpyp4Nz3+fL5fMhkMgQGBt63CzdqYeTw8DBu3LiB27dvo7m5GRqNxnfXDWOxWOByuXQKDDXCwsKgUqkglUpXrDlY7wgICFj1dWUwGODz+SuOoUZQUBDkcjmdq089L6VSCbFY7LftOEEQxGcVCZyJHYMK9vxVqtgq6tw6nQ4TExO4e/curl27hv/6r//Cv/zLv+DnP/853nrrLdTV1dHpBxSRSITU1FQcOXIEX/ziF1FZWYnk5GRIpVKvQIXFYoHD4SApKQmPPPIIXnjhBXz961/HgQMHVrTxvpeQkBAUFxcjISHBbzC0Fqp8ntFoxMTEBPr7+9HT0wO1Wr1isd5aHA4HrFYrHTwvLi5Cq9Xi+vXruHHjhtdsul6vR19fH6qrq/Hmm2/i1q1bK6qGMBgMBAQEQCKR7NhgjKomUl9fj1/96ldoa2vz3YUgCIL4DCOBM7FjjI+P49q1a7hx4wZu3bqF1tZWuhnK8PAw5ufn6bbAq6GqOVAzllRai16vh8lkwszMDN39raqqCtXV1aiurkZdXR3a29vpUnEMBgNSqRQJCQnIz8/H/v37ceDAAezduxfp6elQKBQQCAReM58MBgMsFgsKhQKJiYnIz89HRUUFKioqcPDgQRQXFyMjIwPh4eEQiUR+b38HBgYiPDwc8fHxSE5OhlKpXDW/2ePxwG63w2g0YnZ2FhMTE/QM+s2bN1FVVYWqqirU1taira0NExMTK2aAlxOLxXRqRnZ2NtLS0hATEwORSETvQ6UbBAUFISYmBhEREeDxeLDZbJibm0NfXx9u3bqFwcHBFRdADAYDXC53R976pwLm3t5eXLt2DbW1tWhpadmWmWaCIAji4eH/G5kgPgX19fX4x3/8R/zDP/wDfvKTn+BXv/oVPvzwQ5w7dw7V1dUYGhqCxWJZMZO5HNX0RKPRQKPRQK1WY2hoCBMTE5ifn8fU1BSGh4fR2NiIy5cvo6urCwsLC161itlsNkQiEeLi4vDoo4/i85//PJ588kns3bsXKpVqXVUuGAwGRCIRIiMjceTIEbz44ov42te+hmeeeQYFBQUICwvzm+MbHByMoqIi7NmzB8HBwQgICFj1Z7ndbnohXW9vL+rr63H27Fm8+eab+Kd/+if84z/+I372s5/h3XffRWNjI8bHx9cMnCMiIlBcXIzPfe5z+MpXvoLnnnsOx48fR1RUFB0wh4aG4pFHHsHzzz+PJ554AoWFhV6Btd1up9NC/KWYULPyq10MfFoMBgNGRkZw8eJF/OQnP0FNTY3vLgRBEARBAmdi57DZbJidnUVvby9u3bqFmzdv4saNGxgdHaXTBe7VxU6r1aKmpgbnz5/H+fPn8cknn+DChQu4c+cOpqen4fF46Bq1PB6PnrV1uVzgcDgICwtDZmYm9u/fj6NHj+LgwYMoKipCcnIyQkND6TrXaz0HCofDgVAoRGRkJDIyMlBYWIgDBw7g8OHDOHr0KCoqKrB3715kZmYiMjISPB4PMpkM6enpiI2NRWBgoN+ZWY/Hg/n5eQwODuL27dv45JNPcPHiRVy5cgVXr15FTU0N6urq0NLSgs7OTgwPD0Or1cJkMnnN1lM5wxkZGTh27BiOHj2Kw4cP4+DBg/Tzio2NpQNjBoOBwMBAxMTEIDs7G3v37sXBgwdRXl6OzMxMyGQysNlsug71ctRMM4PBoF/v1bhcLroiyfLny+PxIJVKN5Tyci/UAs7u7m5UVVXhxo0baGlp8Vpgt5NnygmCIIgHiwTOxI6hUqmQl5cHhUKB+fl5uvGIx+Ohy+DdK3gZHh7G73//e7zxxht444038NOf/hS//OUvceXKFYyNjUEikeDAgQM4cOAAysrKEBERQR8rEAiQuVQx46tf/Sq+9KUvYd++fYiOjvY7O7wRHA4HSqUSmZmZePzxx/Hyyy/jW9/6Fl588UWcOnUKOTk5EIlEEIvFdHm61f6dbrcbo6OjqKmpwdtvv43/83/+D37729/io48+Ql1dHQYHB1dUgPCHSrd47LHH8Oqrr+LFF19EZWUlioqKEBMTQ1cH8U1HYbPZkMlk2LNnDx555BG89NJLOHnyJKKjo1dduBcQEACpVAq32w29Xr/mzLfD4aDTa5YH4NQMvlQq3bYZa6qCR01NDX73u9+hvr5+RdCPpRQaqVRK16kmCIIgPpu259uHILYBNaPI4/HgcDjoihABAQGIjo6GRCK552yv2Wymm3gMDAxgcHCQnnG1Wq3gcDhQKBRIT0/HgQMHUFJSgvz8fOTk5CApKQlMJhMTExPo6upCW1sburq60NnZiTt37qCxsXHTo6mpCe3t7ejo6EBTUxM6OzthMpmgUCiQl5eHY8eO4YknnkBFRQVd2uxeiwKpMnqDg4MYHR3F5OQk5ubmYDabvYI/NpuNgIAA8Pl8r4AzICAAKpWKbnRBBexU5QoqaPZ9vakZWConOjMzE2VlZThx4gT27duHuLg4SCQSr+Oo3POWlhZ89NFH9B2A5Yswl+9rNpthsVi8ZpypUm7+uuNtlN1ux9zcHLq6unDp0iXU1taiv78f8/PzXikmcrmcrnedmZkJuVzudR6CIAjis4UEzsSOxlhapBceHr6tt+jj4uJw6NAhPProo6isrMTx48dRUFCAmZkZfPDBB/jXf/1X/NM//RN+97vf4cMPP9y28Yc//AH//M//jB//+Me4dOkSZmdnkZSUhCeffBJ/+Zd/iS9+8YtIT0+HTCZbdVaVwWBALBYjJCRkXd3zOBwOJBIJhEKh1zkFAgEUCgXdeGMzASmPx4NcLkdBQQG++tWv4sknn0Rubi5CQ0O9fpbFYsH09DTOnTuHN954A5cuXcLAwAAMBoPX+bCsnbfD4VhzIehWUBdYt2/fxttvv43a2lqvPHdKREQECgsLUVZWhn379iEsLMx3F4IgCOIzxP83M7HtqPzdiYkJDA4O0jOiGxkjIyN0ruryGUXq3OPj45s+NzXUavWq3e4+LVT923vNwAJAaGgojhw5gtOnT+P06dM4deoUTpw4gby8PCiVSjqVICAgAEqlEunp6di3bx8KCgqQkpICLpeL2dlZusZzU1MTbt68uW2jrq4OXV1dmJqagtPpBJ/Pp1umx8TEICwsjE5H8Z3pXU4oFEImk/lNHRAKhUhOTkZZWRkqKyvpmeCEhASvMnDUQj02m33PmfzVMJlMsNlsevaZ6oDom7JBlQOcn5/H8PAwampqcPbsWVRVVeHOnTuYmZmBy+WCx+PxGvcLdTGhVCoRHh6+orSgRCJBbGwsXRklOTkZQUFBm7q4IAiCIB4eJHB+QCwWCyYnJ9Hf34+7d++itbV1w6OrqwsTExPQ6XRe9XjNZvOWz02NgYGBdeXH7lQxMTF47rnn8Morr+CVV17BN77xDXzta19DRUUFIiMj6YVuLBYLPB4PsbGxKCwspJu/iMVi+lxmsxk9PT0r0i62Mtrb26HT6cBmsyGRSCCVSukqE2w2+54BM9ZRD1ksFiM/Px+nTp3CSy+9hK985St49NFHkZGRseVc7dVQz5/H40EgEHg1e/Fls9lQV1eHt956C++++y6qq6sxMTHh1WzlfgsMDERERASysrJw6NAhpKenewXFwcHByMjIwN69e3H06FHExMR4HU8QBEF8NpGW29tstZbbjKVqAsvbK/f29m5odHd3Y2BgABqNBkajkZ513o5zL/8Zw8PDK3JPH0TL7ZGREfT29mJiYgJqtRpYmhk8dOgQSkpKvPZdreV2SkoKHnvsMaSkpEAul0Mmk0Eul9MpCUKhkA42GUt1l1ksFl2HuKGhAf39/cBS9QqXywUej4fQ0FCoVCrIZLINDSrXd3FxEQ6HAw6HAx6PB7KlxXXx8fEICQlZMUO7Fmo/h8OBpqYmjI2NITExEdnZ2SgqKqLrTVNVMQQCAaxWK8bGxtDd3U1fGFGd4pKTk5GSkuLzUzaGeq3a2tpw+fJlDA8PQ6fTrRoIL389jEYjdDodDAYDWCwWDAYDBgYGMDY25nUHJCYmhu7EGBISsmoqy3pQ7z2W0k3MZjOmpqYgFAqhUChQUlKCo0ePIjs7G5GRkZibm8Pk5CS6urowOjoKbKLl9v00PDxMN7mZnJz02iYUClFRUYGcnByvxwnifiAtt4ndYCstt0ngvM1WC5ztdjvdfKO3txddXV0bHv39/ZienvYKmrfr3NQYHh72W4N3twTOqampeOyxxxAXF4fAwECIxWJIJBKvoNn3uXuWWklrtVrU19fTgTNFoVAgMzMTycnJCA8P39BQKpXA0nvkdDrpahJSqRTp6emIi4ujA+eNYLPZcLlcaGlpgVarRUlJCY4cOYITJ07gyJEjyMzMRFRUFKRSKZxOJ2ZmZjAwMICurq77Eji73W4sLi6ipqYGf/jDH6BWq++Zn7y4uAidTge1Wo3BwUHMzs7Sr9fo6CjUavV9C5wpfD4fwcHBMBqNGB8fR1BQECIiInD06FE8+eSTdHUTqiZ4FwmcCWJNJHAmdoOtBM5b/+Yh1oUKLJxOJ+x2+6YGVR/X7XZ7BbbbcW5qrNaZj8pRpfJQdyrGUhUIJpNJDxaLRf+3b9C8HgqFgs4X3ug4fvw48vLyEBUVBaFw47+gaxEIBNi/fz++/OUv49FHH0VeXh5iYmIglUohEAjAZrM3/W/eKJPJhLGxMWi1WtjtdvozxOfzIZVKUVRUhGeeeQbJyclex7lcLlitVjpHf2BgAOPj434X6t0PLBYLfD4fCQkJOHz4MCorK3Hq1ClkZ2dDKBSCy+XSnymCIAiCIIHzp4D6It7MuBff/Tcz/HG73X4bW3wWUIHzyZMnNzwee+wx5Ofn37fA+dChQ3jppZdw/PhxZGVlISQkBAKBYF0LKbcTVQ9Zq9V6NTcRCASQy+UoKyvDCy+8gPT09BWfMZfLBaPRCI1Gg6GhIYyPjz+wBapMJhMcDgexsbF45JFHcOrUKZw+fRqZmZk7ssMhQRAE8eki3woPiEqlQllZGZ5++ml885vfpBevbWR8+ctfxv79+xEbG+tVhiwkJGTL56bGE0884bfkls1mW7OVMvHgMZbydH2blHwaZmdn0dzcjIGBAa+Fq6GhocjPz0d6ejqSkpJw9OhRPPfcc8jNzaUXN4pEIuTk5NBdCzMzM73aeD8IVGk+qnLGg77wIAiCIHYHEjjfB/7KaSmVShQXF+PkyZP42te+hpdffnnD4/nnn0dpaSmio6O9Amfq3KdOndr0ualRWVkJlUpFn5vicDig0+lgsVhI4LyDsFgsOiXj00AtCtRqtbhz5w6Ghoa8AueQkBDk5eUhNTUVcXFxqKiowDPPPIP8/HyoVCoIhUJIJBLk5uaioqICZWVlSEtLe+CBM5/Ph1wuh1gsJjPNBEEQxKrIt8M2o5o3LM/zxNIiN6r2rlKp3NRQKBQQiUTg8XheX+zUuaVS6YpjNjqo8mgEsR5GoxFDQ0Po6+vD8PAwZmdnvVI15HI5XeGEyWRCLpcjNTUVjz76KL7whS/g8OHDKCoqwr59+5CTkwOJROJ1foIgCILYSUjgvM1cLhfMZjNMJpNXAEG1PRaLxXSJtI2O5ZUhlgfO1LmDgoI2fW5qSKVSCIVCCAQCr7FaOgA140hmoT97PB4PXUWmp6cHY2NjWFhYgNvtpttjq1QqJCYmQiqVgrHUBTIuLg779+/H448/jsOHD6OkpASFhYVITU2FWCwGY9nizuWWL1BdDfkcEgRBEPcTCZy3mdVqxcjIiN9ayLuBSCRCamoqCgsLvUZcXJzfmWir1QqdTvfAqiAQOwNVDWNsbAw3btxAa2ur1+ddpVIhLy8PycnJUC51bKQwGAwEBgYiJCQEJSUlKC8vR0hICL2dzWZDJBIhMDDQK9eYKhlHBee+XC7XqlVhCIIgCGI7kMB5m9ntdmg0GkxNTe3KYDIoKAiZmZnYt2+f10hLS4NUKl1RB9lgMGBiYgIGg2FFmbydwuPxYHFxETabDUajEfPz87vyvdlJ7HY7ZmdnMTAwgMbGRvT29nq9piEhISgoKEBCQgKkUqlXa3AGgwEejwe5XI709HTk5ORAJpPR2zkcjt/AmeqQubCwsOJz5na7odfrodFoyAJWgiAI4r4hgTPhRaFQYP/+/Th16pTXqKioQF5eHiIiIrxuoQ8PD+PmzZsYGhqC2Wz2Whi2E1C39+fm5jA0NISmpiZcunQJg4ODvrsSGzA/P0+3EZ+YmIDJZPKa6Q0NDUVhYSGioqK8jlsPFouFwMBABAYGen3WqO6O/gJjqmvh2bNn6coeZOaZIAiC2G4kcN4m1Kymx+NBYGDgitbLYrEYPB5vx5e5EolESElJQX5+vtfYs2cP4uLiIJPJvIKZsbEx3Lp1C3fu3EFvby+mp6dhNpths9k+leDF6XTCaDRidnYWU1NTGBwcRHt7O+7cuYO6ujrU19ejsbERU1NTvocS6+B0OqHX6zEyMoL6+nq0trZiZmYGNpsNbrebrk4RHR2NjIwMvxVa7mW1GWeLxQKNRgOdTkc3AsKytJHOzk5UVVWhra0NExMT0Ov1n8pnkCAIgnh4kcB5m1CLAt1uN+Li4lbkCFOVBfh8vt9FdrvVxMQE6urq8P777+OXv/wlbty4geHhYWg0GhgMhgc+A20wGNDT04Pa2lp8/PHHePPNN/H666/jn//5n/Gf//mfqKmpwdzc3K7MP98JjEYj2tracPPmTbo9+fJmJaGhoSgtLcWePXsQEhKyqaYvHA4HQUFBEIlEK3Kcx8bGoNFoYDKZ6PblVqsV8/PzGBkZQVtbG65cuYJz586hp6fnU/kMEgRBEA8vEjhvI7fbjcDAQGRlZaG8vNxrUGkOQUFBO37WeT0cDgdMJhO0Wi1GRkbQ1NSEqqoqXLt2Dbdu3UJ3dzemp6e3pQMclZ9sMpmg0+kwOzuL2dlZv3nKc3NzaGpqwtWrV3HlyhVcvHgRn3zyCaqrq3H79m0MDw/DbrevWZnBl9PphE6nw8zMzIbH7OwsjEYjbDbbhn7mTkOluwwODqKurg51dXXo7e2FVquFw+EAi8UCj8dDVFQU9u7di7S0NAQFBYHH4/me6p44HA6kUimCgoLAZrPpx+12OxYWFqDRaOgZZSwLnLVaLcbHx9Hc3IyqqircuHEDzc3NGBsbIwE0QRAEsS1I4LxNqLzMqKgov+2ZDx48iNTUVAQHBz8UgbPRaMTExASMRiM8Hg8sFgumpqZQVVWF3//+97h69Sr6+vpgMBh8D90Qj8dDB0YTExPo7+9Ha2sr2tvbsbCw4Ls7pqamcOnSJZw/f54OlKmZSSxVbKDK662XyWRCf38/2traNjzu3r2LkZERzM/Pw263+55617BYLOjs7MS1a9dw5coVNDU1QafT0du5XC4kEgkSEhJQVlaGxMTETX/OuVwuZDIZJBKJV+BM0Wg0aGlpweTkJLAUOC8sLMBms2FxcRFqtRpNTU34/e9/j3//93/H9evXMTIyQu4yEARBEFtGAudtwmAwwOVyIRaLER0djeTkZK8RExOD4ODgFQuetgM1E0fNqvkunNpOHo8HbrcbGo0G7e3t0Gq1wNKMpMlkwsjICDo6OjA7O3vP/FKXywW73U5XQ5ifn/e6BY+lWfz+/n5UVVV5jbq6OszOznqdD8sacvT392N8fBwmk4mu4BAdHY2oqChERERsqDPdwsICPaO+0XH9+nV0dnZCo9F8aoEblQNM5SGvl3upmY9Wq0VfXx/q6upQU1ODzs5OTE5Oel0IKBQK5OTkIDs7G4mJiVAoFJv+nLPZbAQGBkKhUCAyMhLBwcFeAbRarUZtbS0GBgbooFmr1cJiscDtdsNoNEKtVqO9vR0tLS3QaDRwOBwb+rfvNk6nExaLhcyqEwRB3Geb+2YjdhSDwYCBgQFMTEzQs273C1WlYnR0FDU1NRgbG/PdBWw2G8HBwYiIiPBqDe7L4XBAr9djYmIC7e3t6O/vh1ar9aqasLi4iGvXruHHP/4xfvazn+HXv/41zpw5g6tXr65rgR+Px4NUKkViYiL27duHwsJCZGRkQKlU+u66Kq1Wi+rqapw5c2bD4/3330djYyPGx8dhNpt9T/1A2O12zM3NwWAwrDtdhGpsYzKZ0NXVRc8019fXY25uznd3xMTE4OTJkygtLYVQKNz0bDMAMJlMsNlsKJVK5OfnIyUlxauc3djYGKqqqtDR0QGdTgetVgu1Wg2TyeR1Hix9FqVSKeRyObhcru/mh4bVasXs7Oyn9hkjCIL4rGB47uf0JLGtRkdH8eGHH6KqqgoNDQ2Ynp4GltoaR0VFIS8vD3v37kV4eDgUCgV4PB44HA7YbPaGUhOWczqdsNvtdBWD+fl5zM7OoqGhAbdu3cLo6CgmJiaAZY0toqOj8fLLL6OyshIKhWLVBWKzs7MYHR1FT08POjs70dfXh4GBAUxPT0Oj0fjuviaBQEC3JBcIBODz+eDz+XQ3xYiICERHRyM0NBQhISEICQmhKz64XC5oNBp0dHTgX//1X3Hu3Dnf02+7uLg4PP3006ioqEBWVhaCg4N9d7knj8cDu90Om80Gi8UCh8Ph1XHPbrfDaDSiu7sbN27cwJ07d9DZ2UkHV3v27EFBQQEqKytx6tQp+rxOpxNWqxWTk5MYHh5GY2MjmpubcefOHfq9pshkMkRFReHw4cN45plnEBcXB4lEsunZ5uVGRkZw+/ZtXL58GR999NGKgP3kyZN4+umn0dfXh76+PrS2tqK7uxtYCr4DAwORkZGB73znOzhy5AgCAwM3FTwvLi6itbUV9fX1OHPmDK5fvw4s/dsLCwtRXl6OkydPIjk52ffQDfN4PHA6nXA4HPQdAi6Xu+JCZHFxEQ6HAxaLBSaTCefOncM777wDtVpN3wWihISE4PXXX8dXv/pVr8cJ4n74eGQMHw+P+j5MEDtKjFiEk7HRSJVJfTfdEwmcd5HVAmcOhwMejwehUIigoCAkJycjMzMTUqkUYrEYQqHQq3PbRphMJszPz8NsNsNut6O3t5fOLzYYDLDZbPQtezabjfDwcOzZswcvvvgijh07Bg6Hs+JLnzIwMICGhgbcuHED165dw9zcHKxWKx04bERoaCjy8/ORmJiIkJAQKJVKKBQKyGQySKVSOpjmcrn0oC4mdmvg7HK5MDc3h9nZWajVaiwsLHgFWQsLCxgaGkJXVxedsmCxWOhZZ3+Bs8fjgcFggFarxc2bN3H79m20tbVhaGgIJpNpRZ52dnY2Hn/8cezduxdZWVmQSCRgsVjbUjlmfn4eo6Oj+Oijj/Dv//7vK+4wxMbGIi4uDhqNBlqtFiaTiU6H4fF4CA8PR0FBAV5++WWUlZVt+nk9yMB5cXERBoOBXgTrdDohkUhWLLI0m8303RrqAuPmzZt+0zVI4Ew8SPM2O+b8LNwmiJ2Ez2ZBzucjwM86mnshgfMuolarceXKFVRXV+Pq1asYHx/33QUAEBERgfj4eLoWbkBAAAQCge9u62KxWOgA2eFwYGxsDENDQ37TQQQCAUpKSrB//36cOHEC+fn5vrt4GR4eRnNzM86fP4/33nuPrpLgDzWDKBKJIJFIIBaLIRAIIBAIEBAQgNDQUKSmpiIiIgJyuRxSqRQSiYS+aFhrBvRegbNcLkdycjIkEonX4+tBnVur1UKn09GB3XYEzu6lbnmTk5O4efMmurq64F7WvdFgMGBychITExMYHx9fUeEkKysLJSUlePTRR3HixAnodDosLCygp6cHXV1daGtrQ1dXF8bHx1fM9opEIoSEhKCsrAxPPfUUnf6ymRnd1VitVhgMBly+fBm/+tWv0NPTA61WS3/2AgMDIRQKYTKZVqQoiMViFBcX48CBA6isrMSePXu8tm/EgwycqbKWWq0WHR0dmJiYgMPhWPH7RlWZ0Wq1mJ6extDQEAYHB73yuKl1FxEREfjbv/1bvPDCC17nIAiCIDaOBM67yOzsLJqamlBdXY33338fAwMDvrsAy2agWSwWfet+MzNtWArOqOHxeOBwOOBwOPwuQAwKCsIXv/hFPPnkk0hMTERYWJjvLl6oUnbvvvsufvnLX64IzpZjs9mIjIxEdHQ0UlJSEBcXB5VKhZCQEISGhtJtnanUFBaLRY+1gmasI3DOysrCV77yFaSmpno9vh5WqxW1tbVobGxEX18fXQliOwJnLD33iYkJ/PznP8e5c+eg1+vp4JzKR3c4HH4Xaubl5aGsrAwVFRWoqKhAf38/uru78fHHH6O6uho2m42+A+AbuEVHR6OsrAzl5eWoqKhAWFgY2Gz2pj9n/lCfu6amJpw7dw41NTWor6+nLwCozza133IqlQrPPvssTpw4gfT0dISGhnpt34gHGThj6T2dnJzEJ598gpqaGq9FuBRqkS713tjt9hV3AxgMBqRSKeLi4vC9730PTz/9tNd2giAIYuNYr7322mu+DxI7k8fjoQOT5TWMlwe21P93OBx0/qvVaoXFYtnUoKox2O12OByOFYvLpFIpwsLCkJaWhoKCApSXlyM7OxsSiWRds49sNpuuDUzNGgqFQjpvOzk5mU4pKC4uRmFhIXJycpCamoq4uDhER0cjPDwccrkcAQEBdDoGFTyvJ5Bzu90wGAyYnp5GQ0MD+vv7vbbHx8ejsrIS2dnZUCqVGxoSiQQzMzOYmprCzMwMXcJNLBYjJiYG4eHhCA8PXzUP/F6YTCYcDgeGhoYwOTlJz25T7x31nvm70ElNTUVRURESExMRHh4OvV4PvV6PgYEBjIyMwGw20019KEKhEHFxccjPz0d5eTlycnIQEREBgUCwrtd6IxgMBh0Yc7lcOBwOLCwswOVywWaz0cHj8n8bk8mkK9tUVFSgqKgIUql0XZ/F1bhcLvqioru7G2q1Gli6wxIeHo7Y2FikpKRAoVD4HropTCaTnnmen59He3s7RkZGYDQa6UHNslutVthXqUvOZrMRExODPXv2oLi4GPHx8b67EARBEBu09lQcsaMEBAQgISEBxcXFOHbsGMrKyhAVFbWiw9qDpFQqkZmZicrKSnzta1/Dvn37EBoaumY1DQqVYuHbxjsoKAgxMTEoKSnBqVOn8OKLL+Iv/uIv8Kd/+qf40pe+hGPHjiEvLw+JiYlQKpVeFRc2y+Vywel0+g1AuFwupFIpVCrVhkdwcDCCgoIgEAi8Sqo5l5qq6HS6FTmpG8Xj8ZCcnIzc3FzI5XLfzauSyWRISUlBSEgIOBwOJBIJwsLCkJCQgNTUVMhkMt9DIBaLkZeXhyNHjqC8vBwZGRmbzp9fL5VKhZKSEpSUlCAzMxMhISGr3kVgsVhQKBSIjY1FfHw8IiMj1/VZXIt7aVEsVd7wQRAKhcjJyUFhYaHf92E9mEwmIiMjkZWVtW1BPUEQxGcdmXHeRRgMBp1+wOfz6VnZlJQUZGRkIDMzE3v27EFWVhaysrKQlpaG5ORkJCQkIC4uDgkJCRseKSkpSE9PR1ZWFnJzc5GdnY2srCwUFBSgtLQUZWVlKCwsRFZWFuLj4yGTydbdVpyaUZydnYXBYEBcXByys7Oxd+9elJWVITc3F2lpaYiNjaXTMajKCNSM8lbSUCiLi4uYnp6mc65HRka8tsfGxuLw4cOIioqi0wPWOxYXF9Hb24uBgQGo1WrMz88DS/m5YWFhiIyMREJCwqbypylUJQaz2Yzu7u4VlS8oMpkMiYmJyMzMpPN/8/LyIJfL6RljLpeLgIAAKBQK8Pl8sFgsOrBPTEyk7yrk5uYiIiICgYGBW37974XJZILD4YDBYNAz89RMOJW2wWAwIBAIIJfLUVpaivLycmRlZUGlUm35+blcLnR3d6O3txcTExN0/fD7NeOMpX8Pm82G2WzGyMgI9Ho9nXKzHiEhIUhMTMT+/fuxd+9eREZGQiwW++5GEARBbBDJcd6FqFvUbrebvm1N3VZffmvdbDbDZDLBaDSuWDy1Xnw+H0KhkB7UzHZQUBC92p+q5EAFsRsNVPr6+tDc3AzuUse4iIgIREZGegWgmznvetntdrS2tqKurg5nzpxBbW2t1/by8nK8/vrrKCkp8Xp8PUwmEz744AN88sknaGhooPPSlUolCgsLUVFRgc997nOIi4vzPXTdFhcXMTc3hzt37uAnP/kJrly54rsLACAlJQX79u1Dbm4uMjMzERkZibCwMDqlxePxeNVvvnHjBq5fv44rV65Ao9Hg8OHDOHToEA4cOIDY2Fj6fXlQqNSjixcv4v3338f/197dtCS3hWEcv4pSd5ZiBb2SmdmoBhE57GUafYe+TN8lqKhw0CTKSUFoIUVIGIoNQiKwN8wdGT6TXDx2Duds1M7gPP/fTLfgaOO1lte69+XlpdLptPQVrgOBgMbHx7W2tqbV1VUznrBZ7+/v2tvb0/7+vhKJhK6vr6Uf7DjXVKtV5XI57ezsKB6P6+zsTA8PD98/9hdtbW2am5tTNBrVysqKFhYWzH0KAGgOwfl/oFKpmENgvx/cq72u9ZMb0dHRYX503W63CUoej0eWZTk6fPdvisWiCoWCOjo61NXVJZ/PJ7/f//1jP8a2bZ2fn+vk5ES7u7s6PT2tu95McLZtW6lUSldXV7q9vTW7ld3d3eYJk7Ozsw0fDtRXlaBcLiuXy2lzc1OpVEput1uWZam7u9t0vwcHB02venBw0Iwq/Lvw+/HxoXw+r0wmo2QyqWKxqPn5eU1PTysUCjW1Q96o2kLx5uZG6XTa7ALXpk6Mjo4qFAopGo1qZmbG9N2bZdu2tre3FYvFlEqlzOLnp4OzvibpxONxHR0d6eDgQPf397IsS36/X4FAQG6329w3Xq/XLGjD4bAikYgikYjGx8dbcp8CAAjOgMrlshKJhI6PjxWLxZRMJuuuLy8va319vaHg/Pn5qaenJ728vNSNFWtvb5fL5ZLX6zUBqFnFYlGJREJ3d3fq6elRX1+fhoaG1N/f7/iw5nflclnZbFalUknhcLildYRm5fN5ZbNZvb6+yrZtTU5OKhQKyev1tqT3XmPbtjY2NrS7u6urqytT5akF56WlpR8Lzg8PD7q4uNDh4aG2trZ0f39vKloTExOmP9/f36+BgQGNjY0pGAwqEAj8p4tPAPhTEJzxx6tUKmbe8c3NjRkZVxMMBrW4uKiRkZG6952oVqtmKsnv0y3avvrdLpfLdImbVS6XVSgU9Pr6KpfLZXacaw9/aeQ7KpWKHh8fzYM4mj1o10rPz896fHw0C5Le3l75/X4zkrBVKpWK0um0MplM3WQUy7I0PDyssbExTU1NNXyI75+8vb2ZsY3X19cqlUqyLEs+n89UpTo7O2VZlrxer/m3xuPxtGQxBgCoR3AGAAAAHKD0BgAAADhAcAYAAAAcIDgDAAAADhCcAQAAAAcIzgAAAIADBGcAAADAAYIzAAAA4ADBGQAAAHCA4AwAAAA4QHAGAAAAHCA4AwAAAA4QnAEAAAAHCM4AAACAAwRnAAAAwAGCMwAAAOAAwRkAAABwgOAMAAAAOEBwBgAAABz4Be+akpGtl6TDAAAAAElFTkSuQmCC;clipPath=inset(5.17% 2% 3.2% 74.33%);" vertex="1" parent="1">
          <mxGeometry x="145.57" y="-866.52" width="24.43223482608462" height="64" as="geometry" />
        </mxCell>
        <mxCell id="Rhj5aZNn374z85N-x_Tq-42" value="&lt;div style=&quot;line-height: 140%;&quot;&gt;&lt;div&gt;&lt;div&gt;&lt;font style=&quot;font-size: 9px; line-height: 140%;&quot;&gt;手机摄像&lt;/font&gt;&lt;/div&gt;&lt;div&gt;&lt;font style=&quot;font-size: 9px; line-height: 140%;&quot;&gt;深度学习模型&lt;/font&gt;&lt;/div&gt;&lt;div&gt;&lt;font style=&quot;font-size: 9px; line-height: 140%;&quot;&gt;python处理&lt;/font&gt;&lt;/div&gt;&lt;div&gt;&lt;font style=&quot;font-size: 9px; line-height: 140%;&quot;&gt;电路执行&lt;/font&gt;&lt;/div&gt;&lt;/div&gt;&lt;/div&gt;" style="text;strokeColor=none;align=center;fillColor=none;html=1;verticalAlign=middle;whiteSpace=wrap;rounded=0;" vertex="1" parent="1">
          <mxGeometry x="60.99999999999999" y="-863.35" width="110" height="53.66" as="geometry" />
        </mxCell>
      </root>
    </mxGraphModel>
  </diagram>
</mxfile>
